<svg width="150" height="34" viewBox="0 0 150 34" fill="none" xmlns="http://www.w3.org/2000/svg">
<path d="M7.90022 13.0321L9.0019 14.7694L14.2577 22.2545H21.7431V0H13.8401V8.98898L12.9377 7.61891L7.353 0H0V22.2545H7.90022V13.0321Z" fill="black"/>
<path fill-rule="evenodd" clip-rule="evenodd" d="M49.0644 14.1362H47.7086V22.2558H38.869V0.000976562H51.84C56.6798 0.000976562 59.4545 2.34005 59.4545 5.64986V6.98359C59.4545 9.12089 58.1303 10.8934 55.5192 11.4959C58.3565 11.8617 59.3257 13.6671 59.3257 15.7073V18.546C59.3257 19.95 59.6792 21.0195 60.2923 22.0206V22.2558H52.6468C51.5488 22.2558 50.6767 20.6187 50.6767 18.8155V16.0389C50.6767 14.872 50.3872 14.1362 49.0644 14.1362ZM49.0644 5.74753H47.7086V9.95791H49.0644C50.2274 9.95791 50.711 9.45774 50.711 8.48731V7.08515C50.711 6.1151 50.227 5.74753 49.0644 5.74753Z" fill="black"/>
<path d="M76.4787 22.2545L83.9907 0H75.7015L72.4061 12.3284L69.1196 0H59.7285L67.4382 22.2545H76.4787Z" fill="black"/>
<path d="M111.642 13.0321L112.74 14.7694L117.998 22.2545H125.486V0H117.58V8.98898L116.679 7.61891L111.092 0H103.734V22.2545H111.642V13.0321Z" fill="black"/>
<path d="M36.9514 15.6441H34.7275V0H23.661V6.61084H25.8856V15.6441H23.661V22.2545H36.9514V15.6441Z" fill="black"/>
<path d="M0 25.6738H150V33.9996H0V25.6738Z" fill="black"/>
<path fill-rule="evenodd" clip-rule="evenodd" d="M140.625 18.7461H135.884L134.915 22.2549H126.752L134.013 0H143.496L150 22.2549H141.463L140.625 18.7461ZM139.821 14.2214L138.542 8.03327L136.898 14.2214H139.821Z" fill="black"/>
<path fill-rule="evenodd" clip-rule="evenodd" d="M88.1582 18.7461L87.1899 22.2549H79.0264L86.2883 0H95.7707L102.275 22.2549H93.7374L92.8995 18.7461H88.1582ZM92.0954 14.2214L90.8159 8.03327L89.1727 14.2214H92.0954Z" fill="black"/>
</svg>
