<svg width="14" height="20" viewBox="0 0 14 20" fill="none" xmlns="http://www.w3.org/2000/svg">
<path fill-rule="evenodd" clip-rule="evenodd" d="M14 6.81247C14 3.05607 10.8598 0 7 0C3.1402 0 0 3.05607 0 6.81247C0 8.41131 0.605127 10.2695 1.84991 12.4931C2.96492 14.4849 4.44212 16.4985 5.78634 18.3309C6.20919 18.9073 6.61888 19.4658 7 20C7.38117 19.4657 7.79089 18.9072 8.21375 18.3308C9.55803 16.4983 11.0351 14.4848 12.1501 12.4931C13.3949 10.2695 14 8.41131 14 6.81247ZM9.8 6.81247C9.8 5.30991 8.54392 4.08748 7 4.08748C5.45608 4.08748 4.2 5.30991 4.2 6.81247C4.2 8.31503 5.45608 9.53746 7 9.53746C8.54392 9.53746 9.8 8.31503 9.8 6.81247Z" fill="#F47920"/>
</svg>
