<svg display="none" xmlns="http://www.w3.org/2000/svg">
    <symbol id="sofa" viewBox="0 0 60 45">
        <path d="M30.0703 27.0942H29.9297C28.9589 27.0942 28.1719 26.3031 28.1719 25.3272C28.1719 24.3513 28.9589 23.5602 29.9297 23.5602H30.0703C31.0411 23.5602 31.8281 24.3513 31.8281 25.3272C31.8281 26.3031 31.0411 27.0942 30.0703 27.0942Z" fill="#222221"/>
        <path fill-rule="evenodd" clip-rule="evenodd" d="M9.375 33.6911H30C30.9708 33.6911 31.7578 32.9 31.7578 31.9241V26.0341C31.7578 23.1111 29.3921 20.733 26.4844 20.733H9.375C8.40422 20.733 7.61719 21.5242 7.61719 22.5V31.9241C7.61719 32.9 8.40422 33.6911 9.375 33.6911ZM28.2422 30.1571H11.1328V24.2671H26.4844C27.4536 24.2671 28.2422 25.0597 28.2422 26.0341V30.1571Z" fill="#000C26"/>
        <path fill-rule="evenodd" clip-rule="evenodd" d="M30 33.6911H50.625C51.5958 33.6911 52.3828 32.9 52.3828 31.9241V22.5C52.3828 21.5242 51.5958 20.733 50.625 20.733H33.5156C30.6079 20.733 28.2422 23.1111 28.2422 26.0341V31.9241C28.2422 32.9 29.0292 33.6911 30 33.6911ZM48.8672 30.1571H31.7578V26.0341C31.7578 25.0597 32.5464 24.2671 33.5156 24.2671H48.8672V30.1571Z" fill="#000C26"/>
        <path d="M50.625 27.0942C49.6542 27.0942 48.8672 26.3031 48.8672 25.3272V5.30105C48.8672 4.32671 48.0786 3.53403 47.1094 3.53403H12.8906C11.9214 3.53403 11.1328 4.32671 11.1328 5.30105V25.3272C11.1328 26.3031 10.3458 27.0942 9.375 27.0942C8.40422 27.0942 7.61719 26.3031 7.61719 25.3272V5.30105C7.61719 2.37805 9.98285 0 12.8906 0H47.1094C50.0171 0 52.3828 2.37805 52.3828 5.30105V25.3272C52.3828 26.3031 51.5958 27.0942 50.625 27.0942Z" fill="#000C26"/>
        <path fill-rule="evenodd" clip-rule="evenodd" d="M5.27344 41.2304H54.7474L54.776 41.2301C57.6611 41.2034 60 38.8357 60 35.9293V17.7879C60 16.2803 59.4079 14.8708 58.3328 13.8195C57.2579 12.7681 55.8368 12.2116 54.3386 12.2534C51.3216 12.3366 48.8672 14.8546 48.8672 17.8664V30.1571H11.1328V17.8664C11.1328 14.8546 8.67832 12.3367 5.66145 12.2535C4.1618 12.2105 2.74219 12.7682 1.66734 13.8193C0.592148 14.8708 0 16.2802 0 17.7879V35.9293C0 38.8523 2.36566 41.2304 5.27344 41.2304ZM4.11891 16.3524C4.49391 15.9855 4.98539 15.7854 5.50816 15.7854C5.52703 15.7854 5.54602 15.7857 5.565 15.7862C6.65824 15.8163 7.61719 16.7884 7.61719 17.8664V31.9241C7.61719 32.8999 8.40422 33.6911 9.375 33.6911H50.625C51.5958 33.6911 52.3828 32.8999 52.3828 31.9241V17.8663C52.3828 16.7883 53.3418 15.8161 54.435 15.786C54.9792 15.7691 55.4925 15.972 55.8812 16.3523C56.2702 16.7328 56.4844 17.2426 56.4844 17.7879V35.9293C56.4844 36.9036 55.6958 37.6963 54.7266 37.6963H5.27344C4.30418 37.6963 3.51562 36.9036 3.51562 35.9293V17.7879C3.51562 17.2426 3.72984 16.7327 4.11891 16.3524Z" fill="#000C26"/>
        <path d="M9.375 45C8.40422 45 7.61719 44.2088 7.61719 43.2329V39.4633C7.61719 38.4874 8.40422 37.6963 9.375 37.6963C10.3458 37.6963 11.1328 38.4874 11.1328 39.4633V43.2329C11.1328 44.2088 10.3458 45 9.375 45Z" fill="#000C26"/>
        <path d="M50.625 45C49.6542 45 48.8672 44.2088 48.8672 43.2329V39.4633C48.8672 38.4874 49.6542 37.6963 50.625 37.6963C51.5958 37.6963 52.3828 38.4874 52.3828 39.4633V43.2329C52.3828 44.2088 51.5958 45 50.625 45Z" fill="#000C26"/>
        <path opacity="0.203169" fill-rule="evenodd" clip-rule="evenodd" d="M11.1328 30.157H28.2422V26.034C28.2422 25.0597 27.4536 24.267 26.4844 24.267H11.1328V30.157Z" fill="#000C26"/>
        <path opacity="0.203169" fill-rule="evenodd" clip-rule="evenodd" d="M31.7578 30.157H48.8672V24.267H33.5156C32.5464 24.267 31.7578 25.0597 31.7578 26.034V30.157Z" fill="#000C26"/>
    </symbol> <!-- #sofa-->

    <symbol id="package" viewBox="0 0 51 51">
        <path fill-rule="evenodd" clip-rule="evenodd" d="M49.9927 12.0312C47.8774 10.9743 36.6807 5.37592 30.3451 2.20807L26.3142 0.192605C25.8024 -0.0642018 25.1976 -0.0642018 24.684 0.192605L1.00543 12.0312C0.375214 12.3481 0 13.0457 0 13.6613V37.3386C0 38.0288 0.389786 38.659 1.00725 38.9687L24.6858 50.8073C25.2195 51.0768 25.8297 51.0513 26.316 50.8073L49.9946 38.9687C50.6102 38.659 51 38.0288 51 37.3386V13.6613C51 13.0311 50.6175 12.3445 49.9927 12.0312ZM25.5 3.85894L32.62 7.41963L13.0159 17.222L5.89414 13.6613L25.5 3.85894ZM3.64286 36.213L23.6786 46.2303V26.6255L3.64286 16.6082V36.213ZM25.5 23.4637L17.0886 19.2583L36.6945 9.45587L45.1059 13.6613L25.5 23.4637ZM27.3214 46.2303L47.3571 36.213V16.6082L27.3214 26.6255V46.2303Z" fill="#000C26"/>
        <path fill-rule="evenodd" clip-rule="evenodd" d="M25.5004 3.85889L32.6204 7.41958L13.0163 17.222L5.89453 13.6613L25.5004 3.85889Z" fill="#000C26" fill-opacity="0.2"/>
        <path fill-rule="evenodd" clip-rule="evenodd" d="M25.5002 23.4638L17.0889 19.2583L36.6947 9.45593L45.1061 13.6614L25.5002 23.4638Z" fill="#000C26" fill-opacity="0.2"/>
    </symbol> <!-- #package-->

    <symbol id="tickets" viewBox="0 0 45 45">
        <path fill-rule="evenodd" clip-rule="evenodd" d="M43.2422 16.5235H40.5176C38.5791 16.5235 37.002 14.9464 37.002 13.0078C37.002 11.6925 37.7285 10.4971 38.8978 9.88799C39.7419 9.44836 40.0828 8.4167 39.6668 7.56073L36.4736 0.989594C36.2692 0.56895 35.9055 0.247094 35.4632 0.0952194C35.0209 -0.0566554 34.5363 -0.0258938 34.1166 0.180649L1.06972 16.4404C0.587725 16.6775 0.263584 17.1063 0.141855 17.5893C0.0508008 17.8017 0 18.0355 0 18.2813V25.4883C0 26.4591 0.786973 27.2461 1.75781 27.2461C3.69633 27.2461 5.27344 28.8232 5.27344 30.7617C5.27344 32.7002 3.69633 34.2774 1.75781 34.2774C0.786973 34.2774 0 35.0643 0 36.0352V43.2422C0 44.213 0.786973 45 1.75781 45H43.2422C44.213 45 45 44.213 45 43.2422V18.2813C45 17.3104 44.213 16.5235 43.2422 16.5235ZM35.8494 7.74847C34.3626 9.06463 33.4863 10.9635 33.4863 13.0078C33.4863 14.288 33.832 15.4884 34.4323 16.5235H29.2251L25.3982 8.38831L34.0836 4.11489L35.8494 7.74847ZM22.2432 9.94063L8.86403 16.5235H25.3399L22.2432 9.94063ZM3.51562 37.5705C6.54486 36.7881 8.78906 34.0321 8.78906 30.7617C8.78906 27.4914 6.54486 24.7354 3.51562 23.9529V20.0391H14.0625V41.4844H3.51562V37.5705ZM17.5781 41.4844H41.4844V20.0391H17.5781V41.4844Z" fill="#000C26"/>
        <path opacity="0.201419" fill-rule="evenodd" clip-rule="evenodd" d="M3.51563 37.5705C6.54486 36.7881 8.78906 34.032 8.78906 30.7617C8.78906 27.4914 6.54486 24.7354 3.51562 23.9529V20.0391H14.0625V41.4844H3.51562L3.51563 37.5705Z" fill="#000C26"/>
        <path opacity="0.198708" fill-rule="evenodd" clip-rule="evenodd" d="M35.8497 7.74844C34.3628 9.0646 33.4866 10.9635 33.4866 13.0078C33.4866 14.288 33.8322 15.4883 34.4325 16.5234H29.2254L25.3984 8.38828L34.0839 4.11487L35.8497 7.74844Z" fill="#000C26"/>
    </symbol> <!-- #tickets-->

    <symbol id="bus" viewBox="0 0 56 55">
        <path d="M32.7461 36.5278H23.2539C22.3802 36.5278 21.6719 37.2368 21.6719 38.1114C21.6719 38.986 22.3802 39.6951 23.2539 39.6951H32.7461C33.6198 39.6951 34.3281 38.9861 34.3281 38.1114C34.3281 37.2369 33.6198 36.5278 32.7461 36.5278Z" fill="#F47920"/>
        <path fill-rule="evenodd" clip-rule="evenodd" d="M54.5366 9.54302L51.8999 6.90377C51.6032 6.60677 51.2008 6.43992 50.7812 6.43992H48.7631C48.5443 2.85209 45.5602 0 41.9219 0H14.0781C10.4398 0 7.45574 2.85209 7.23689 6.43992H5.21875C4.79909 6.43992 4.39673 6.60677 4.10015 6.90377L1.46343 9.54302C1.16664 9.84002 1 10.2428 1 10.6628V18.5806C1 19.4552 1.70833 20.1643 2.58203 20.1643C3.45573 20.1643 4.16406 19.4553 4.16406 18.5806V11.3187L5.87403 9.60704H7.22266V44.9736C7.22266 46.1335 7.97444 47.1204 9.01562 47.4735V51.3606C9.01562 52.816 10.1985 54 11.6523 54H16.6094C18.0633 54 19.2461 52.816 19.2461 51.3607V47.6129H36.7539V51.3607C36.7539 52.816 37.9367 54 39.3906 54H44.3477C45.8015 54 46.9844 52.816 46.9844 51.3607V47.4736C48.0256 47.1205 48.7773 46.1337 48.7773 44.9737V9.60704H50.126L51.8359 11.3187V18.5806C51.8359 19.4552 52.5443 20.1643 53.418 20.1643C54.2917 20.1643 55 19.4553 55 18.5806V10.6628C55 10.2428 54.8334 9.84002 54.5366 9.54302ZM45.6133 44.4458H39.6578L40.2897 42.4638L45.6133 41.5401V44.4458ZM18.4329 40.5861L19.6635 44.4457H36.3364L37.567 40.586C37.7464 40.0237 38.223 39.6079 38.804 39.5071L45.6133 38.3257V31.9555C38.939 33.1236 17.0734 33.1257 10.3867 31.9555V38.3257L17.1959 39.5072C17.7769 39.6081 18.2536 40.0238 18.4329 40.5861ZM10.3867 44.4458V41.5401L15.7104 42.4638L16.3423 44.4458H10.3867ZM41.9219 3.16712H14.0781C12.0427 3.16712 10.3867 4.82467 10.3867 6.86222V28.7355C15.9636 29.9746 40.0329 29.9754 45.6133 28.7355V6.86211C45.6133 4.82467 43.9573 3.16712 41.9219 3.16712ZM12.1797 50.8329V47.6129H16.082V50.8329H12.1797ZM39.918 47.6129V50.8329H43.8203V47.6129H39.918Z" fill="#000C26"/>
        <path d="M51.8999 6.90377L51.723 7.08046L51.723 7.08047L51.8999 6.90377ZM54.5366 9.54302L54.3597 9.71972L54.3597 9.71974L54.5366 9.54302ZM48.7631 6.43992L48.5136 6.45514L48.5279 6.68992H48.7631V6.43992ZM7.23689 6.43992V6.68992H7.47211L7.48643 6.45514L7.23689 6.43992ZM4.10015 6.90377L4.27701 7.08047L4.27705 7.08042L4.10015 6.90377ZM1.46343 9.54302L1.64027 9.71974L1.64029 9.71972L1.46343 9.54302ZM4.16406 11.3187L3.9872 11.142L3.91406 11.2152V11.3187H4.16406ZM5.87403 9.60704V9.35704H5.7704L5.69716 9.43035L5.87403 9.60704ZM7.22266 9.60704H7.47266V9.35704H7.22266V9.60704ZM9.01562 47.4735H9.26562V47.2943L9.09592 47.2367L9.01562 47.4735ZM19.2461 47.6129V47.3629H18.9961V47.6129H19.2461ZM36.7539 47.6129H37.0039V47.3629H36.7539V47.6129ZM46.9844 47.4736L46.9041 47.2368L46.7344 47.2944V47.4736H46.9844ZM48.7773 9.60704V9.35704H48.5273V9.60704H48.7773ZM50.126 9.60704L50.3028 9.43035L50.2296 9.35704H50.126V9.60704ZM51.8359 11.3187H52.0859V11.2152L52.0128 11.142L51.8359 11.3187ZM39.6578 44.4458L39.4196 44.3699L39.3157 44.6958H39.6578V44.4458ZM45.6133 44.4458V44.6958H45.8633V44.4458H45.6133ZM40.2897 42.4638L40.247 42.2175L40.0976 42.2434L40.0516 42.3879L40.2897 42.4638ZM45.6133 41.5401H45.8633V41.243L45.5705 41.2938L45.6133 41.5401ZM19.6635 44.4457L19.4254 44.5216L19.4809 44.6957H19.6635V44.4457ZM18.4329 40.5861L18.6711 40.5101L18.6711 40.5101L18.4329 40.5861ZM36.3364 44.4457V44.6957H36.519L36.5745 44.5216L36.3364 44.4457ZM37.567 40.586L37.3288 40.51L37.3288 40.51L37.567 40.586ZM38.804 39.5071L38.7613 39.2608H38.7613L38.804 39.5071ZM45.6133 38.3257L45.656 38.572L45.8633 38.536V38.3257H45.6133ZM45.6133 31.9555H45.8633V31.6579L45.5702 31.7092L45.6133 31.9555ZM10.3867 31.9555L10.4298 31.7092L10.1367 31.6579V31.9555H10.3867ZM10.3867 38.3257H10.1367V38.536L10.344 38.572L10.3867 38.3257ZM17.1959 39.5072L17.2386 39.2609L17.1959 39.5072ZM10.3867 41.5401L10.4295 41.2938L10.1367 41.243V41.5401H10.3867ZM10.3867 44.4458H10.1367V44.6958H10.3867V44.4458ZM15.7104 42.4638L15.9485 42.3879L15.9025 42.2434L15.7531 42.2175L15.7104 42.4638ZM16.3423 44.4458V44.6958H16.6844L16.5805 44.3699L16.3423 44.4458ZM10.3867 28.7355H10.1367V28.936L10.3325 28.9795L10.3867 28.7355ZM45.6133 28.7355L45.6675 28.9795L45.8633 28.936V28.7355H45.6133ZM12.1797 47.6129V47.3629H11.9297V47.6129H12.1797ZM12.1797 50.8329H11.9297V51.0829H12.1797V50.8329ZM16.082 47.6129H16.332V47.3629H16.082V47.6129ZM16.082 50.8329V51.0829H16.332V50.8329H16.082ZM39.918 50.8329H39.668V51.0829H39.918V50.8329ZM39.918 47.6129V47.3629H39.668V47.6129H39.918ZM43.8203 50.8329V51.0829H44.0703V50.8329H43.8203ZM43.8203 47.6129H44.0703V47.3629H43.8203V47.6129ZM51.723 7.08047L54.3597 9.71972L54.7134 9.36633L52.0767 6.72708L51.723 7.08047ZM50.7812 6.68992C51.1344 6.68992 51.4732 6.83037 51.723 7.08046L52.0767 6.72709C51.7332 6.38318 51.2672 6.18992 50.7812 6.18992V6.68992ZM48.7631 6.68992H50.7812V6.18992H48.7631V6.68992ZM41.9219 0.25C45.4269 0.25 48.3027 2.99804 48.5136 6.45514L49.0126 6.4247C48.7858 2.70613 45.6936 -0.25 41.9219 -0.25V0.25ZM14.0781 0.25H41.9219V-0.25H14.0781V0.25ZM7.48643 6.45514C7.6973 2.99804 10.5731 0.25 14.0781 0.25V-0.25C10.3064 -0.25 7.21418 2.70613 6.98736 6.4247L7.48643 6.45514ZM5.21875 6.68992H7.23689V6.18992H5.21875V6.68992ZM4.27705 7.08042C4.52674 6.83038 4.86547 6.68992 5.21875 6.68992V6.18992C4.73271 6.18992 4.26671 6.38317 3.92325 6.72712L4.27705 7.08042ZM1.64029 9.71972L4.27701 7.08047L3.92329 6.72708L1.28657 9.36633L1.64029 9.71972ZM1.25 10.6628C1.25 10.309 1.39036 9.96982 1.64027 9.71974L1.28659 9.36631C0.942916 9.71023 0.75 10.1766 0.75 10.6628H1.25ZM1.25 18.5806V10.6628H0.75V18.5806H1.25ZM2.58203 19.9143C1.84664 19.9143 1.25 19.3174 1.25 18.5806H0.75C0.75 19.593 1.57002 20.4143 2.58203 20.4143V19.9143ZM3.91406 18.5806C3.91406 19.3174 3.31744 19.9143 2.58203 19.9143V20.4143C3.59403 20.4143 4.41406 19.5931 4.41406 18.5806H3.91406ZM3.91406 11.3187V18.5806H4.41406V11.3187H3.91406ZM5.69716 9.43035L3.9872 11.142L4.34093 11.4954L6.05089 9.78373L5.69716 9.43035ZM7.22266 9.35704H5.87403V9.85704H7.22266V9.35704ZM7.47266 44.9736V9.60704H6.97266V44.9736H7.47266ZM9.09592 47.2367C8.15284 46.9169 7.47266 46.0229 7.47266 44.9736H6.97266C6.97266 46.2441 7.79603 47.3239 8.93533 47.7102L9.09592 47.2367ZM9.26562 51.3606V47.4735H8.76562V51.3606H9.26562ZM11.6523 53.75C10.3368 53.75 9.26562 52.6782 9.26562 51.3606H8.76562C8.76562 52.9538 10.0602 54.25 11.6523 54.25V53.75ZM16.6094 53.75H11.6523V54.25H16.6094V53.75ZM18.9961 51.3607C18.9961 52.6782 17.925 53.75 16.6094 53.75V54.25C18.2016 54.25 19.4961 52.9538 19.4961 51.3607H18.9961ZM18.9961 47.6129V51.3607H19.4961V47.6129H18.9961ZM36.7539 47.3629H19.2461V47.8629H36.7539V47.3629ZM37.0039 51.3607V47.6129H36.5039V51.3607H37.0039ZM39.3906 53.75C38.075 53.75 37.0039 52.6782 37.0039 51.3607H36.5039C36.5039 52.9538 37.7984 54.25 39.3906 54.25V53.75ZM44.3477 53.75H39.3906V54.25H44.3477V53.75ZM46.7344 51.3607C46.7344 52.6782 45.6632 53.75 44.3477 53.75V54.25C45.9398 54.25 47.2344 52.9538 47.2344 51.3607H46.7344ZM46.7344 47.4736V51.3607H47.2344V47.4736H46.7344ZM48.5273 44.9737C48.5273 46.0231 47.8472 46.917 46.9041 47.2368L47.0647 47.7104C48.204 47.324 49.0273 46.2443 49.0273 44.9737H48.5273ZM48.5273 9.60704V44.9737H49.0273V9.60704H48.5273ZM50.126 9.35704H48.7773V9.85704H50.126V9.35704ZM52.0128 11.142L50.3028 9.43035L49.9491 9.78373L51.6591 11.4954L52.0128 11.142ZM52.0859 18.5806V11.3187H51.5859V18.5806H52.0859ZM53.418 19.9143C52.6826 19.9143 52.0859 19.3174 52.0859 18.5806H51.5859C51.5859 19.593 52.406 20.4143 53.418 20.4143V19.9143ZM54.75 18.5806C54.75 19.3174 54.1534 19.9143 53.418 19.9143V20.4143C54.43 20.4143 55.25 19.5931 55.25 18.5806H54.75ZM54.75 10.6628V18.5806H55.25V10.6628H54.75ZM54.3597 9.71974C54.6096 9.96982 54.75 10.309 54.75 10.6628H55.25C55.25 10.1766 55.0571 9.71023 54.7134 9.36631L54.3597 9.71974ZM39.6578 44.6958H45.6133V44.1958H39.6578V44.6958ZM40.0516 42.3879L39.4196 44.3699L39.896 44.5217L40.5279 42.5398L40.0516 42.3879ZM45.5705 41.2938L40.247 42.2175L40.3325 42.7101L45.656 41.7865L45.5705 41.2938ZM45.8633 44.4458V41.5401H45.3633V44.4458H45.8633ZM19.9017 44.3698L18.6711 40.5101L18.1947 40.662L19.4254 44.5216L19.9017 44.3698ZM36.3364 44.1957H19.6635V44.6957H36.3364V44.1957ZM37.3288 40.51L36.0982 44.3698L36.5745 44.5216L37.8051 40.6619L37.3288 40.51ZM38.7613 39.2608C38.0883 39.3776 37.5365 39.8591 37.3288 40.51L37.8051 40.662C37.9563 40.1883 38.3576 39.8383 38.8468 39.7534L38.7613 39.2608ZM45.5705 38.0793L38.7613 39.2608L38.8467 39.7534L45.656 38.572L45.5705 38.0793ZM45.3633 31.9555V38.3257H45.8633V31.9555H45.3633ZM10.3436 32.2017C13.7113 32.7911 20.8699 33.0826 28.0047 33.0824C35.1395 33.0821 42.295 32.79 45.6564 32.2017L45.5702 31.7092C42.2573 32.289 35.1429 32.5821 28.0047 32.5824C20.8664 32.5826 13.7489 32.2901 10.4298 31.7092L10.3436 32.2017ZM10.6367 38.3257V31.9555H10.1367V38.3257H10.6367ZM17.2386 39.2609L10.4295 38.0793L10.344 38.572L17.1531 39.7535L17.2386 39.2609ZM18.6711 40.5101C18.4635 39.8592 17.9116 39.3777 17.2386 39.2609L17.1531 39.7535C17.6423 39.8384 18.0437 40.1884 18.1947 40.662L18.6711 40.5101ZM10.1367 41.5401V44.4458H10.6367V41.5401H10.1367ZM15.7531 42.2175L10.4295 41.2938L10.344 41.7865L15.6676 42.7101L15.7531 42.2175ZM16.5805 44.3699L15.9485 42.3879L15.4722 42.5398L16.1041 44.5217L16.5805 44.3699ZM10.3867 44.6958H16.3423V44.1958H10.3867V44.6958ZM14.0781 3.41712H41.9219V2.91712H14.0781V3.41712ZM10.6367 6.86222C10.6367 4.96251 12.181 3.41712 14.0781 3.41712V2.91712C11.9044 2.91712 10.1367 4.68683 10.1367 6.86222H10.6367ZM10.6367 28.7355V6.86222H10.1367V28.7355H10.6367ZM45.5591 28.4914C44.1873 28.7962 41.6565 29.0281 38.5268 29.1831C35.4035 29.3378 31.7016 29.4152 27.9987 29.4151C24.2958 29.4151 20.5941 29.3376 17.4712 29.1829C14.342 29.0279 11.8118 28.796 10.4409 28.4914L10.3325 28.9795C11.7501 29.2945 14.3199 29.5274 17.4465 29.6823C20.5795 29.8375 24.2896 29.9151 27.9987 29.9151C31.7078 29.9152 35.4181 29.8377 38.5515 29.6825C41.6786 29.5277 44.2491 29.2947 45.6675 28.9795L45.5591 28.4914ZM45.3633 6.86211V28.7355H45.8633V6.86211H45.3633ZM41.9219 3.41712C43.819 3.41712 45.3633 4.96251 45.3633 6.86211H45.8633C45.8633 4.68682 44.0956 2.91712 41.9219 2.91712V3.41712ZM11.9297 47.6129V50.8329H12.4297V47.6129H11.9297ZM16.082 47.3629H12.1797V47.8629H16.082V47.3629ZM16.332 50.8329V47.6129H15.832V50.8329H16.332ZM12.1797 51.0829H16.082V50.5829H12.1797V51.0829ZM40.168 50.8329V47.6129H39.668V50.8329H40.168ZM43.8203 50.5829H39.918V51.0829H43.8203V50.5829ZM43.5703 47.6129V50.8329H44.0703V47.6129H43.5703ZM39.918 47.8629H43.8203V47.3629H39.918V47.8629Z" fill="#000C26"/>
        <path opacity="0.201374" fill-rule="evenodd" clip-rule="evenodd" d="M19.6635 44.4458L18.4329 40.5861C18.2536 40.0238 17.7769 39.608 17.1959 39.5072L10.3867 38.3257V31.9554C17.0734 33.1257 38.939 33.1236 45.6133 31.9554V38.3257L38.804 39.5071C38.223 39.6079 37.7464 40.0237 37.567 40.586L36.3364 44.4457H19.6635V44.4458Z" fill="#000C26"/>
    </symbol> <!-- #bus-->

    <symbol id="list-icon-grey-accept">
        <path d="M10 0c2.661 0 5.169 1.043 7.063 2.937S20 7.339 20 10s-1.043 5.169-2.937 7.063S12.661 20 10 20s-5.169-1.043-7.063-2.937S0 12.661 0 10s1.043-5.169 2.937-7.063S7.339 0 10 0zM1.172 10A8.84 8.84 0 0 0 10 18.828 8.84 8.84 0 0 0 18.828 10 8.84 8.84 0 0 0 10 1.172 8.84 8.84 0 0 0 1.172 10zm1.211 0A7.63 7.63 0 0 1 10 2.383 7.63 7.63 0 0 1 17.617 10 7.63 7.63 0 0 1 10 17.617 7.63 7.63 0 0 1 2.383 10zm1.172 0c0 3.554 2.891 6.445 6.445 6.445s6.445-2.891 6.445-6.445S13.554 3.555 10 3.555 3.555 6.446 3.555 10z" fill-rule="evenodd" fill="#000c26"/>
        <path opacity=".2" d="M10 16.445c-3.554 0-6.445-2.891-6.445-6.445S6.446 3.555 10 3.555 16.445 6.446 16.445 10 13.554 16.445 10 16.445z" fill="#000c26"/>
        <path fill-rule="evenodd" d="M7.03 9.925l-1.131 1.131 1.414 1.414.707.707.424.424 5.657-5.657-1.131-1.131-4.526 4.525L7.03 9.925z" fill="#000c26"/>
    </symbol> <!-- #list-icon-grey-accept -->

    <symbol id="list-icon-grey-cancel">
        <path d="M10 0c2.661 0 5.169 1.043 7.063 2.937S20 7.339 20 10s-1.043 5.169-2.937 7.063S12.661 20 10 20s-5.169-1.043-7.063-2.937S0 12.661 0 10s1.043-5.169 2.937-7.063S7.339 0 10 0zM1.172 10A8.84 8.84 0 0 0 10 18.828 8.84 8.84 0 0 0 18.828 10 8.84 8.84 0 0 0 10 1.172 8.84 8.84 0 0 0 1.172 10zm1.211 0A7.63 7.63 0 0 1 10 2.383 7.63 7.63 0 0 1 17.617 10 7.63 7.63 0 0 1 10 17.617 7.63 7.63 0 0 1 2.383 10zm1.172 0c0 3.554 2.891 6.445 6.445 6.445s6.445-2.891 6.445-6.445S13.554 3.555 10 3.555 3.555 6.446 3.555 10z" fill-rule="evenodd" fill="#000c26"/>
        <path opacity=".2" d="M10 16.445c-3.554 0-6.445-2.891-6.445-6.445S6.446 3.555 10 3.555 16.445 6.446 16.445 10 13.554 16.445 10 16.445z" fill="#000c26"/>
        <path fill-rule="evenodd" d="M13.394 7.737l-1.131-1.131L10 8.868 7.737 6.606 6.606 7.737 8.869 10l-2.263 2.263 1.131 1.131L10 11.131l2.263 2.263 1.131-1.131L11.131 10l2.263-2.263z" fill="#000c26"/>
    </symbol> <!-- #list-icon-grey-cancel -->

    <symbol id="list-icon-grey-plus">
        <path d="M10 0c2.661 0 5.169 1.043 7.063 2.937S20 7.339 20 10s-1.043 5.169-2.937 7.063S12.661 20 10 20s-5.169-1.043-7.063-2.937S0 12.661 0 10s1.043-5.169 2.937-7.063S7.339 0 10 0zM1.172 10A8.84 8.84 0 0 0 10 18.828 8.84 8.84 0 0 0 18.828 10 8.84 8.84 0 0 0 10 1.172 8.84 8.84 0 0 0 1.172 10zm1.211 0A7.63 7.63 0 0 1 10 2.383 7.63 7.63 0 0 1 17.617 10 7.63 7.63 0 0 1 10 17.617 7.63 7.63 0 0 1 2.383 10zm1.172 0c0 3.554 2.891 6.445 6.445 6.445s6.445-2.891 6.445-6.445S13.554 3.555 10 3.555 3.555 6.446 3.555 10z" fill-rule="evenodd" fill="#000c26"/>
        <path opacity=".2" d="M10 16.445c-3.554 0-6.445-2.891-6.445-6.445S6.446 3.555 10 3.555 16.445 6.446 16.445 10 13.554 16.445 10 16.445z" fill="#000c26"/>
        <path fill-rule="evenodd" d="M10.8 6H9.2v3.2H6v1.6h3.2V14h1.6v-3.2H14V9.2h-3.2V6z" fill="#000c26"/>
    </symbol> <!-- #list-icon-grey-plus -->

    <symbol id="rating-star-filled" viewBox="0 0 23 22">
        <path opacity=".2" d="M21.491 8.664c-.131-.404-.492-.69-.919-.73l-5.798-.524-2.293-5.333c-.169-.39-.554-.643-.982-.643s-.813.253-.982.644L8.226 7.411l-5.799.523c-.426.038-.787.324-.918.729s-.01.847.312 1.127l4.383 3.819-1.293 5.657a1.06 1.06 0 0 0 .416 1.096c.185.136.405.203.625.203.19 0 .379-.05.548-.151l5-2.971 4.999 2.971a1.07 1.07 0 0 0 1.174-.05 1.06 1.06 0 0 0 .416-1.096l-1.292-5.657 4.383-3.819c.322-.28.444-.723.312-1.128z"/>
        <path d="M5.701 21a1.12 1.12 0 0 1-.655-.211c-.363-.261-.533-.71-.434-1.145l1.351-5.913-4.582-3.993c-.337-.293-.465-.755-.327-1.178s.514-.723.96-.764l6.063-.547 2.396-5.574C10.65 1.264 11.053 1 11.5 1s.85.264 1.026.673l2.396 5.575 6.062.547c.446.04.823.34.961.763a1.1 1.1 0 0 1-.327 1.178l-4.581 3.992 1.351 5.913c.099.435-.071.884-.434 1.145a1.12 1.12 0 0 1-1.226.054L11.5 17.736l-5.227 3.106c-.177.105-.374.157-.571.157h0z"/>
        <path d="M5.047 20.789l.146-.203h0l-.146.203zm-.434-1.145l-.244-.056h0l.244.055zm1.351-5.913l.244.056.033-.146-.113-.098-.164.188zM1.382 9.737l.164-.188h0l-.164.189zm-.327-1.178l-.238-.078h0l.238.078zm.96-.764l-.022-.249h0l.023.249zm6.063-.547l.022.249.148-.013.059-.137-.23-.099zm2.396-5.574l-.23-.099h0l.23.099zm2.053-.001l.23-.099h0l-.229.099zm2.396 5.575l-.23.099.059.137.148.013.023-.249zm6.062.547l-.022.249h0l.022-.249zm.961.763l.238-.078h0l-.238.078zm-.327 1.178l-.164-.189v.001l.164.188zm-4.581 3.992l-.164-.189-.113.098.033.146.244-.056zm1.351 5.913l.244-.055h0l-.244.056zm-.434 1.145l-.146-.203h0l.146.203zm-1.226.054l.128-.215h0l-.128.215zM11.5 17.736l.128-.215-.128-.076-.128.076.128.215zm-5.227 3.106l-.128-.215h0l.128.215zm-.571-.093a.87.87 0 0 1-.509-.164l-.292.406a1.37 1.37 0 0 0 .8.258v-.5zm-.509-.164c-.281-.202-.413-.55-.336-.887l-.488-.111c-.121.533.087 1.084.532 1.404l.292-.406zm-.336-.886l1.351-5.913-.487-.111-1.351 5.913.487.111zm1.272-6.157L1.546 9.548l-.329.377 4.582 3.993.329-.377zM1.546 9.548c-.261-.227-.361-.585-.254-.912l-.475-.155c-.17.52-.011 1.086.401 1.444l.328-.377zm-.254-.912c.107-.327.399-.56.745-.592l-.046-.498c-.544.05-1.005.417-1.175.935l.475.155zm.745-.592L8.1 7.497l-.045-.498-6.063.547.045.498zm6.27-.697l2.396-5.574-.459-.197-2.396 5.574.459.197zm2.396-5.574c.137-.318.449-.523.797-.523v-.5c-.547 0-1.04.324-1.256.825l.459.198zm.797-.523c.348 0 .66.205.797.522l.459-.198c-.216-.5-.709-.824-1.256-.824v.5zm.797.522l2.396 5.575.459-.197-2.396-5.575-.459.197zM14.9 7.497l6.062.547.045-.498-6.062-.547-.045.498zm6.062.547c.347.031.638.264.746.591l.475-.155c-.169-.518-.63-.885-1.176-.934l-.045.498zm.745.591a.85.85 0 0 1-.253.912l.327.378a1.35 1.35 0 0 0 .401-1.445l-.475.155zm-.254.912l-4.581 3.992.328.377 4.581-3.992-.329-.377zm-4.66 4.237l1.351 5.913.487-.111-1.351-5.913-.487.111zm1.351 5.913c.077.337-.055.684-.336.887l.292.406c.445-.319.653-.871.532-1.404l-.487.111zm-.336.887a.87.87 0 0 1-.952.042l-.256.43a1.37 1.37 0 0 0 1.5-.066l-.292-.406zm-.952.042l-5.228-3.105-.255.43 5.228 3.105.255-.43zm-5.484-3.105l-5.227 3.106.255.43 5.227-3.106-.255-.43zm-5.228 3.106c-.137.082-.29.122-.443.122v.5c.242 0 .483-.064.699-.192l-.256-.43z"/>
    </symbol> <!-- #rating-star-filled -->

    <symbol id="rating-star-empty" viewBox="0 0 23 22">
        <path opacity=".2" d="M21.491 8.664c-.131-.404-.492-.69-.919-.73l-5.798-.524-2.293-5.333c-.169-.39-.554-.643-.982-.643s-.813.253-.982.644L8.226 7.411l-5.799.523c-.426.038-.787.324-.918.729s-.01.847.312 1.127l4.383 3.819-1.293 5.657a1.06 1.06 0 0 0 .416 1.096c.185.136.405.203.625.203.19 0 .379-.05.548-.151l5-2.971 4.999 2.971a1.07 1.07 0 0 0 1.174-.05 1.06 1.06 0 0 0 .416-1.096l-1.292-5.657 4.383-3.819c.322-.28.444-.723.312-1.128z"/>
        <path fill-rule="evenodd" d="M5.047 20.789a1.12 1.12 0 0 0 .655.211c.198 0 .395-.052.571-.157l5.227-3.106 5.228 3.105a1.12 1.12 0 0 0 1.226-.054c.363-.261.533-.71.434-1.145l-1.351-5.913 4.581-3.992a1.1 1.1 0 0 0 .327-1.178c-.138-.423-.515-.723-.961-.763l-6.062-.547-2.396-5.575C12.35 1.264 11.947 1 11.5 1s-.85.264-1.026.674L8.078 7.248l-6.063.547c-.445.041-.822.341-.96.764s-.01.885.327 1.178l4.582 3.993-1.351 5.913c-.099.435.071.884.434 1.145zm7.026-4.232c-.177-.104-.374-.157-.572-.157a1.13 1.13 0 0 0-.573.157l-4.933 2.932 1.275-5.582c.091-.398-.044-.813-.354-1.082L2.589 9.054l5.723-.517a1.11 1.11 0 0 0 .927-.67L11.5 2.606l2.26 5.26a1.11 1.11 0 0 0 .927.671l5.724.517-4.326 3.771c-.309.269-.445.683-.354 1.081l1.275 5.582-4.933-2.932z"/>
        <path d="M5.047 20.789l.146-.203h0l-.146.203zm1.226.054l-.128-.215h0l.128.215zm5.227-3.106l.128-.215-.128-.076-.128.076.128.215zm5.228 3.105l.128-.215h0l-.128.215zm1.226-.054l-.146-.203h0l.146.203zm.434-1.145l.244-.055h0l-.244.056zm-1.351-5.913l-.164-.189-.113.098.033.146.244-.056zm4.581-3.992l-.164-.189v.001l.164.188zm.327-1.178l.238-.078h0l-.238.078zm-.961-.763l-.022.249h0l.022-.249zm-6.062-.547l-.23.099.059.137.148.013.023-.249zm-2.396-5.575l.23-.099h0l-.229.099zm-2.053.001l-.23-.099h0l.23.099zM8.078 7.248l.022.249.148-.013.059-.137-.23-.099zm-6.063.547l-.022-.249h0l.023.249zm-.96.764l-.238-.078h0l.238.078zm.327 1.178l.164-.188h0l-.164.189zm4.582 3.993l.244.056.033-.146-.113-.098-.164.188zm-1.351 5.913l-.244-.056h0l.244.055zm7.46-3.087l.128-.215h-.001l-.127.215zm-1.146 0l-.127-.216-.001.001.128.215zm-4.933 2.932l-.244-.056-.13.569.501-.298-.128-.215zm1.275-5.582l-.244-.056h0l.244.056zm-.354-1.082l-.164.188h0l.164-.189zM2.589 9.054l-.022-.249-.583.053.441.385.164-.188zm5.723-.517l-.022-.249h0l.022.249zm.927-.67l-.23-.099h0l.23.098zM11.5 2.606l.23-.099-.23-.534-.23.534.23.099zm2.26 5.26l.23-.098v-.001l-.23.099zm.927.671l.022-.249h0l-.022.249zm5.724.517l.164.188.441-.385-.583-.053-.023.249zm-4.326 3.771l.164.189h0l-.164-.188zm-.354 1.081l.244-.056h0l-.244.056zm1.275 5.582l-.128.215.501.298-.13-.569-.244.056zM5.701 20.75a.87.87 0 0 1-.509-.164l-.292.406a1.37 1.37 0 0 0 .8.258v-.5zm.443-.122c-.137.082-.29.122-.443.122v.5c.242 0 .483-.064.699-.192l-.256-.43zm5.228-3.106l-5.227 3.106.255.43 5.227-3.106-.255-.43zm5.484 3.105l-5.228-3.105-.255.43 5.228 3.105.255-.43zm.952-.042a.87.87 0 0 1-.952.042l-.256.43a1.37 1.37 0 0 0 1.5-.066l-.292-.406zm.336-.887c.077.337-.055.684-.336.887l.292.406c.445-.319.653-.871.532-1.404l-.487.111zm-1.351-5.913l1.351 5.913.487-.111-1.351-5.913-.488.111zm4.66-4.237l-4.581 3.992.328.377 4.581-3.992-.329-.377zm.254-.912a.85.85 0 0 1-.253.912l.327.378a1.35 1.35 0 0 0 .401-1.445l-.475.155zm-.745-.591c.347.031.638.264.746.591l.475-.155c-.169-.518-.63-.885-1.176-.934l-.045.498zM14.9 7.497l6.062.547.045-.498-6.062-.547-.045.498zm-2.603-5.725l2.396 5.575.459-.197-2.396-5.575-.459.197zM11.5 1.25c.348 0 .66.205.797.522l.459-.198c-.216-.5-.709-.824-1.256-.824v.5zm-.797.523c.137-.318.449-.523.797-.523v-.5c-.547 0-1.04.324-1.256.825l.459.198zM8.307 7.347l2.396-5.574-.459-.197-2.396 5.574.459.197zm-6.27.697L8.1 7.497l-.045-.498-6.063.547.045.498zm-.745.592c.107-.327.399-.56.745-.592l-.046-.498c-.544.05-1.005.417-1.175.935l.475.155zm.254.912c-.261-.227-.361-.585-.254-.912l-.475-.155c-.17.52-.011 1.086.401 1.444l.328-.377zm4.582 3.994L1.546 9.548l-.329.377 4.582 3.993.329-.377zm-1.272 6.157l1.351-5.913-.487-.111-1.351 5.913.487.111zm.336.886c-.281-.202-.413-.55-.336-.887l-.488-.111c-.121.533.087 1.084.532 1.404l.292-.406zm6.307-3.936c.154 0 .307.041.445.123l.254-.431c-.215-.127-.456-.192-.699-.192v.5zm-.446.123a.88.88 0 0 1 .446-.123v-.5a1.38 1.38 0 0 0-.7.192l.253.431zm-4.932 2.932l4.933-2.932-.256-.43-4.933 2.932.255.43zm.903-5.853L5.75 19.433l.487.111 1.275-5.582-.487-.111zm-.274-.837c.24.208.344.529.274.837l.487.111c.112-.488-.054-.997-.434-1.326l-.328.378zM2.424 9.242l4.326 3.771.329-.377-4.326-3.771-.329.377zm5.864-.954l-5.723.517.045.498 5.723-.517-.045-.498zm.719-.519a.86.86 0 0 1-.719.519l.044.498a1.36 1.36 0 0 0 1.134-.821l-.46-.196zm2.262-5.262L9.008 7.769l.459.197 2.262-5.261-.459-.197zm2.719 5.26l-2.26-5.26-.459.197 2.26 5.26.459-.197zm.719.521a.86.86 0 0 1-.719-.52l-.46.196a1.36 1.36 0 0 0 1.135.822l.044-.498zm5.724.517l-5.724-.517-.045.498 5.724.517.045-.498zm-4.184 4.209l4.326-3.771-.329-.377-4.326 3.772.329.377zm-.274.837c-.07-.308.034-.628.274-.837l-.328-.377c-.378.329-.545.837-.433 1.325l.487-.111zm1.275 5.582l-1.275-5.582-.487.111 1.275 5.582.487-.111zm-5.305-2.662l4.933 2.932.256-.43-4.933-2.932-.255.43z"/>
    </symbol> <!-- #rating-star-empty -->

    <symbol id="ironman-summary" viewBox="0 0 50 50">
        <circle cx="25" cy="25" r="24.5" fill="#fff" stroke="#fff"/>
        <path fill-rule="evenodd" d="M25.397 10c.168.12.374.104.563.15 2.347.579 4.06 2.817 3.903 5.104-.173 2.529-2.066 4.508-4.577 4.787-2.766.308-5.353-1.582-5.73-4.184-.407-2.815 1.432-5.309 4.271-5.789.056-.009.121.002.146-.068h1.425z" fill="#dc1935"/>
        <mask id="A" maskUnits="userSpaceOnUse" x="14" y="21" width="22" height="18" mask-type="alpha">
        <path fill-rule="evenodd" d="M14 21.129h21.517V39H14V21.129z" fill="#fff"/></mask>
        <g mask="url(#A)">
            <path fill-rule="evenodd" d="M29.164 32.048c-.143.101-.142.239-.179.352l-2.022 6.222c-.087.273-.197.384-.509.378l-3.205-.002c-.245.003-.345-.072-.422-.298l-2.202-6.384a.5.5 0 0 0-.152-.247v.354l.007 6.232c.002.28-.083.344-.357.342a478.35 478.35 0 0 0-5.77 0c-.28.002-.353-.072-.353-.346l.002-17.096c0-.318.051-.427.413-.427l20.694.002c.323-.001.406.077.405.395l.001 17.061c.001.343-.093.415-.43.412l-5.556-.001c-.292.002-.376-.063-.373-.358l.008-6.233v-.359z" fill="#dc1935"/>
        </g>
    </symbol> <!-- #ironman-summary -->

    <symbol id="user-summary" viewBox="0 0 13 17">
        <path d="M0 13.537v1.185c0 .982.794 1.778 1.773 1.778h9.455c.979 0 1.773-.796 1.773-1.778v-1.185a6.51 6.51 0 0 0-6.5-6.519c-3.59 0-6.5 2.918-6.5 6.519z"/>
        <path d="M6.5 8.611c2.513 0 4.545-2.042 4.545-4.556S9.013-.5 6.5-.5 1.954 1.542 1.954 4.056 3.986 8.611 6.5 8.611z" stroke="#000c26" stroke-width="2"/>
    </symbol> <!-- #user-summary -->

    <symbol id="long-left-arrow" viewBox="0 0 14 9">
        <rect x="13.3286" y="5.00098" width="12" height="1" transform="rotate(-180 13.3286 5.00098)" fill="#000C26" stroke="#000C26" stroke-width="0.75"/>
        <rect x="3.53564" y="8.03613" width="5" height="1" transform="rotate(-135 3.53564 8.03613)" fill="#000C26" stroke="#000C26" stroke-width="0.75"/>
        <rect x="4.24268" y="1.67285" width="5" height="1" transform="rotate(135 4.24268 1.67285)" fill="#000C26" stroke="#000C26" stroke-width="0.75"/>
    </symbol> <!-- #long-left-arrow -->

    <symbol id="telephone" viewBox="0 0 30 29" fill="none">
        <path opacity="0.2" d="M4.9209 27.2058V24.4118C4.9209 21.6906 5.95209 19.1067 7.82463 17.136L10.3544 14.4736H19.6459L22.1756 17.136C24.0481 19.1066 25.0792 21.6906 25.0792 24.4118V27.2058H4.9209Z" fill="#000C26"/>
        <path fill-rule="evenodd" clip-rule="evenodd" d="M23.1741 1.57063C25.6834 2.58487 27.6993 4.01783 28.8504 5.60543C29.9568 7.13142 30.2724 8.7734 29.7632 10.3538C29.4334 11.3772 28.4783 12.064 27.386 12.0641H27.3823L23.6352 12.0605C22.886 12.0594 22.1835 11.7295 21.7073 11.1551C21.2369 10.5879 21.0435 9.84789 21.1766 9.12465C21.1807 9.10275 21.1855 9.08096 21.1912 9.05935L21.3915 8.29541C20.2983 7.77303 17.8262 6.76478 15.0028 6.75028C12.1773 6.73424 9.70352 7.74307 8.61168 8.26523L8.80885 9.03351C8.81418 9.05447 8.81887 9.07561 8.82268 9.09682C8.95375 9.82046 8.75823 10.56 8.2862 11.1258C7.80913 11.6978 7.10711 12.0256 6.35993 12.0256H6.35618L2.60905 12.0221C1.5147 12.0205 0.559913 11.3305 0.232608 10.305C-0.271942 8.72424 0.0478622 7.08461 1.15751 5.56338C2.3128 3.97954 4.33352 2.5528 6.84719 1.54614C9.34657 0.545242 12.248 -0.00680218 15.0143 0.000127737C17.7805 0.00412125 20.6783 0.561921 23.1741 1.57063ZM27.3854 10.2695C27.6938 10.2695 27.9706 10.0775 28.0593 9.80214C28.3903 8.7754 28.1692 7.71835 27.4022 6.66025C25.3633 3.84823 20.1524 1.80185 15.0119 1.79445H14.9838C9.84836 1.79445 4.64524 3.82239 2.60284 6.62231C1.83397 7.67636 1.61026 8.73141 1.93792 9.75803C2.02593 10.0339 2.30278 10.2269 2.61116 10.2274L6.35835 10.2309H6.3594C6.57526 10.2309 6.7767 10.1375 6.91258 9.97462C6.9867 9.88571 7.10254 9.70066 7.06522 9.44278L6.69983 8.0191C6.60028 7.63114 6.76926 7.22415 7.11397 7.02154C7.25829 6.93674 10.6792 4.95537 14.9412 4.95537L15.0119 4.95555C19.3015 4.97769 22.7469 6.96775 22.8915 7.05243C23.2384 7.25575 23.4077 7.66567 23.3056 8.05521L22.9328 9.47661C22.8951 9.73396 23.0103 9.91901 23.084 10.008C23.2197 10.1717 23.4214 10.2657 23.6372 10.266L27.3843 10.2695H27.3854Z" fill="#000C26"/>
        <path fill-rule="evenodd" clip-rule="evenodd" d="M20.6782 12.9572L23.4725 15.898C25.6635 18.2038 26.8701 21.2271 26.87 24.4113V28.1026C26.87 28.5981 26.4692 28.9998 25.9748 28.9998H4.02605C3.53164 28.9998 3.13086 28.5981 3.13086 28.1026V24.4113C3.13086 21.2272 4.33748 18.2038 6.52842 15.898L9.32275 12.9572C9.49167 12.7794 9.72599 12.6787 9.97097 12.6787H11.7768V11.4558C11.7768 10.9603 12.1776 10.5586 12.672 10.5586C13.1664 10.5586 13.5672 10.9603 13.5672 11.4558V12.6787H16.4337V11.4558C16.4337 10.9603 16.8345 10.5586 17.3289 10.5586C17.8233 10.5586 18.2241 10.9603 18.2241 11.4558V12.6787H20.0299C20.2749 12.6787 20.5091 12.7793 20.6782 12.9572ZM4.92125 24.4113V27.2053H25.0796V24.4113C25.0796 21.69 24.0484 19.1061 22.176 17.1355L19.6463 14.4731H10.3547L7.82498 17.1355C5.95244 19.1062 4.92125 21.69 4.92125 24.4113Z" fill="#000C26"/>
        <path fill-rule="evenodd" clip-rule="evenodd" d="M10.3149 21.024C10.3149 18.4347 12.4166 16.3281 15 16.3281C17.5834 16.3281 19.6851 18.4346 19.6851 21.024C19.6851 23.6133 17.5834 25.7199 15 25.7199C12.4167 25.7199 10.3149 23.6133 10.3149 21.024ZM12.1053 21.0239C12.1053 22.6238 13.4038 23.9253 15 23.9253C16.5962 23.9253 17.8947 22.6238 17.8947 21.0239C17.8947 19.4241 16.5962 18.1226 15 18.1226C13.4039 18.1226 12.1053 19.4241 12.1053 21.0239Z" fill="#000C26"/>
        <path d="M15.0002 23.9258C13.404 23.9258 12.1055 22.6243 12.1055 21.0244C12.1055 19.4246 13.404 18.123 15.0002 18.123C16.5963 18.123 17.8949 19.4246 17.8949 21.0244C17.8949 22.6243 16.5963 23.9258 15.0002 23.9258Z" fill="white"/>
    </symbol> <!-- #telephone -->

    <symbol id="list-icon-dollar" viewBox="0 0 8 12" fill="none">
        <path fill-rule="evenodd" clip-rule="evenodd" d="M6.1 3.99778C6.1 4.36575 6.41341 4.66407 6.8 4.66407C7.18659 4.66407 7.5 4.36575 7.5 3.99778C7.5 3.25989 7.09904 2.55042 6.39988 2.05133C5.92234 1.71041 5.33476 1.48267 4.7 1.38579V0.666289C4.7 0.29832 4.38659 0 4 0C3.61341 0 3.3 0.29832 3.3 0.666289V1.38579C2.66519 1.48267 2.07761 1.71041 1.60012 2.05133C0.90096 2.55042 0.5 3.25989 0.5 3.99778C0.5 4.73567 0.90096 5.44509 1.60012 5.94423C2.07766 6.28515 2.66524 6.51289 3.3 6.60977V9.24867C2.4936 9.06109 1.9 8.56297 1.9 7.99551C1.9 7.62754 1.58659 7.32922 1.2 7.32922C0.813413 7.32922 0.5 7.62754 0.5 7.99551C0.5 8.73341 0.90096 9.44283 1.60012 9.94197C2.07766 10.2829 2.66524 10.5106 3.3 10.6075V11.3337C3.3 11.7017 3.61341 12 4 12C4.38659 12 4.7 11.7017 4.7 11.3337V10.6075C5.33481 10.5106 5.92239 10.2829 6.39988 9.94197C7.09904 9.44287 7.5 8.73341 7.5 7.99551C7.5 7.25762 7.09904 6.54816 6.39988 6.04906C5.92234 5.70814 5.33476 5.48041 4.7 5.38353V2.74462C5.5064 2.93225 6.1 3.43032 6.1 3.99778ZM1.9 3.99778C1.9 3.43032 2.4936 2.9322 3.3 2.74462V5.25089C2.4936 5.06335 1.9 4.56524 1.9 3.99778ZM4.7 9.24867C5.5064 9.06109 6.1 8.56297 6.1 7.99551C6.1 7.42806 5.5064 6.92998 4.7 6.7424V9.24867Z" fill="#000C26"/>
    </symbol> <!-- #list-icon-dollar -->

    <symbol id="list-icon-dark-cancel" viewBox="0 0 10 10" fill="none">
        <path fill-rule="evenodd" clip-rule="evenodd" d="M9.24264 2.17135L7.82843 0.757138L5 3.58557L2.17157 0.757138L0.757359 2.17135L3.58579 4.99978L0.757359 7.82821L2.17157 9.24242L5 6.41399L7.82843 9.24242L9.24264 7.82821L6.41421 4.99978L9.24264 2.17135Z" fill="#000C26"/>
    </symbol> <!-- #list-icon-dark-cancel -->

    <symbol id="list-icon-dark-accept" viewBox="0 0 10 8" fill="none">
        <path fill-rule="evenodd" clip-rule="evenodd" d="M10 1.45455L8.57143 0L3.57143 5.09091L1.42857 2.90909L0 4.36364L2.14286 6.54545L3.57143 8L5 6.54545L10 1.45455Z" fill="#000C26"/>
    </symbol> <!-- #list-icon-dark-accept -->
</svg>
