<svg width="22" height="18" viewBox="0 0 22 18" fill="none" xmlns="http://www.w3.org/2000/svg">
<path d="M18.1967 6.53626L17.1558 2.2472C17.0872 1.91346 16.7943 1.67001 16.4485 1.6592H5.56891C5.223 1.67004 4.93011 1.91366 4.8616 2.24753L3.82039 6.53626L3.16901 6.38332L4.20988 2.09394C4.35013 1.46313 4.91288 1.01016 5.56891 1H16.4485C17.1046 1.00995 17.6673 1.46305 17.8072 2.09394L18.8481 6.38332L18.1967 6.53626Z" fill="#000C26" stroke="#000C26" stroke-width="0.6"/>
<path d="M19.9496 13.6694H2.06818C1.88322 13.6694 1.73328 13.5218 1.73328 13.3398V9.53027H2.40308V13.0102H19.6147V9.53027H20.2845V13.3398C20.2845 13.5218 20.1345 13.6694 19.9496 13.6694Z" fill="#000C26" stroke="#000C26" stroke-width="0.6"/>
<path d="M19.7831 6.7893H18.5226V6.1301H19.7831C20.0785 6.1301 20.3277 5.80578 20.3277 5.42213V4.96267C20.3335 4.88027 20.2727 4.80784 20.1894 4.79787H18.039V4.13867H20.1894C20.6433 4.14751 21.0046 4.51587 20.9975 4.96267V5.42213C21.0416 6.12829 20.5001 6.7379 19.7831 6.7893Z" fill="#000C26" stroke="#000C26" stroke-width="0.6"/>
<path d="M3.47744 6.7893H2.21653C1.49968 6.73773 0.958409 6.12817 1.00251 5.42213V4.96267C0.995418 4.51587 1.35668 4.14751 1.81063 4.13867H3.96104V4.79787H1.81063C1.72741 4.808 1.66671 4.88032 1.67232 4.96267V5.42213C1.67232 5.80578 1.92149 6.1301 2.21653 6.1301H3.47744V6.7893Z" fill="#000C26" stroke="#000C26" stroke-width="0.6"/>
<path fill-rule="evenodd" clip-rule="evenodd" d="M16.3976 16.9999H17.4516C18.3116 16.999 19.0086 16.313 19.0095 15.4666V13.3394C19.0095 13.1573 18.8596 13.0098 18.6746 13.0098H15.1746C14.9896 13.0098 14.8397 13.1573 14.8397 13.3394V15.4666C14.8406 16.313 15.5376 16.999 16.3976 16.9999ZM15.5095 15.4666V13.669H18.3397V15.4666C18.3394 15.9492 17.9419 16.3403 17.4516 16.3407H16.3976C15.9073 16.3403 15.5098 15.9492 15.5095 15.4666Z" fill="#000C26"/>
<path d="M17.4516 16.9999V17.2999H17.4519L17.4516 16.9999ZM16.3976 16.9999L16.3973 17.2999H16.3976V16.9999ZM19.0095 15.4666L19.3095 15.4669V15.4666H19.0095ZM14.8397 15.4666H14.5397L14.5397 15.4669L14.8397 15.4666ZM15.5095 13.669V13.369H15.2095V13.669H15.5095ZM15.5095 15.4666H15.2095L15.2095 15.4668L15.5095 15.4666ZM18.3397 13.669H18.6397V13.369H18.3397V13.669ZM18.3397 15.4666L18.6397 15.4668V15.4666H18.3397ZM17.4516 16.3407V16.6407L17.4518 16.6407L17.4516 16.3407ZM16.3976 16.3407L16.3974 16.6407H16.3976V16.3407ZM17.4516 16.6999H16.3976V17.2999H17.4516V16.6999ZM18.7095 15.4663C18.7088 16.1428 18.1504 16.6991 17.4513 16.6999L17.4519 17.2999C18.4729 17.2988 19.3084 16.4833 19.3095 15.4669L18.7095 15.4663ZM18.7095 13.3394V15.4666H19.3095V13.3394H18.7095ZM18.6746 13.3098C18.6984 13.3098 18.7095 13.3275 18.7095 13.3394H19.3095C19.3095 12.9871 19.0207 12.7098 18.6746 12.7098V13.3098ZM15.1746 13.3098H18.6746V12.7098H15.1746V13.3098ZM15.1397 13.3394C15.1397 13.3275 15.1508 13.3098 15.1746 13.3098V12.7098C14.8284 12.7098 14.5397 12.9871 14.5397 13.3394H15.1397ZM15.1397 15.4666V13.3394H14.5397V15.4666H15.1397ZM16.3979 16.6999C15.6988 16.6991 15.1404 16.1428 15.1397 15.4663L14.5397 15.4669C14.5408 16.4833 15.3763 17.2988 16.3973 17.2999L16.3979 16.6999ZM15.2095 13.669V15.4666H15.8095V13.669H15.2095ZM18.3397 13.369H15.5095V13.969H18.3397V13.369ZM18.6397 15.4666V13.669H18.0397V15.4666H18.6397ZM17.4518 16.6407C18.1031 16.6402 18.6392 16.1194 18.6397 15.4668L18.0397 15.4664C18.0395 15.779 17.7807 16.0404 17.4514 16.0407L17.4518 16.6407ZM16.3976 16.6407H17.4516V16.0407H16.3976V16.6407ZM15.2095 15.4668C15.21 16.1194 15.7461 16.6402 16.3974 16.6407L16.3978 16.0407C16.0685 16.0404 15.8097 15.779 15.8095 15.4664L15.2095 15.4668Z" fill="#000C26"/>
<path fill-rule="evenodd" clip-rule="evenodd" d="M3.00888 15.4666C3.0098 16.3132 3.70699 16.9992 4.56718 16.9999H5.6208C6.48151 16.9999 7.17951 16.3137 7.18043 15.4666V13.3394C7.18043 13.1573 7.03049 13.0098 6.84553 13.0098H3.34378C3.15882 13.0098 3.00888 13.1573 3.00888 13.3394V15.4666ZM3.67868 15.4666V13.669H6.51063V15.4666C6.51007 15.9498 6.11174 16.341 5.6208 16.3407H4.56718C4.07676 16.3403 3.67924 15.9492 3.67868 15.4666Z" fill="#000C26"/>
<path d="M4.56718 16.9999L4.56692 17.2999H4.56718V16.9999ZM3.00888 15.4666H2.70888L2.70888 15.4669L3.00888 15.4666ZM5.6208 16.9999L5.6208 16.6999H5.6208V16.9999ZM7.18043 15.4666L7.48043 15.4669V15.4666H7.18043ZM3.67868 13.669V13.369H3.37868V13.669H3.67868ZM3.67868 15.4666H3.37868L3.37868 15.4669L3.67868 15.4666ZM6.51063 13.669H6.81063V13.369H6.51063V13.669ZM6.51063 15.4666L6.81063 15.4669V15.4666H6.51063ZM5.6208 16.3407L5.62102 16.0407H5.6208V16.3407ZM4.56718 16.3407L4.56696 16.6407H4.56718V16.3407ZM4.56743 16.6999C3.86818 16.6993 3.30962 16.1429 3.30888 15.4663L2.70888 15.4669C2.70999 16.4834 3.5458 17.299 4.56692 17.2999L4.56743 16.6999ZM5.6208 16.6999H4.56718V17.2999H5.6208V16.6999ZM6.88043 15.4663C6.87969 16.1433 6.32047 16.6999 5.6208 16.6999L5.6208 17.2999C6.64254 17.2999 7.47932 16.484 7.48043 15.4669L6.88043 15.4663ZM6.88043 13.3394V15.4666H7.48043V13.3394H6.88043ZM6.84553 13.3098C6.86934 13.3098 6.88043 13.3275 6.88043 13.3394H7.48043C7.48043 12.9871 7.19164 12.7098 6.84553 12.7098V13.3098ZM3.34378 13.3098H6.84553V12.7098H3.34378V13.3098ZM3.30888 13.3394C3.30888 13.3275 3.31997 13.3098 3.34378 13.3098V12.7098C2.99767 12.7098 2.70888 12.9871 2.70888 13.3394H3.30888ZM3.30888 15.4666V13.3394H2.70888V15.4666H3.30888ZM3.37868 13.669V15.4666H3.97868V13.669H3.37868ZM6.51063 13.369H3.67868V13.969H6.51063V13.369ZM6.81063 15.4666V13.669H6.21063V15.4666H6.81063ZM5.62057 16.6407C6.27262 16.6412 6.80988 16.1202 6.81063 15.4669L6.21063 15.4662C6.21027 15.7793 5.95085 16.0409 5.62102 16.0407L5.62057 16.6407ZM4.56718 16.6407H5.6208V16.0407H4.56718V16.6407ZM3.37868 15.4669C3.37943 16.1195 3.91559 16.6402 4.56696 16.6407L4.5674 16.0407C4.23793 16.0404 3.97904 15.7789 3.97868 15.4662L3.37868 15.4669Z" fill="#000C26"/>
<g opacity="0.2">
<path fill-rule="evenodd" clip-rule="evenodd" d="M1.73328 10.5303C1.73328 10.7124 1.88322 10.8599 2.06818 10.8599H19.9496C20.1344 10.8598 20.2842 10.7122 20.2842 10.5303V8.32303C20.2842 8.25171 20.2607 8.18232 20.2172 8.12527L18.7905 6.26172C18.7272 6.17873 18.628 6.12988 18.5226 6.12988H3.49653C3.39112 6.12988 3.29186 6.17873 3.22861 6.26172L1.80026 8.12593C1.75678 8.18298 1.73328 8.25237 1.73328 8.32369V10.5303Z" fill="#000C26"/>
<path d="M19.9496 10.8599V11.1099H19.9498L19.9496 10.8599ZM20.2172 8.12527L20.416 7.97374L20.4157 7.9733L20.2172 8.12527ZM18.7905 6.26172L18.5916 6.41325L18.592 6.41369L18.7905 6.26172ZM3.22861 6.26172L3.42706 6.41377L3.42745 6.41325L3.22861 6.26172ZM1.80026 8.12593L1.60181 7.97388L1.60141 7.9744L1.80026 8.12593ZM2.06818 10.6099C2.01751 10.6099 1.98328 10.5706 1.98328 10.5303H1.48328C1.48328 10.8542 1.74892 11.1099 2.06818 11.1099V10.6099ZM19.9496 10.6099H2.06818V11.1099H19.9496V10.6099ZM20.0342 10.5303C20.0342 10.5705 20 10.6099 19.9493 10.6099L19.9498 11.1099C20.2689 11.1096 20.5342 10.854 20.5342 10.5303H20.0342ZM20.0342 8.32303V10.5303H20.5342V8.32303H20.0342ZM20.0183 8.2768C20.0288 8.29058 20.0342 8.30681 20.0342 8.32303H20.5342C20.5342 8.19662 20.4925 8.07406 20.416 7.97374L20.0183 8.2768ZM18.592 6.41369L20.0187 8.27724L20.4157 7.9733L18.989 6.10975L18.592 6.41369ZM18.5226 6.37988C18.5509 6.37988 18.5763 6.39305 18.5916 6.41325L18.9893 6.11019C18.8782 5.9644 18.7051 5.87988 18.5226 5.87988V6.37988ZM3.49653 6.37988H18.5226V5.87988H3.49653V6.37988ZM3.42745 6.41325C3.44285 6.39305 3.4682 6.37988 3.49653 6.37988V5.87988C3.31404 5.87988 3.14087 5.9644 3.02977 6.11019L3.42745 6.41325ZM1.9987 8.27798L3.42706 6.41377L3.03017 6.10967L1.60181 7.97388L1.9987 8.27798ZM1.98328 8.32369C1.98328 8.30747 1.9886 8.29124 1.9991 8.27746L1.60141 7.9744C1.52496 8.07472 1.48328 8.19728 1.48328 8.32369H1.98328ZM1.98328 10.5303V8.32369H1.48328V10.5303H1.98328Z" fill="#000C26"/>
</g>
<path opacity="0.2" d="M3.67871 13.6689V15.4666C3.67926 15.9492 4.07679 16.3403 4.56721 16.3407H5.62082C6.11176 16.341 6.5101 15.9497 6.51066 15.4666V13.6689L3.67871 13.6689Z" fill="#000C26"/>
<path opacity="0.2" d="M15.5095 13.6689V15.4666C15.5098 15.9492 15.9073 16.3403 16.3976 16.3407H17.4516C17.9419 16.3403 18.3394 15.9492 18.3397 15.4666V13.6689L15.5095 13.6689Z" fill="#000C26"/>
</svg>
