<svg width="22" height="15" viewBox="0 0 22 15" fill="none" xmlns="http://www.w3.org/2000/svg">
<mask id="path-1-outside-1_0_12283" maskUnits="userSpaceOnUse" x="0" y="0" width="22" height="15" fill="black">
<rect fill="white" width="22" height="15"/>
<path fill-rule="evenodd" clip-rule="evenodd" d="M21 4.35536C20.9995 4.05592 20.9102 3.75224 20.7128 3.50192L19.1281 1.50226C18.8627 1.16989 18.4588 1.00065 18.0552 1C17.815 1 17.5704 1.06071 17.3543 1.19362L15.8092 2.14167C15.6467 2.24387 15.3681 2.31402 15.099 2.31221C14.8899 2.3131 14.6879 2.27184 14.5545 2.20685L13.0414 1.48404C12.7973 1.36816 12.5252 1.32067 12.2516 1.3202C11.8587 1.32201 11.4608 1.41724 11.141 1.63578L10.9645 1.75794C10.8311 1.69231 10.6312 1.59422 10.4035 1.48247L10.4019 1.4817L10.4 1.48075L10.3993 1.48042L10.3976 1.47958L10.3634 1.46278C10.0704 1.32113 9.7259 1.264 9.37793 1.26288C9.06359 1.26377 8.74934 1.31154 8.4734 1.42649L7.44277 1.86018C7.27504 1.93191 7.00824 1.97876 6.74324 1.9776C6.47824 1.97872 6.21192 1.93187 6.04418 1.86018L5.01262 1.42626C4.82445 1.34713 4.62332 1.31331 4.42399 1.31308C4.19446 1.31331 3.96629 1.35792 3.75422 1.44263C3.54242 1.5278 3.34582 1.65354 3.18926 1.82609L1.31114 3.9004C1.10297 4.12965 0.999573 4.41834 1 4.70253C0.999573 5.04142 1.1466 5.38138 1.4302 5.61965L3.18215 7.09369L2.35106 7.94871C2.12196 8.18451 2.00789 8.49023 2.00789 8.79252C2.00746 9.11415 2.13699 9.4389 2.39356 9.67801L2.56215 9.836C2.72102 9.98462 2.91192 10.0792 3.11168 10.1296C3.01149 10.3113 2.95672 10.5106 2.95715 10.7103C2.95672 11.0321 3.08625 11.3567 3.34235 11.596L3.34192 11.5958L3.51102 11.7545C3.75172 11.9795 4.06375 12.0916 4.37117 12.0914C4.53641 12.0916 4.70184 12.0589 4.85731 11.9948C4.91188 12.2131 5.02457 12.4206 5.20184 12.5864L5.37094 12.7451C5.61164 12.9701 5.92317 13.0822 6.2311 13.082C6.4718 13.0822 6.7136 13.0123 6.92176 12.8765C6.98266 13.0697 7.08699 13.2528 7.24582 13.4016L7.41492 13.5603C7.65512 13.7853 7.96715 13.8973 8.27465 13.8971C8.60211 13.8974 8.93281 13.7705 9.17707 13.519L9.9116 12.7626L10.9095 13.6734C11.1484 13.8919 11.455 14.0006 11.7577 14C12.0902 14.0007 12.4256 13.8693 12.6704 13.6109L12.8296 13.4426C12.9671 13.2969 13.0569 13.1246 13.109 12.9446L13.4955 13.2965C13.7348 13.5141 14.041 13.6224 14.3432 13.6221C14.6762 13.6224 15.0125 13.491 15.2575 13.2324L15.4159 13.0643C15.5989 12.8715 15.7018 12.6328 15.7336 12.389C15.8357 12.4148 15.9391 12.4323 16.0434 12.4323C16.3763 12.4323 16.7117 12.3011 16.957 12.0428L17.1158 11.8746C17.3379 11.64 17.4483 11.339 17.4479 11.0422C17.4479 10.9501 17.4345 10.8585 17.4137 10.7679C17.6899 10.7318 17.9576 10.6103 18.1612 10.3947L18.3205 10.2264C18.5425 9.99175 18.6525 9.69077 18.6525 9.39379C18.653 9.06704 18.5194 8.73732 18.2557 8.49709L17.9578 8.22569L20.6468 5.2937C20.8882 5.02974 20.9996 4.68997 21 4.35536ZM3.42242 9.5057C3.27996 9.50528 3.14063 9.45504 3.03176 9.3533L2.86289 9.19532C2.74606 9.08638 2.68836 8.94141 2.68789 8.79256C2.68836 8.65295 2.73903 8.51666 2.84336 8.4093L4.54555 6.65754C4.65645 6.54343 4.80442 6.4863 4.95621 6.48611C5.09824 6.48634 5.23711 6.53677 5.34688 6.63874L5.51504 6.79695C5.51504 6.79695 5.68914 7.05086 5.68957 7.1999C5.68914 7.3115 5.65504 7.42022 5.58891 7.51437C5.58324 7.51995 3.75172 9.40238 3.75172 9.40238C3.65446 9.47026 3.53946 9.5052 3.42242 9.5057ZM4.37168 11.424C4.52348 11.4235 4.67121 11.3666 4.78188 11.253L7.05172 8.91618C7.15563 8.80882 7.20672 8.67233 7.20719 8.53272C7.20676 8.38368 7.14899 8.23845 7.03266 8.12996L6.86356 7.97129C6.75426 7.86932 6.61535 7.81912 6.47289 7.81889C6.3286 7.81912 6.18887 7.87225 6.08043 7.9751C6.06133 7.99756 3.79235 10.3269 3.79235 10.3269C3.68852 10.4342 3.63738 10.5705 3.63738 10.7101C3.63738 10.859 3.69559 11.0044 3.81149 11.1129L3.81192 11.1131L3.98102 11.2716C4.09031 11.3733 4.22922 11.4238 4.37168 11.424ZM6.64152 12.2433C6.5311 12.3573 6.3834 12.4142 6.23156 12.4147C6.0891 12.4144 5.9502 12.364 5.8409 12.262L5.67133 12.1035C5.555 11.9948 5.4968 11.8496 5.4968 11.7008C5.4968 11.5762 5.53977 11.4554 5.62199 11.3547L7.20215 9.72825C7.30875 9.63344 7.44235 9.58348 7.58078 9.58348C7.72324 9.58371 7.86215 9.63391 7.97145 9.73588L8.14102 9.89455C8.25692 10.003 8.31512 10.1483 8.31555 10.2971C8.31508 10.437 8.26352 10.5734 8.16008 10.6805L6.64152 12.2433ZM8.68512 13.0586L9.64395 12.0717C9.74781 11.9646 9.79895 11.8281 9.79949 11.6882C9.79902 11.5394 9.74129 11.3942 9.62539 11.2857L9.45582 11.1272C9.34652 11.025 9.20719 10.9748 9.06516 10.9746C8.91336 10.9748 8.76539 11.032 8.65449 11.1458L7.6961 12.1327C7.59219 12.2396 7.54106 12.3761 7.54063 12.5159C7.54106 12.6648 7.59926 12.8102 7.71516 12.9187L7.88426 13.0772C7.99356 13.1791 8.13246 13.2296 8.27492 13.2298C8.42672 13.2294 8.57465 13.1724 8.68512 13.0586ZM17.9736 9.39468C17.9734 9.53174 17.9236 9.66599 17.8227 9.77267L17.6638 9.94078C17.5529 10.0578 17.4024 10.1169 17.2484 10.1172C17.1086 10.1169 16.9718 10.0685 16.8632 9.96952L14.186 7.52789L13.7231 8.01671L16.5886 10.6347C16.708 10.7436 16.7679 10.8916 16.7688 11.0426C16.7679 11.1802 16.7186 11.3142 16.6179 11.421L16.4595 11.5891C16.3486 11.7061 16.1982 11.765 16.0441 11.7655C15.9043 11.765 15.7671 11.7164 15.6593 11.618L12.9815 9.1764L12.519 9.66523L14.8955 11.8325C15.01 11.9408 15.0687 12.0849 15.0687 12.2328C15.0687 12.37 15.0194 12.5042 14.9187 12.6107L14.7598 12.7788C14.6494 12.8958 14.4985 12.9549 14.344 12.9554C14.2037 12.9549 14.067 12.9063 13.9588 12.8079L11.5871 10.6484H11.5866L11.5862 10.648L11.1246 11.1377L11.1251 11.1382L11.134 11.1464L12.3219 12.2276C12.4271 12.3343 12.4816 12.471 12.4821 12.6124C12.4816 12.7489 12.4327 12.8825 12.3321 12.989L12.1732 13.1573C12.0623 13.2743 11.9123 13.333 11.7587 13.3335C11.6189 13.333 11.4821 13.2846 11.3739 13.1858L10.3396 12.2413C10.4296 12.0672 10.4799 11.8783 10.4799 11.6886C10.4803 11.367 10.3508 11.0427 10.0947 10.8032L9.92512 10.6445C9.68492 10.4197 9.37332 10.3074 9.06586 10.3078C9.05212 10.3078 9.03832 10.3096 9.02462 10.3114C9.01451 10.3127 9.00446 10.314 8.99453 10.3146C8.99453 10.3118 8.99486 10.3089 8.9952 10.3061C8.99553 10.3032 8.99586 10.3003 8.99586 10.2975C8.99629 9.97591 8.61067 9.41159 8.61067 9.41159L8.44156 9.25337C8.2618 9.08526 8.04246 8.9804 7.81434 8.93826C7.86137 8.80693 7.88797 8.67021 7.88797 8.53326C7.88797 8.21163 7.75887 7.88708 7.50277 7.64777L7.33367 7.48909C7.09297 7.26408 6.78145 7.15179 6.47395 7.15202C6.45093 7.15202 6.4281 7.15496 6.40527 7.15791C6.3925 7.15956 6.37972 7.16121 6.36692 7.16234C6.35715 6.8535 6.23102 6.54489 5.98559 6.31495V6.31472L5.81695 6.15674C5.57625 5.93149 5.26473 5.8192 4.95723 5.81943C4.62926 5.8192 4.29906 5.94605 4.05481 6.19753L3.65301 6.61104L1.87309 5.11388C1.74516 5.00586 1.68129 4.85658 1.68082 4.7033C1.68125 4.57486 1.72559 4.44912 1.82012 4.34473L3.69821 2.27045C3.77274 2.18797 3.88297 2.11336 4.01207 2.06154C4.14117 2.00977 4.28774 1.98134 4.42477 1.98153C4.5441 1.98153 4.6561 2.00283 4.74567 2.04093L5.77676 2.47482C6.06742 2.59563 6.40488 2.64517 6.74402 2.64624C7.08356 2.64513 7.42059 2.59559 7.71129 2.47482L8.74192 2.04112C8.90078 1.97278 9.14051 1.93041 9.37891 1.9313C9.64254 1.92972 9.9066 1.98353 10.0598 2.06062C10.157 2.10835 10.2493 2.15365 10.335 2.19599L9.28387 2.92465C8.94613 3.15887 8.7641 3.53135 8.76457 3.90722C8.76414 4.156 8.8441 4.40925 9.00684 4.62417L9.00641 4.62371L9.14524 4.8077C9.40887 5.15333 9.81996 5.33103 10.2309 5.33192C10.4629 5.33192 10.6993 5.2741 10.9099 5.14947L11.5385 4.77719C11.6667 4.69987 11.8603 4.65102 12.0605 4.65191C12.2957 4.65056 12.5328 4.71917 12.6753 4.82245L14.4143 6.05199C14.8013 6.32543 15.4317 6.83262 15.7811 7.15179L17.7939 8.98714C17.9131 9.09612 17.9731 9.2434 17.9736 9.39468ZM17.4606 7.77166L20.1421 4.84753C20.2539 4.72718 20.321 4.54293 20.3207 4.35567C20.3207 4.18821 20.2678 4.02664 20.1764 3.91211L18.5917 1.91246C18.4733 1.76029 18.2643 1.66707 18.0556 1.66749C17.9322 1.66749 17.8138 1.69889 17.7152 1.7596L16.1695 2.70784C15.8561 2.89768 15.4757 2.97835 15.0993 2.98016C14.8064 2.97947 14.5153 2.9295 14.2573 2.80735L12.7443 2.08454C12.6209 2.02444 12.4407 1.98704 12.252 1.98792C11.9805 1.98592 11.6946 2.0664 11.5339 2.18112L9.67531 3.46894C9.52301 3.57496 9.44438 3.7381 9.44348 3.90622C9.44398 4.0174 9.47828 4.12723 9.55192 4.22515L9.55238 4.22561L9.69078 4.40937C9.80848 4.56739 10.0196 4.66447 10.2305 4.66377C10.3485 4.66354 10.4621 4.63438 10.5585 4.57725L11.1866 4.20497C11.4507 4.04991 11.7566 3.98465 12.0602 3.98377C12.417 3.98508 12.7779 4.0741 13.0727 4.28005L14.8112 5.50959C15.233 5.80837 15.8618 6.31464 16.2432 6.66181L17.4606 7.77166Z"/>
</mask>
<path fill-rule="evenodd" clip-rule="evenodd" d="M21 4.35536C20.9995 4.05592 20.9102 3.75224 20.7128 3.50192L19.1281 1.50226C18.8627 1.16989 18.4588 1.00065 18.0552 1C17.815 1 17.5704 1.06071 17.3543 1.19362L15.8092 2.14167C15.6467 2.24387 15.3681 2.31402 15.099 2.31221C14.8899 2.3131 14.6879 2.27184 14.5545 2.20685L13.0414 1.48404C12.7973 1.36816 12.5252 1.32067 12.2516 1.3202C11.8587 1.32201 11.4608 1.41724 11.141 1.63578L10.9645 1.75794C10.8311 1.69231 10.6312 1.59422 10.4035 1.48247L10.4019 1.4817L10.4 1.48075L10.3993 1.48042L10.3976 1.47958L10.3634 1.46278C10.0704 1.32113 9.7259 1.264 9.37793 1.26288C9.06359 1.26377 8.74934 1.31154 8.4734 1.42649L7.44277 1.86018C7.27504 1.93191 7.00824 1.97876 6.74324 1.9776C6.47824 1.97872 6.21192 1.93187 6.04418 1.86018L5.01262 1.42626C4.82445 1.34713 4.62332 1.31331 4.42399 1.31308C4.19446 1.31331 3.96629 1.35792 3.75422 1.44263C3.54242 1.5278 3.34582 1.65354 3.18926 1.82609L1.31114 3.9004C1.10297 4.12965 0.999573 4.41834 1 4.70253C0.999573 5.04142 1.1466 5.38138 1.4302 5.61965L3.18215 7.09369L2.35106 7.94871C2.12196 8.18451 2.00789 8.49023 2.00789 8.79252C2.00746 9.11415 2.13699 9.4389 2.39356 9.67801L2.56215 9.836C2.72102 9.98462 2.91192 10.0792 3.11168 10.1296C3.01149 10.3113 2.95672 10.5106 2.95715 10.7103C2.95672 11.0321 3.08625 11.3567 3.34235 11.596L3.34192 11.5958L3.51102 11.7545C3.75172 11.9795 4.06375 12.0916 4.37117 12.0914C4.53641 12.0916 4.70184 12.0589 4.85731 11.9948C4.91188 12.2131 5.02457 12.4206 5.20184 12.5864L5.37094 12.7451C5.61164 12.9701 5.92317 13.0822 6.2311 13.082C6.4718 13.0822 6.7136 13.0123 6.92176 12.8765C6.98266 13.0697 7.08699 13.2528 7.24582 13.4016L7.41492 13.5603C7.65512 13.7853 7.96715 13.8973 8.27465 13.8971C8.60211 13.8974 8.93281 13.7705 9.17707 13.519L9.9116 12.7626L10.9095 13.6734C11.1484 13.8919 11.455 14.0006 11.7577 14C12.0902 14.0007 12.4256 13.8693 12.6704 13.6109L12.8296 13.4426C12.9671 13.2969 13.0569 13.1246 13.109 12.9446L13.4955 13.2965C13.7348 13.5141 14.041 13.6224 14.3432 13.6221C14.6762 13.6224 15.0125 13.491 15.2575 13.2324L15.4159 13.0643C15.5989 12.8715 15.7018 12.6328 15.7336 12.389C15.8357 12.4148 15.9391 12.4323 16.0434 12.4323C16.3763 12.4323 16.7117 12.3011 16.957 12.0428L17.1158 11.8746C17.3379 11.64 17.4483 11.339 17.4479 11.0422C17.4479 10.9501 17.4345 10.8585 17.4137 10.7679C17.6899 10.7318 17.9576 10.6103 18.1612 10.3947L18.3205 10.2264C18.5425 9.99175 18.6525 9.69077 18.6525 9.39379C18.653 9.06704 18.5194 8.73732 18.2557 8.49709L17.9578 8.22569L20.6468 5.2937C20.8882 5.02974 20.9996 4.68997 21 4.35536ZM3.42242 9.5057C3.27996 9.50528 3.14063 9.45504 3.03176 9.3533L2.86289 9.19532C2.74606 9.08638 2.68836 8.94141 2.68789 8.79256C2.68836 8.65295 2.73903 8.51666 2.84336 8.4093L4.54555 6.65754C4.65645 6.54343 4.80442 6.4863 4.95621 6.48611C5.09824 6.48634 5.23711 6.53677 5.34688 6.63874L5.51504 6.79695C5.51504 6.79695 5.68914 7.05086 5.68957 7.1999C5.68914 7.3115 5.65504 7.42022 5.58891 7.51437C5.58324 7.51995 3.75172 9.40238 3.75172 9.40238C3.65446 9.47026 3.53946 9.5052 3.42242 9.5057ZM4.37168 11.424C4.52348 11.4235 4.67121 11.3666 4.78188 11.253L7.05172 8.91618C7.15563 8.80882 7.20672 8.67233 7.20719 8.53272C7.20676 8.38368 7.14899 8.23845 7.03266 8.12996L6.86356 7.97129C6.75426 7.86932 6.61535 7.81912 6.47289 7.81889C6.3286 7.81912 6.18887 7.87225 6.08043 7.9751C6.06133 7.99756 3.79235 10.3269 3.79235 10.3269C3.68852 10.4342 3.63738 10.5705 3.63738 10.7101C3.63738 10.859 3.69559 11.0044 3.81149 11.1129L3.81192 11.1131L3.98102 11.2716C4.09031 11.3733 4.22922 11.4238 4.37168 11.424ZM6.64152 12.2433C6.5311 12.3573 6.3834 12.4142 6.23156 12.4147C6.0891 12.4144 5.9502 12.364 5.8409 12.262L5.67133 12.1035C5.555 11.9948 5.4968 11.8496 5.4968 11.7008C5.4968 11.5762 5.53977 11.4554 5.62199 11.3547L7.20215 9.72825C7.30875 9.63344 7.44235 9.58348 7.58078 9.58348C7.72324 9.58371 7.86215 9.63391 7.97145 9.73588L8.14102 9.89455C8.25692 10.003 8.31512 10.1483 8.31555 10.2971C8.31508 10.437 8.26352 10.5734 8.16008 10.6805L6.64152 12.2433ZM8.68512 13.0586L9.64395 12.0717C9.74781 11.9646 9.79895 11.8281 9.79949 11.6882C9.79902 11.5394 9.74129 11.3942 9.62539 11.2857L9.45582 11.1272C9.34652 11.025 9.20719 10.9748 9.06516 10.9746C8.91336 10.9748 8.76539 11.032 8.65449 11.1458L7.6961 12.1327C7.59219 12.2396 7.54106 12.3761 7.54063 12.5159C7.54106 12.6648 7.59926 12.8102 7.71516 12.9187L7.88426 13.0772C7.99356 13.1791 8.13246 13.2296 8.27492 13.2298C8.42672 13.2294 8.57465 13.1724 8.68512 13.0586ZM17.9736 9.39468C17.9734 9.53174 17.9236 9.66599 17.8227 9.77267L17.6638 9.94078C17.5529 10.0578 17.4024 10.1169 17.2484 10.1172C17.1086 10.1169 16.9718 10.0685 16.8632 9.96952L14.186 7.52789L13.7231 8.01671L16.5886 10.6347C16.708 10.7436 16.7679 10.8916 16.7688 11.0426C16.7679 11.1802 16.7186 11.3142 16.6179 11.421L16.4595 11.5891C16.3486 11.7061 16.1982 11.765 16.0441 11.7655C15.9043 11.765 15.7671 11.7164 15.6593 11.618L12.9815 9.1764L12.519 9.66523L14.8955 11.8325C15.01 11.9408 15.0687 12.0849 15.0687 12.2328C15.0687 12.37 15.0194 12.5042 14.9187 12.6107L14.7598 12.7788C14.6494 12.8958 14.4985 12.9549 14.344 12.9554C14.2037 12.9549 14.067 12.9063 13.9588 12.8079L11.5871 10.6484H11.5866L11.5862 10.648L11.1246 11.1377L11.1251 11.1382L11.134 11.1464L12.3219 12.2276C12.4271 12.3343 12.4816 12.471 12.4821 12.6124C12.4816 12.7489 12.4327 12.8825 12.3321 12.989L12.1732 13.1573C12.0623 13.2743 11.9123 13.333 11.7587 13.3335C11.6189 13.333 11.4821 13.2846 11.3739 13.1858L10.3396 12.2413C10.4296 12.0672 10.4799 11.8783 10.4799 11.6886C10.4803 11.367 10.3508 11.0427 10.0947 10.8032L9.92512 10.6445C9.68492 10.4197 9.37332 10.3074 9.06586 10.3078C9.05212 10.3078 9.03832 10.3096 9.02462 10.3114C9.01451 10.3127 9.00446 10.314 8.99453 10.3146C8.99453 10.3118 8.99486 10.3089 8.9952 10.3061C8.99553 10.3032 8.99586 10.3003 8.99586 10.2975C8.99629 9.97591 8.61067 9.41159 8.61067 9.41159L8.44156 9.25337C8.2618 9.08526 8.04246 8.9804 7.81434 8.93826C7.86137 8.80693 7.88797 8.67021 7.88797 8.53326C7.88797 8.21163 7.75887 7.88708 7.50277 7.64777L7.33367 7.48909C7.09297 7.26408 6.78145 7.15179 6.47395 7.15202C6.45093 7.15202 6.4281 7.15496 6.40527 7.15791C6.3925 7.15956 6.37972 7.16121 6.36692 7.16234C6.35715 6.8535 6.23102 6.54489 5.98559 6.31495V6.31472L5.81695 6.15674C5.57625 5.93149 5.26473 5.8192 4.95723 5.81943C4.62926 5.8192 4.29906 5.94605 4.05481 6.19753L3.65301 6.61104L1.87309 5.11388C1.74516 5.00586 1.68129 4.85658 1.68082 4.7033C1.68125 4.57486 1.72559 4.44912 1.82012 4.34473L3.69821 2.27045C3.77274 2.18797 3.88297 2.11336 4.01207 2.06154C4.14117 2.00977 4.28774 1.98134 4.42477 1.98153C4.5441 1.98153 4.6561 2.00283 4.74567 2.04093L5.77676 2.47482C6.06742 2.59563 6.40488 2.64517 6.74402 2.64624C7.08356 2.64513 7.42059 2.59559 7.71129 2.47482L8.74192 2.04112C8.90078 1.97278 9.14051 1.93041 9.37891 1.9313C9.64254 1.92972 9.9066 1.98353 10.0598 2.06062C10.157 2.10835 10.2493 2.15365 10.335 2.19599L9.28387 2.92465C8.94613 3.15887 8.7641 3.53135 8.76457 3.90722C8.76414 4.156 8.8441 4.40925 9.00684 4.62417L9.00641 4.62371L9.14524 4.8077C9.40887 5.15333 9.81996 5.33103 10.2309 5.33192C10.4629 5.33192 10.6993 5.2741 10.9099 5.14947L11.5385 4.77719C11.6667 4.69987 11.8603 4.65102 12.0605 4.65191C12.2957 4.65056 12.5328 4.71917 12.6753 4.82245L14.4143 6.05199C14.8013 6.32543 15.4317 6.83262 15.7811 7.15179L17.7939 8.98714C17.9131 9.09612 17.9731 9.2434 17.9736 9.39468ZM17.4606 7.77166L20.1421 4.84753C20.2539 4.72718 20.321 4.54293 20.3207 4.35567C20.3207 4.18821 20.2678 4.02664 20.1764 3.91211L18.5917 1.91246C18.4733 1.76029 18.2643 1.66707 18.0556 1.66749C17.9322 1.66749 17.8138 1.69889 17.7152 1.7596L16.1695 2.70784C15.8561 2.89768 15.4757 2.97835 15.0993 2.98016C14.8064 2.97947 14.5153 2.9295 14.2573 2.80735L12.7443 2.08454C12.6209 2.02444 12.4407 1.98704 12.252 1.98792C11.9805 1.98592 11.6946 2.0664 11.5339 2.18112L9.67531 3.46894C9.52301 3.57496 9.44438 3.7381 9.44348 3.90622C9.44398 4.0174 9.47828 4.12723 9.55192 4.22515L9.55238 4.22561L9.69078 4.40937C9.80848 4.56739 10.0196 4.66447 10.2305 4.66377C10.3485 4.66354 10.4621 4.63438 10.5585 4.57725L11.1866 4.20497C11.4507 4.04991 11.7566 3.98465 12.0602 3.98377C12.417 3.98508 12.7779 4.0741 13.0727 4.28005L14.8112 5.50959C15.233 5.80837 15.8618 6.31464 16.2432 6.66181L17.4606 7.77166Z" fill="#000C26"/>
<path d="M20.7128 3.50192L20.8502 3.39354L20.8499 3.39323L20.7128 3.50192ZM21 4.35536L21.175 4.35558L21.175 4.35508L21 4.35536ZM19.1281 1.50226L19.2652 1.39357L19.2648 1.39306L19.1281 1.50226ZM18.0552 1L18.0555 0.825H18.0552V1ZM17.3543 1.19362L17.4459 1.34278L17.446 1.34268L17.3543 1.19362ZM15.8092 2.14167L15.7177 1.9925L15.716 1.99353L15.8092 2.14167ZM15.099 2.31221L15.1002 2.1372L15.0982 2.13721L15.099 2.31221ZM14.5545 2.20685L14.6311 2.04952L14.6299 2.04894L14.5545 2.20685ZM13.0414 1.48404L13.1168 1.32613L13.1164 1.32596L13.0414 1.48404ZM12.2516 1.3202L12.2519 1.1452L12.2508 1.14521L12.2516 1.3202ZM11.141 1.63578L11.0423 1.4913L11.0414 1.49187L11.141 1.63578ZM10.9645 1.75794L10.8872 1.91496L10.9795 1.96037L11.064 1.90186L10.9645 1.75794ZM10.4035 1.48247L10.3264 1.63957L10.3264 1.63957L10.4035 1.48247ZM10.4019 1.4817L10.479 1.3246L10.479 1.32458L10.4019 1.4817ZM10.4 1.48075L10.4771 1.32364L10.477 1.32362L10.4 1.48075ZM10.3993 1.48042L10.3222 1.63752L10.3223 1.63754L10.3993 1.48042ZM10.3976 1.47958L10.4747 1.32248L10.4747 1.32247L10.3976 1.47958ZM10.3634 1.46278L10.4405 1.30567L10.4395 1.30523L10.3634 1.46278ZM9.37793 1.26288L9.37849 1.08788L9.37744 1.08788L9.37793 1.26288ZM8.4734 1.42649L8.4061 1.26494L8.40552 1.26519L8.4734 1.42649ZM7.44277 1.86018L7.3749 1.69888L7.37397 1.69928L7.44277 1.86018ZM6.74324 1.9776L6.74401 1.8026L6.74251 1.8026L6.74324 1.9776ZM6.04418 1.86018L6.11296 1.69926L6.11204 1.69887L6.04418 1.86018ZM5.01262 1.42626L5.08047 1.26495L5.08046 1.26494L5.01262 1.42626ZM4.42399 1.31308L4.42419 1.13808L4.42381 1.13808L4.42399 1.31308ZM3.75422 1.44263L3.6893 1.28012L3.68893 1.28027L3.75422 1.44263ZM3.18926 1.82609L3.05966 1.70849L3.05953 1.70863L3.18926 1.82609ZM1.31114 3.9004L1.44069 4.01804L1.44086 4.01786L1.31114 3.9004ZM1 4.70253L1.175 4.70275L1.175 4.70226L1 4.70253ZM1.4302 5.61965L1.54286 5.48574L1.54277 5.48566L1.4302 5.61965ZM3.18215 7.09369L3.30764 7.21567L3.43869 7.08084L3.29482 6.95979L3.18215 7.09369ZM2.35106 7.94871L2.22557 7.82674L2.22554 7.82677L2.35106 7.94871ZM2.00789 8.79252L2.18289 8.79276V8.79252H2.00789ZM2.39356 9.67801L2.51322 9.55032L2.51287 9.54999L2.39356 9.67801ZM2.56215 9.836L2.44249 9.96369L2.4426 9.96379L2.56215 9.836ZM3.11168 10.1296L3.26494 10.2141L3.37445 10.0154L3.15451 9.9599L3.11168 10.1296ZM2.95715 10.7103L3.13215 10.7105L3.13215 10.7099L2.95715 10.7103ZM3.34235 11.596L3.25953 11.7502L3.46185 11.4682L3.34235 11.596ZM3.34192 11.5958L3.42473 11.4416L3.22217 11.7234L3.34192 11.5958ZM3.51102 11.7545L3.39127 11.8821L3.39151 11.8823L3.51102 11.7545ZM4.37117 12.0914L4.37142 11.9164H4.37106L4.37117 12.0914ZM4.85731 11.9948L5.02708 11.9523L4.97794 11.7557L4.7906 11.833L4.85731 11.9948ZM5.20184 12.5864L5.32159 12.4588L5.3214 12.4586L5.20184 12.5864ZM5.37094 12.7451L5.25119 12.8727L5.25143 12.8729L5.37094 12.7451ZM6.2311 13.082L6.23126 12.907H6.23099L6.2311 13.082ZM6.92176 12.8765L7.08866 12.8239L7.01932 12.6039L6.82615 12.7299L6.92176 12.8765ZM7.24582 13.4016L7.36557 13.274L7.36547 13.2739L7.24582 13.4016ZM7.41492 13.5603L7.29518 13.6879L7.29528 13.688L7.41492 13.5603ZM8.27465 13.8971L8.27477 13.7221H8.27454L8.27465 13.8971ZM9.17707 13.519L9.3026 13.641L9.30262 13.6409L9.17707 13.519ZM9.9116 12.7626L10.0296 12.6333L9.90426 12.519L9.78605 12.6407L9.9116 12.7626ZM10.9095 13.6734L11.0276 13.5443L11.0275 13.5442L10.9095 13.6734ZM11.7577 14L11.758 13.825L11.7573 13.825L11.7577 14ZM12.6704 13.6109L12.7974 13.7313L12.7975 13.7312L12.6704 13.6109ZM12.8296 13.4426L12.9567 13.5629L12.9569 13.5627L12.8296 13.4426ZM13.109 12.9446L13.2268 12.8152L13.019 12.6261L12.9409 12.896L13.109 12.9446ZM13.4955 13.2965L13.3777 13.4259L13.3778 13.426L13.4955 13.2965ZM14.3432 13.6221L14.3434 13.4471H14.3431L14.3432 13.6221ZM15.2575 13.2324L15.3846 13.3527L15.3849 13.3524L15.2575 13.2324ZM15.4159 13.0643L15.289 12.9438L15.2886 12.9443L15.4159 13.0643ZM15.7336 12.389L15.7765 12.2193L15.5856 12.1711L15.5601 12.3664L15.7336 12.389ZM16.957 12.0428L17.0839 12.1632L17.0841 12.1629L16.957 12.0428ZM17.1158 11.8746L16.9887 11.7544L16.9886 11.7544L17.1158 11.8746ZM17.4479 11.0422H17.2729L17.2729 11.0425L17.4479 11.0422ZM17.4137 10.7679L17.3911 10.5944L17.2003 10.6193L17.2432 10.8069L17.4137 10.7679ZM18.1612 10.3947L18.0341 10.2744L18.034 10.2746L18.1612 10.3947ZM18.3205 10.2264L18.4476 10.3467L18.4476 10.3467L18.3205 10.2264ZM18.6525 9.39379L18.4775 9.39356V9.39379H18.6525ZM18.2557 8.49709L18.3736 8.36774L18.3736 8.36772L18.2557 8.49709ZM17.9578 8.22569L17.8288 8.10741L17.7102 8.23682L17.84 8.35506L17.9578 8.22569ZM20.6468 5.2937L20.7758 5.41199L20.7759 5.41181L20.6468 5.2937ZM3.03176 9.3533L2.9122 9.4811L2.91227 9.48116L3.03176 9.3533ZM3.42242 9.5057L3.4219 9.6807L3.42317 9.6807L3.42242 9.5057ZM2.86289 9.19532L2.98245 9.06753L2.98224 9.06733L2.86289 9.19532ZM2.68789 8.79256L2.51289 8.79197L2.51289 8.79311L2.68789 8.79256ZM2.84336 8.4093L2.96886 8.53126L2.96887 8.53125L2.84336 8.4093ZM4.54555 6.65754L4.42005 6.53557L4.42004 6.53558L4.54555 6.65754ZM4.95621 6.48611L4.9565 6.31111L4.95599 6.31111L4.95621 6.48611ZM5.34688 6.63874L5.46679 6.51128L5.46598 6.51052L5.34688 6.63874ZM5.51504 6.79695L5.65937 6.69799L5.6487 6.68242L5.63496 6.66949L5.51504 6.79695ZM5.68957 7.1999L5.86457 7.20058L5.86457 7.1994L5.68957 7.1999ZM5.58891 7.51437L5.71178 7.63897L5.72303 7.62788L5.73211 7.61495L5.58891 7.51437ZM3.75172 9.40238L3.85187 9.54589L3.86553 9.53636L3.87715 9.52442L3.75172 9.40238ZM4.78188 11.253L4.90725 11.3751L4.90741 11.3749L4.78188 11.253ZM4.37168 11.424L4.3714 11.599L4.37221 11.599L4.37168 11.424ZM7.05172 8.91618L7.17725 9.03811L7.17747 9.03788L7.05172 8.91618ZM7.20719 8.53272L7.38219 8.53331L7.38219 8.53222L7.20719 8.53272ZM7.03266 8.12996L6.91291 8.25758L6.91331 8.25795L7.03266 8.12996ZM6.86356 7.97129L6.9833 7.84367L6.98294 7.84333L6.86356 7.97129ZM6.47289 7.81889L6.47318 7.64389L6.47261 7.64389L6.47289 7.81889ZM6.08043 7.9751L5.96 7.84813L5.9532 7.85459L5.94712 7.86173L6.08043 7.9751ZM3.79235 10.3269L3.66699 10.2047L3.66655 10.2052L3.79235 10.3269ZM3.81149 11.1129L3.6919 11.2406L3.70845 11.2561L3.72841 11.2669L3.81149 11.1129ZM3.81192 11.1131L3.93159 10.9854L3.915 10.9699L3.895 10.9591L3.81192 11.1131ZM3.98102 11.2716L3.86135 11.3993L3.86178 11.3997L3.98102 11.2716ZM6.23156 12.4147L6.23128 12.5897L6.23205 12.5897L6.23156 12.4147ZM6.64152 12.2433L6.51602 12.1214L6.51588 12.1215L6.64152 12.2433ZM5.8409 12.262L5.72141 12.3899L5.72152 12.39L5.8409 12.262ZM5.67133 12.1035L5.79082 11.9757L5.79082 11.9757L5.67133 12.1035ZM5.62199 11.3547L5.49648 11.2328L5.49124 11.2382L5.48649 11.244L5.62199 11.3547ZM7.20215 9.72825L7.08554 9.59713L7.07663 9.60631L7.20215 9.72825ZM7.58078 9.58348L7.58107 9.40848H7.58078V9.58348ZM7.97145 9.73588L8.09102 9.6081L8.09083 9.60792L7.97145 9.73588ZM8.14102 9.89455L8.2606 9.76679L8.26059 9.76677L8.14102 9.89455ZM8.31555 10.2971L8.49055 10.2977L8.49055 10.2966L8.31555 10.2971ZM8.16008 10.6805L8.28559 10.8025L8.28595 10.8021L8.16008 10.6805ZM9.64395 12.0717L9.76946 12.1936L9.76959 12.1935L9.64395 12.0717ZM8.68512 13.0586L8.5596 12.9366L8.55953 12.9367L8.68512 13.0586ZM9.79949 11.6882L9.9745 11.6889L9.97449 11.6877L9.79949 11.6882ZM9.62539 11.2857L9.74498 11.1579L9.74489 11.1578L9.62539 11.2857ZM9.45582 11.1272L9.3363 11.255L9.33633 11.2551L9.45582 11.1272ZM9.06516 10.9746L9.06544 10.7996H9.06489L9.06516 10.9746ZM8.65449 11.1458L8.52914 11.0237L8.52895 11.0239L8.65449 11.1458ZM7.6961 12.1327L7.82158 12.2546L7.82164 12.2546L7.6961 12.1327ZM7.54063 12.5159L7.36562 12.5154L7.36563 12.5164L7.54063 12.5159ZM7.71516 12.9187L7.83483 12.791L7.83475 12.7909L7.71516 12.9187ZM7.88426 13.0772L7.76459 13.2049L7.76488 13.2051L7.88426 13.0772ZM8.27492 13.2298L8.27464 13.4048L8.27541 13.4048L8.27492 13.2298ZM17.8227 9.77267L17.6955 9.65241L17.6955 9.65247L17.8227 9.77267ZM17.9736 9.39468L18.1486 9.39493L18.1486 9.39413L17.9736 9.39468ZM17.6638 9.94078L17.7908 10.0612L17.791 10.061L17.6638 9.94078ZM17.2484 10.1172L17.2481 10.2922H17.2486L17.2484 10.1172ZM16.8632 9.96952L16.7452 10.0988L16.7453 10.0988L16.8632 9.96952ZM14.186 7.52789L14.3039 7.39859L14.177 7.28286L14.059 7.40755L14.186 7.52789ZM13.7231 8.01671L13.596 7.89637L13.4735 8.02573L13.605 8.14591L13.7231 8.01671ZM16.5886 10.6347L16.4706 10.7639L16.4706 10.7639L16.5886 10.6347ZM16.7688 11.0426L16.9438 11.0438L16.9438 11.0416L16.7688 11.0426ZM16.6179 11.421L16.4906 11.3009L16.4906 11.3009L16.6179 11.421ZM16.4595 11.5891L16.5865 11.7095L16.5869 11.7091L16.4595 11.5891ZM16.0441 11.7655L16.0436 11.9405L16.0446 11.9405L16.0441 11.7655ZM15.6593 11.618L15.7773 11.4888L15.7772 11.4887L15.6593 11.618ZM12.9815 9.1764L13.0994 9.04709L12.9724 8.93133L12.8544 9.05614L12.9815 9.1764ZM12.519 9.66523L12.3919 9.54496L12.2694 9.67443L12.4011 9.79453L12.519 9.66523ZM14.8955 11.8325L15.0157 11.7053L15.0134 11.7032L14.8955 11.8325ZM14.9187 12.6107L14.7915 12.4904L14.7915 12.4905L14.9187 12.6107ZM14.7598 12.7788L14.6327 12.6586L14.6326 12.6586L14.7598 12.7788ZM14.344 12.9554L14.3435 13.1304L14.3445 13.1304L14.344 12.9554ZM13.9588 12.8079L13.841 12.9373L13.841 12.9374L13.9588 12.8079ZM11.5871 10.6484L11.7049 10.5191L11.6548 10.4734H11.5871V10.6484ZM11.5866 10.6484L11.4636 10.7729L11.5147 10.8234H11.5866V10.6484ZM11.5862 10.648L11.7093 10.5236L11.5818 10.3976L11.4589 10.528L11.5862 10.648ZM11.1246 11.1377L10.9973 11.0177L10.8748 11.1477L11.0073 11.2675L11.1246 11.1377ZM11.1251 11.1382L11.2446 11.0103L11.2425 11.0084L11.1251 11.1382ZM11.134 11.1464L11.0145 11.2743L11.0162 11.2759L11.134 11.1464ZM12.3219 12.2276L12.4466 12.1045L12.4397 12.0982L12.3219 12.2276ZM12.4821 12.6124L12.6571 12.613L12.6571 12.6119L12.4821 12.6124ZM12.3321 12.989L12.2049 12.8688L12.2048 12.8689L12.3321 12.989ZM12.1732 13.1573L12.3002 13.2777L12.3005 13.2774L12.1732 13.1573ZM11.7587 13.3335L11.7581 13.5085L11.7592 13.5085L11.7587 13.3335ZM11.3739 13.1858L11.4919 13.0566L11.4919 13.0566L11.3739 13.1858ZM10.3396 12.2413L10.1842 12.161L10.1226 12.2801L10.2216 12.3706L10.3396 12.2413ZM10.4799 11.6886L10.3049 11.6884V11.6886H10.4799ZM10.0947 10.8032L9.97512 10.9309L9.97513 10.931L10.0947 10.8032ZM9.92512 10.6445L9.80553 10.7722L9.80555 10.7723L9.92512 10.6445ZM9.06586 10.3078V10.4828H9.0661L9.06586 10.3078ZM9.02462 10.3114L9.00215 10.1378H9.00215L9.02462 10.3114ZM8.99453 10.3146H8.81953V10.4999L9.0046 10.4893L8.99453 10.3146ZM8.9952 10.3061L8.82136 10.2859L8.82136 10.2859L8.9952 10.3061ZM8.99586 10.2975L8.82086 10.2973V10.2975H8.99586ZM8.61067 9.41159L8.75515 9.31285L8.74429 9.29696L8.73023 9.2838L8.61067 9.41159ZM8.44156 9.25337L8.56113 9.12559L8.5611 9.12556L8.44156 9.25337ZM7.81434 8.93826L7.64958 8.87925L7.58021 9.07296L7.78255 9.11034L7.81434 8.93826ZM7.50277 7.64777L7.38303 7.77539L7.38329 7.77564L7.50277 7.64777ZM7.33367 7.48909L7.45342 7.36148L7.45318 7.36125L7.33367 7.48909ZM6.47395 7.15202V7.32702L6.47408 7.32702L6.47395 7.15202ZM6.40527 7.15791L6.42767 7.33147L6.42767 7.33147L6.40527 7.15791ZM6.36692 7.16234L6.192 7.16787L6.19786 7.35298L6.38234 7.33666L6.36692 7.16234ZM5.98559 6.31495H5.81059V6.3908L5.86594 6.44266L5.98559 6.31495ZM5.98559 6.31472H6.16059V6.23887L6.10523 6.18701L5.98559 6.31472ZM5.81695 6.15674L5.9366 6.02903L5.93653 6.02896L5.81695 6.15674ZM4.95723 5.81943L4.9571 5.99443L4.95736 5.99443L4.95723 5.81943ZM4.05481 6.19753L4.18031 6.31949L4.18034 6.31946L4.05481 6.19753ZM3.65301 6.61104L3.54036 6.74496L3.66501 6.84981L3.77852 6.73299L3.65301 6.61104ZM1.87309 5.11388L1.76019 5.24759L1.76044 5.2478L1.87309 5.11388ZM1.68082 4.7033L1.50582 4.70271L1.50582 4.70383L1.68082 4.7033ZM1.82012 4.34473L1.94984 4.46219L1.94985 4.46218L1.82012 4.34473ZM3.69821 2.27045L3.82793 2.38791L3.82805 2.38778L3.69821 2.27045ZM4.01207 2.06154L3.94693 1.89912L3.94689 1.89913L4.01207 2.06154ZM4.42477 1.98153L4.42452 2.15653H4.42477V1.98153ZM4.74567 2.04093L4.67717 2.20197L4.67779 2.20223L4.74567 2.04093ZM5.77676 2.47482L5.70888 2.63612L5.70959 2.63642L5.77676 2.47482ZM6.74402 2.64624L6.74347 2.82125L6.7446 2.82124L6.74402 2.64624ZM7.71129 2.47482L7.77843 2.63643L7.77917 2.63612L7.71129 2.47482ZM8.74192 2.04112L8.80979 2.20243L8.81107 2.20188L8.74192 2.04112ZM9.37891 1.9313L9.37826 2.1063L9.37996 2.10629L9.37891 1.9313ZM10.0598 2.06062L9.98109 2.21694L9.98267 2.21772L10.0598 2.06062ZM10.335 2.19599L10.4347 2.33981L10.6787 2.17065L10.4125 2.0391L10.335 2.19599ZM9.28387 2.92465L9.18417 2.78083L9.18414 2.78085L9.28387 2.92465ZM8.76457 3.90722L8.93957 3.90752L8.93957 3.907L8.76457 3.90722ZM9.00684 4.62417L8.87871 4.74338L9.14635 4.51853L9.00684 4.62417ZM9.00641 4.62371L9.13453 4.50451L8.86671 4.72912L9.00641 4.62371ZM9.14524 4.8077L9.00554 4.91311L9.00609 4.91383L9.14524 4.8077ZM10.2309 5.33192L10.2305 5.50692H10.2309V5.33192ZM10.9099 5.14947L10.999 5.30009L10.9991 5.30005L10.9099 5.14947ZM11.5385 4.77719L11.6277 4.92776L11.6289 4.92704L11.5385 4.77719ZM12.0605 4.65191L12.0597 4.82692L12.0615 4.82691L12.0605 4.65191ZM12.6753 4.82245L12.5726 4.96416L12.5742 4.96534L12.6753 4.82245ZM14.4143 6.05199L14.3133 6.19488L14.3133 6.19492L14.4143 6.05199ZM15.7811 7.15179L15.663 7.28098L15.6631 7.2811L15.7811 7.15179ZM17.7939 8.98714L17.912 8.858L17.9118 8.85783L17.7939 8.98714ZM20.1421 4.84753L20.0139 4.72842L20.0131 4.72925L20.1421 4.84753ZM17.4606 7.77166L17.3427 7.90099L17.4717 8.01854L17.5896 7.88994L17.4606 7.77166ZM20.3207 4.35567H20.1457V4.35592L20.3207 4.35567ZM20.1764 3.91211L20.0393 4.0208L20.0396 4.02125L20.1764 3.91211ZM18.5917 1.91246L18.4536 2.01993L18.4546 2.02115L18.5917 1.91246ZM18.0556 1.66749V1.84249L18.056 1.84249L18.0556 1.66749ZM17.7152 1.7596L17.8067 1.90876L17.8069 1.90863L17.7152 1.7596ZM16.1695 2.70784L16.2602 2.85753L16.261 2.85701L16.1695 2.70784ZM15.0993 2.98016L15.0989 3.15517L15.1002 3.15516L15.0993 2.98016ZM14.2573 2.80735L14.1819 2.96526L14.1824 2.96551L14.2573 2.80735ZM12.7443 2.08454L12.6676 2.24188L12.6688 2.24245L12.7443 2.08454ZM12.252 1.98792L12.2507 2.16293L12.2529 2.16292L12.252 1.98792ZM11.5339 2.18112L11.6335 2.32497L11.6355 2.32355L11.5339 2.18112ZM9.67531 3.46894L9.57564 3.3251L9.57534 3.32531L9.67531 3.46894ZM9.44348 3.90622L9.26847 3.90528L9.26848 3.90702L9.44348 3.90622ZM9.55192 4.22515L9.41204 4.33032L9.41978 4.34061L9.42893 4.34965L9.55192 4.22515ZM9.55238 4.22561L9.69217 4.12033L9.68447 4.11011L9.67536 4.10111L9.55238 4.22561ZM9.69078 4.40937L9.83113 4.30483L9.83057 4.30409L9.69078 4.40937ZM10.2305 4.66377L10.2302 4.48878L10.2299 4.48878L10.2305 4.66377ZM10.5585 4.57725L10.4693 4.42671L10.4692 4.42672L10.5585 4.57725ZM11.1866 4.20497L11.098 4.05406L11.0974 4.05442L11.1866 4.20497ZM12.0602 3.98377L12.0608 3.80876L12.0597 3.80877L12.0602 3.98377ZM13.0727 4.28005L13.1737 4.13716L13.1729 4.13659L13.0727 4.28005ZM14.8112 5.50959L14.9124 5.36679L14.9123 5.36671L14.8112 5.50959ZM16.2432 6.66181L16.3611 6.53248L16.361 6.53241L16.2432 6.66181ZM20.5754 3.6103C20.7455 3.82603 20.8246 4.09031 20.825 4.35563L21.175 4.35508C21.1745 4.02153 21.0749 3.67845 20.8502 3.39354L20.5754 3.6103ZM18.9909 1.61096L20.5756 3.61061L20.8499 3.39323L19.2652 1.39357L18.9909 1.61096ZM18.0549 1.175C18.4114 1.17558 18.7626 1.32504 18.9913 1.61147L19.2648 1.39306C18.9627 1.01473 18.5062 0.825732 18.0555 0.825L18.0549 1.175ZM17.446 1.34268C17.6319 1.22834 17.8442 1.175 18.0552 1.175V0.825C17.7858 0.825 17.5089 0.893088 17.2627 1.04455L17.446 1.34268ZM15.9007 2.29083L17.4459 1.34278L17.2628 1.04446L15.7177 1.99251L15.9007 2.29083ZM15.0978 2.48721C15.3903 2.48918 15.7042 2.41443 15.9023 2.28981L15.716 1.99353C15.5892 2.07331 15.3459 2.13887 15.1002 2.13722L15.0978 2.48721ZM14.4778 2.36417C14.6415 2.4439 14.8717 2.48818 15.0997 2.48721L15.0982 2.13721C14.9082 2.13802 14.7343 2.09977 14.6311 2.04953L14.4778 2.36417ZM12.9659 1.64195L14.4791 2.36476L14.6299 2.04894L13.1168 1.32613L12.9659 1.64195ZM12.2513 1.4952C12.5057 1.49563 12.7509 1.53986 12.9663 1.64213L13.1164 1.32596C12.8437 1.19647 12.5448 1.1457 12.2519 1.1452L12.2513 1.4952ZM11.2398 1.78027C11.5238 1.58614 11.8851 1.49689 12.2524 1.4952L12.2508 1.14521C11.8323 1.14713 11.3978 1.24835 11.0423 1.4913L11.2398 1.78027ZM11.064 1.90186L11.2406 1.7797L11.0414 1.49187L10.8649 1.61403L11.064 1.90186ZM10.3264 1.63957C10.5542 1.75134 10.7539 1.84938 10.8872 1.91496L11.0417 1.60093C10.9083 1.53524 10.7083 1.43709 10.4806 1.32537L10.3264 1.63957ZM10.3248 1.63879L10.3264 1.63957L10.4806 1.32537L10.479 1.3246L10.3248 1.63879ZM10.3229 1.63786L10.3248 1.63881L10.479 1.32458L10.4771 1.32364L10.3229 1.63786ZM10.3223 1.63754L10.3229 1.63787L10.477 1.32362L10.4764 1.32329L10.3223 1.63754ZM10.3205 1.63668L10.3222 1.63752L10.4764 1.32332L10.4747 1.32248L10.3205 1.63668ZM10.2863 1.61988L10.3205 1.63668L10.4747 1.32247L10.4405 1.30567L10.2863 1.61988ZM9.37737 1.43788C9.7084 1.43894 10.0249 1.49352 10.2872 1.62033L10.4395 1.30523C10.1159 1.14873 9.74339 1.08905 9.37849 1.08788L9.37737 1.43788ZM8.5407 1.58803C8.78993 1.4842 9.08015 1.43872 9.37842 1.43788L9.37744 1.08788C9.04704 1.08881 8.70875 1.13887 8.4061 1.26495L8.5407 1.58803ZM7.51065 2.02148L8.54128 1.58779L8.40552 1.26519L7.3749 1.69888L7.51065 2.02148ZM6.74248 2.1526C7.02332 2.15382 7.31549 2.10494 7.51158 2.02109L7.37397 1.69928C7.23459 1.75888 6.99317 1.80369 6.74401 1.8026L6.74248 2.1526ZM5.9754 2.0211C6.17145 2.10489 6.46312 2.15378 6.74398 2.1526L6.74251 1.8026C6.49337 1.80365 6.25239 1.75886 6.11296 1.69926L5.9754 2.0211ZM4.94476 1.58757L5.97633 2.02149L6.11204 1.69887L5.08047 1.26495L4.94476 1.58757ZM4.42378 1.48808C4.60374 1.48829 4.78132 1.51883 4.94478 1.58757L5.08046 1.26494C4.86759 1.17543 4.6429 1.13833 4.42419 1.13808L4.42378 1.48808ZM3.81914 1.60514C4.01085 1.52856 4.21706 1.48829 4.42416 1.48808L4.42381 1.13808C4.17185 1.13833 3.92173 1.18727 3.6893 1.28012L3.81914 1.60514ZM3.31886 1.94368C3.45475 1.79392 3.62792 1.68204 3.81952 1.60499L3.68893 1.28027C3.45693 1.37357 3.2369 1.51316 3.05966 1.70849L3.31886 1.94368ZM1.44086 4.01786L3.31899 1.94355L3.05953 1.70863L1.18141 3.78294L1.44086 4.01786ZM1.175 4.70226C1.17464 4.46049 1.26262 4.21416 1.44069 4.01804L1.18158 3.78276C0.943325 4.04515 0.824509 4.3762 0.825003 4.70279L1.175 4.70226ZM1.54277 5.48566C1.29978 5.28151 1.17464 4.99114 1.175 4.70275L0.825003 4.70231C0.824509 5.09169 0.993431 5.48126 1.31763 5.75363L1.54277 5.48566ZM3.29482 6.95979L1.54286 5.48574L1.31753 5.75356L3.06948 7.2276L3.29482 6.95979ZM2.47654 8.07069L3.30764 7.21567L3.05666 6.97172L2.22557 7.82674L2.47654 8.07069ZM2.18289 8.79252C2.18289 8.53401 2.28041 8.27256 2.47657 8.07066L2.22554 7.82677C1.9635 8.09647 1.83289 8.44645 1.83289 8.79252H2.18289ZM2.51287 9.54999C2.29321 9.34527 2.18253 9.06759 2.18289 8.79276L1.83289 8.79229C1.8324 9.16071 1.98078 9.53253 2.27424 9.80603L2.51287 9.54999ZM2.68181 9.7083L2.51322 9.55032L2.2739 9.80571L2.44249 9.96369L2.68181 9.7083ZM3.15451 9.9599C2.97938 9.9157 2.81608 9.83391 2.6817 9.7082L2.4426 9.96379C2.62596 10.1353 2.84445 10.2426 3.06885 10.2993L3.15451 9.9599ZM3.13215 10.7099C3.13179 10.5426 3.17772 10.3723 3.26494 10.2141L2.95843 10.0451C2.84525 10.2504 2.78165 10.4786 2.78215 10.7107L3.13215 10.7099ZM3.46185 11.4682C3.24246 11.2631 3.13178 10.9856 3.13215 10.7105L2.78215 10.71C2.78166 11.0787 2.93004 11.4502 3.22284 11.7239L3.46185 11.4682ZM3.2591 11.75L3.25953 11.7502L3.42516 11.4419L3.42473 11.4416L3.2591 11.75ZM3.63077 11.6269L3.46166 11.4682L3.22217 11.7234L3.39127 11.8821L3.63077 11.6269ZM4.37106 11.9164C4.10557 11.9165 3.83701 11.8197 3.63052 11.6266L3.39151 11.8823C3.66643 12.1393 4.02193 12.2666 4.37128 12.2664L4.37106 11.9164ZM4.7906 11.833C4.65611 11.8884 4.51341 11.9166 4.37142 11.9164L4.37093 12.2664C4.5594 12.2666 4.74756 12.2293 4.92401 12.1565L4.7906 11.833ZM5.3214 12.4586C5.17085 12.3178 5.07421 12.1409 5.02708 11.9523L4.68753 12.0372C4.74954 12.2853 4.87829 12.5234 5.08228 12.7142L5.3214 12.4586ZM5.49069 12.6175L5.32159 12.4588L5.08209 12.714L5.25119 12.8727L5.49069 12.6175ZM6.23099 12.907C5.96502 12.9072 5.69696 12.8103 5.49045 12.6173L5.25143 12.8729C5.52632 13.1299 5.88131 13.2572 6.2312 13.257L6.23099 12.907ZM6.82615 12.7299C6.64673 12.8469 6.43826 12.9072 6.23126 12.907L6.23093 13.257C6.50533 13.2573 6.78046 13.1776 7.01737 13.023L6.82615 12.7299ZM7.36547 13.2739C7.23158 13.1484 7.14185 12.9926 7.08866 12.8239L6.75486 12.9291C6.82347 13.1468 6.9424 13.3571 7.12617 13.5293L7.36547 13.2739ZM7.53467 13.4326L7.36557 13.274L7.12607 13.5292L7.29518 13.6879L7.53467 13.4326ZM8.27454 13.7221C8.00893 13.7223 7.74046 13.6254 7.53456 13.4325L7.29528 13.688C7.56978 13.9451 7.92537 14.0724 8.27476 14.0721L8.27454 13.7221ZM9.05154 13.3971C8.84217 13.6127 8.55771 13.7223 8.27477 13.7221L8.27453 14.0721C8.64651 14.0724 9.02345 13.9284 9.3026 13.641L9.05154 13.3971ZM9.78605 12.6407L9.05152 13.3971L9.30262 13.6409L10.0372 12.8845L9.78605 12.6407ZM11.0275 13.5442L10.0296 12.6333L9.79363 12.8919L10.7916 13.8027L11.0275 13.5442ZM11.7573 13.825C11.4962 13.8256 11.2325 13.7317 11.0276 13.5443L10.7914 13.8026C11.0643 14.0521 11.4138 14.1757 11.758 14.175L11.7573 13.825ZM12.5433 13.4906C12.3334 13.7121 12.0449 13.8256 11.758 13.825L11.7573 14.175C12.1354 14.1758 12.5177 14.0265 12.7974 13.7313L12.5433 13.4906ZM12.7025 13.3223L12.5433 13.4906L12.7975 13.7312L12.9567 13.5629L12.7025 13.3223ZM12.9409 12.896C12.8955 13.0529 12.8183 13.1997 12.7024 13.3225L12.9569 13.5627C13.116 13.3942 13.2184 13.1962 13.2771 12.9933L12.9409 12.896ZM13.6133 13.1671L13.2268 12.8152L12.9912 13.074L13.3777 13.4259L13.6133 13.1671ZM14.3431 13.4471C14.0822 13.4473 13.8187 13.3538 13.6133 13.167L13.3778 13.426C13.651 13.6744 13.9998 13.7974 14.3434 13.7971L14.3431 13.4471ZM15.1305 13.112C14.9205 13.3337 14.631 13.4473 14.3434 13.4471L14.3431 13.7971C14.7213 13.7974 15.1046 13.6483 15.3846 13.3527L15.1305 13.112ZM15.2886 12.9443L15.1302 13.1124L15.3849 13.3524L15.5433 13.1843L15.2886 12.9443ZM15.5601 12.3664C15.5327 12.5767 15.4443 12.7802 15.289 12.9438L15.5429 13.1847C15.7535 12.9629 15.871 12.6889 15.9072 12.4116L15.5601 12.3664ZM16.0434 12.2573C15.9583 12.2573 15.87 12.243 15.7765 12.2193L15.6908 12.5587C15.8013 12.5866 15.9198 12.6073 16.0434 12.6073V12.2573ZM16.83 11.9223C16.6197 12.1439 16.3311 12.2573 16.0434 12.2573V12.6073C16.4215 12.6073 16.8037 12.4584 17.0839 12.1632L16.83 11.9223ZM16.9886 11.7544L16.8298 11.9226L17.0841 12.1629L17.243 11.9948L16.9886 11.7544ZM17.2729 11.0425C17.2733 11.2959 17.1789 11.5533 16.9887 11.7544L17.2429 11.9949C17.4968 11.7266 17.6234 11.3821 17.6229 11.042L17.2729 11.0425ZM17.2432 10.8069C17.2619 10.8888 17.2729 10.9669 17.2729 11.0422H17.6229C17.6229 10.9334 17.607 10.8282 17.5843 10.7289L17.2432 10.8069ZM18.034 10.2746C17.8611 10.4576 17.6319 10.5629 17.3911 10.5944L17.4364 10.9414C17.7478 10.9007 18.0541 10.7631 18.2885 10.5149L18.034 10.2746ZM18.1934 10.1061L18.0341 10.2744L18.2883 10.515L18.4476 10.3467L18.1934 10.1061ZM18.4775 9.39379C18.4775 9.64782 18.3835 9.90525 18.1934 10.1062L18.4476 10.3467C18.7016 10.0782 18.8275 9.73371 18.8275 9.39379H18.4775ZM18.1379 8.62644C18.3637 8.83225 18.4779 9.11431 18.4775 9.39356L18.8275 9.39402C18.828 9.01977 18.675 8.64239 18.3736 8.36774L18.1379 8.62644ZM17.84 8.35506L18.1379 8.62646L18.3736 8.36772L18.0757 8.09632L17.84 8.35506ZM20.5178 5.17542L17.8288 8.10741L18.0868 8.34398L20.7758 5.41199L20.5178 5.17542ZM20.825 4.35513C20.8246 4.65188 20.7259 4.94786 20.5177 5.1756L20.7759 5.41181C21.0505 5.11163 21.1745 4.72806 21.175 4.35558L20.825 4.35513ZM2.91227 9.48116C3.0556 9.61511 3.23834 9.68015 3.4219 9.6807L3.42294 9.3307C3.32159 9.3304 3.22565 9.29498 3.15125 9.22544L2.91227 9.48116ZM2.74334 9.32311L2.9122 9.4811L3.15132 9.22551L2.98245 9.06753L2.74334 9.32311ZM2.51289 8.79311C2.51351 8.98774 2.58951 9.17968 2.74355 9.32331L2.98224 9.06733C2.9026 8.99307 2.86322 8.89509 2.86289 8.79201L2.51289 8.79311ZM2.71786 8.28733C2.58027 8.42892 2.51351 8.60945 2.51289 8.79197L2.86289 8.79315C2.86322 8.69646 2.89778 8.6044 2.96886 8.53126L2.71786 8.28733ZM4.42004 6.53558L2.71785 8.28734L2.96887 8.53125L4.67106 6.77949L4.42004 6.53558ZM4.95599 6.31111C4.7601 6.31136 4.56595 6.38545 4.42005 6.53557L4.67104 6.7795C4.74694 6.70141 4.84873 6.66124 4.95643 6.66111L4.95599 6.31111ZM5.46598 6.51052C5.32229 6.37704 5.14035 6.31141 4.9565 6.31111L4.95593 6.66111C5.05614 6.66127 5.15193 6.69649 5.22777 6.76695L5.46598 6.51052ZM5.63496 6.66949L5.46679 6.51128L5.22696 6.76619L5.39513 6.92441L5.63496 6.66949ZM5.86457 7.1994C5.86438 7.13235 5.84562 7.06627 5.82646 7.01392C5.80639 6.95907 5.78072 6.9057 5.75672 6.86049C5.7325 6.81485 5.70852 6.77479 5.69066 6.74622C5.68168 6.73185 5.67413 6.72018 5.6687 6.71194C5.66598 6.70781 5.66379 6.70452 5.66221 6.70217C5.66142 6.701 5.66078 6.70005 5.6603 6.69935C5.66006 6.699 5.65986 6.69871 5.65971 6.69848C5.65963 6.69837 5.65956 6.69827 5.65951 6.69819C5.65948 6.69814 5.65945 6.69811 5.65943 6.69807C5.65942 6.69806 5.6594 6.69804 5.6594 6.69803C5.65938 6.69801 5.65937 6.69799 5.51504 6.79695C5.37071 6.89592 5.3707 6.8959 5.37069 6.89588C5.37068 6.89588 5.37067 6.89586 5.37067 6.89585C5.37065 6.89583 5.37065 6.89582 5.37064 6.89581C5.37062 6.89579 5.37062 6.89578 5.37063 6.89579C5.37064 6.89581 5.37069 6.89588 5.37078 6.89602C5.37096 6.89629 5.3713 6.89679 5.37179 6.89751C5.37275 6.89895 5.3743 6.90126 5.37635 6.90437C5.38044 6.91059 5.38649 6.91992 5.39384 6.93169C5.40864 6.95538 5.42821 6.98811 5.44757 7.02458C5.46715 7.06148 5.48509 7.09952 5.49778 7.13421C5.51138 7.17138 5.51455 7.19293 5.51457 7.20041L5.86457 7.1994ZM5.73211 7.61495C5.81878 7.49157 5.864 7.348 5.86457 7.20058L5.51457 7.19923C5.51428 7.27501 5.49131 7.34886 5.4457 7.41378L5.73211 7.61495ZM3.75172 9.40238C3.87715 9.52442 3.87716 9.52441 3.87717 9.5244C3.87718 9.52438 3.8772 9.52436 3.87723 9.52433C3.87729 9.52427 3.87737 9.52419 3.87748 9.52408C3.8777 9.52385 3.87804 9.52351 3.87848 9.52305C3.87936 9.52215 3.88067 9.5208 3.8824 9.51902C3.88587 9.51546 3.89101 9.51017 3.89772 9.50328C3.91113 9.48949 3.93081 9.46926 3.95586 9.44352C4.00595 9.39204 4.07752 9.31848 4.16341 9.2302C4.3352 9.05364 4.56432 8.81816 4.79361 8.58251C5.02291 8.34686 5.25238 8.11103 5.42487 7.93377C5.59901 7.75483 5.71208 7.63868 5.71178 7.63897L5.46603 7.38976C5.46148 7.39425 4.99969 7.86883 4.54277 8.33843C4.31347 8.57408 4.08435 8.80956 3.91256 8.98613C3.82666 9.07441 3.75509 9.14796 3.705 9.19945C3.67996 9.22519 3.66028 9.24541 3.64686 9.2592C3.64016 9.2661 3.63501 9.27138 3.63155 9.27495C3.62981 9.27673 3.6285 9.27808 3.62762 9.27898C3.62718 9.27943 3.62685 9.27977 3.62663 9.28C3.62652 9.28012 3.62643 9.2802 3.62638 9.28026C3.62635 9.28029 3.62633 9.28031 3.62631 9.28032C3.6263 9.28034 3.62629 9.28035 3.75172 9.40238ZM3.42317 9.6807C3.57451 9.68005 3.72443 9.63483 3.85187 9.54589L3.65157 9.25887C3.58448 9.30569 3.5044 9.33035 3.42168 9.3307L3.42317 9.6807ZM4.6565 11.1309C4.58092 11.2085 4.47927 11.2487 4.37115 11.249L4.37221 11.599C4.56769 11.5984 4.7615 11.5248 4.90725 11.3751L4.6565 11.1309ZM6.92619 8.79425L4.65635 11.1311L4.90741 11.3749L7.17725 9.03811L6.92619 8.79425ZM7.03219 8.53214C7.03187 8.62857 6.99704 8.72105 6.92597 8.79448L7.17747 9.03788C7.31422 8.89659 7.38157 8.71609 7.38219 8.53331L7.03219 8.53214ZM6.91331 8.25795C6.99232 8.33163 7.03189 8.4298 7.03219 8.53323L7.38219 8.53222C7.38163 8.33755 7.30566 8.14526 7.15201 8.00198L6.91331 8.25795ZM6.74381 8.0989L6.91291 8.25758L7.15241 8.00235L6.9833 7.84367L6.74381 8.0989ZM6.47261 7.99389C6.5736 7.99405 6.66916 8.02926 6.74417 8.09925L6.98294 7.84333C6.83936 7.70937 6.65711 7.64419 6.47318 7.64389L6.47261 7.99389ZM6.20086 8.10207C6.27586 8.03094 6.37219 7.99405 6.47317 7.99389L6.47261 7.64389C6.285 7.64419 6.10188 7.71355 5.96 7.84813L6.20086 8.10207ZM3.79235 10.3269C3.9177 10.449 3.91771 10.449 3.91773 10.4489C3.91775 10.4489 3.91777 10.4489 3.91781 10.4489C3.91787 10.4488 3.91798 10.4487 3.91812 10.4485C3.91839 10.4483 3.9188 10.4478 3.91935 10.4473C3.92044 10.4462 3.92207 10.4445 3.92421 10.4423C3.92851 10.4379 3.93488 10.4313 3.94319 10.4228C3.95981 10.4057 3.9842 10.3807 4.01524 10.3488C4.07732 10.2851 4.16603 10.194 4.27254 10.0847C4.48556 9.86592 4.76979 9.57405 5.05462 9.28147C5.33944 8.9889 5.62488 8.6956 5.84033 8.47404C5.94804 8.36326 6.0383 8.27037 6.10224 8.20445C6.1615 8.14336 6.20641 8.09709 6.21374 8.08848L5.94712 7.86173C5.94967 7.85873 5.9195 7.89016 5.85102 7.96075C5.78722 8.02652 5.69708 8.11929 5.58939 8.23004C5.37403 8.45153 5.08864 8.74477 4.80383 9.03733C4.51903 9.32988 4.23482 9.62174 4.0218 9.84046C3.9153 9.94982 3.8266 10.0409 3.76452 10.1046C3.73348 10.1365 3.7091 10.1615 3.69247 10.1786C3.68416 10.1871 3.67779 10.1937 3.6735 10.1981C3.67135 10.2003 3.66972 10.2019 3.66863 10.2031C3.66809 10.2036 3.66768 10.204 3.6674 10.2043C3.66727 10.2045 3.66716 10.2046 3.66709 10.2046C3.66706 10.2047 3.66703 10.2047 3.66702 10.2047C3.667 10.2047 3.66699 10.2047 3.79235 10.3269ZM3.81238 10.7101C3.81238 10.6142 3.84704 10.522 3.91814 10.4485L3.66655 10.2052C3.53 10.3464 3.46238 10.5268 3.46238 10.7101H3.81238ZM3.93107 10.9851C3.85207 10.9112 3.81238 10.8127 3.81238 10.7101H3.46238C3.46238 10.9052 3.53911 11.0976 3.6919 11.2406L3.93107 10.9851ZM3.895 10.9591L3.89457 10.9589L3.72841 11.2669L3.72884 11.2671L3.895 10.9591ZM4.10069 11.1439L3.93159 10.9854L3.69225 11.2408L3.86135 11.3993L4.10069 11.1439ZM4.37197 11.249C4.27115 11.2488 4.17545 11.2135 4.10025 11.1435L3.86178 11.3997C4.00518 11.5332 4.18729 11.5987 4.3714 11.599L4.37197 11.249ZM6.23205 12.5897C6.42765 12.5891 6.62159 12.5153 6.76717 12.3652L6.51588 12.1215C6.4406 12.1992 6.33915 12.2394 6.23108 12.2397L6.23205 12.5897ZM5.72152 12.39C5.86496 12.5238 6.04715 12.5894 6.23128 12.5897L6.23185 12.2397C6.13106 12.2395 6.03543 12.2042 5.96028 12.1341L5.72152 12.39ZM5.55184 12.2314L5.72141 12.3899L5.96039 12.1342L5.79082 11.9757L5.55184 12.2314ZM5.3218 11.7008C5.3218 11.8961 5.39864 12.0882 5.55184 12.2314L5.79082 11.9757C5.71137 11.9014 5.6718 11.8032 5.6718 11.7008H5.3218ZM5.48649 11.244C5.37921 11.3753 5.3218 11.5351 5.3218 11.7008H5.6718C5.6718 11.6173 5.70032 11.5354 5.7575 11.4655L5.48649 11.244ZM7.07663 9.60631L5.49648 11.2328L5.74751 11.4767L7.32767 9.85019L7.07663 9.60631ZM7.58078 9.40848C7.39951 9.40848 7.22452 9.47416 7.08585 9.59748L7.31845 9.85902C7.39298 9.79273 7.48518 9.75848 7.58078 9.75848V9.40848ZM8.09083 9.60792C7.94725 9.47396 7.765 9.40878 7.58107 9.40848L7.5805 9.75848C7.68149 9.75864 7.77705 9.79385 7.85207 9.86383L8.09083 9.60792ZM8.26059 9.76677L8.09102 9.6081L7.85188 9.86366L8.02145 10.0223L8.26059 9.76677ZM8.49055 10.2966C8.48998 10.1018 8.41336 9.90977 8.2606 9.76679L8.02143 10.0223C8.10047 10.0963 8.14025 10.1947 8.14055 10.2976L8.49055 10.2966ZM8.28595 10.8021C8.42193 10.6613 8.48993 10.481 8.49055 10.2977L8.14055 10.2965C8.14023 10.3929 8.1051 10.4856 8.0342 10.559L8.28595 10.8021ZM6.76703 12.3653L8.28559 10.8025L8.03457 10.5586L6.51602 12.1214L6.76703 12.3653ZM9.51843 11.9497L8.5596 12.9366L8.81063 13.1805L9.76946 12.1936L9.51843 11.9497ZM9.6245 11.6875C9.62412 11.7843 9.5892 11.8767 9.5183 11.9499L9.76959 12.1935C9.90643 12.0524 9.97378 11.8718 9.97449 11.6889L9.6245 11.6875ZM9.5058 11.4135C9.58458 11.4872 9.62417 11.5855 9.62449 11.6888L9.97449 11.6877C9.97388 11.4933 9.898 11.3012 9.74498 11.1579L9.5058 11.4135ZM9.33633 11.2551L9.5059 11.4136L9.74489 11.1578L9.57532 10.9994L9.33633 11.2551ZM9.06487 11.1496C9.16548 11.1497 9.26138 11.185 9.3363 11.255L9.57535 10.9994C9.43167 10.865 9.2489 10.7999 9.06544 10.7996L9.06487 11.1496ZM8.77984 11.2679C8.8558 11.19 8.95769 11.1497 9.06542 11.1496L9.06489 10.7996C8.86903 10.7999 8.67499 10.874 8.52914 11.0237L8.77984 11.2679ZM7.82164 12.2546L8.78003 11.2677L8.52895 11.0239L7.57056 12.0107L7.82164 12.2546ZM7.71563 12.5165C7.71592 12.4197 7.75082 12.3274 7.82158 12.2546L7.57061 12.0107C7.43356 12.1517 7.36619 12.3324 7.36563 12.5154L7.71563 12.5165ZM7.83475 12.7909C7.75575 12.717 7.71592 12.6184 7.71563 12.5154L7.36563 12.5164C7.36619 12.7112 7.44277 12.9034 7.59557 13.0465L7.83475 12.7909ZM8.00393 12.9495L7.83483 12.791L7.59549 13.0464L7.76459 13.2049L8.00393 12.9495ZM8.27521 13.0548C8.17441 13.0546 8.07879 13.0193 8.00364 12.9492L7.76488 13.2051C7.90832 13.339 8.09051 13.4045 8.27464 13.4048L8.27521 13.0548ZM8.55953 12.9367C8.48424 13.0143 8.38254 13.0545 8.27443 13.0548L8.27541 13.4048C8.4709 13.4043 8.66506 13.3305 8.81071 13.1804L8.55953 12.9367ZM17.9498 9.89292C18.0824 9.75272 18.1483 9.5751 18.1486 9.39493L17.7986 9.39443C17.7984 9.48839 17.7647 9.57927 17.6955 9.65241L17.9498 9.89292ZM17.791 10.061L17.9498 9.89286L17.6955 9.65247L17.5366 9.82058L17.791 10.061ZM17.2486 10.2922C17.4474 10.2919 17.6448 10.2152 17.7908 10.0612L17.5368 9.82039C17.461 9.90034 17.3574 9.94201 17.2481 9.94218L17.2486 10.2922ZM16.7453 10.0988C16.888 10.229 17.0676 10.2919 17.2481 10.2922L17.2486 9.94218C17.1496 9.94201 17.0555 9.90803 16.9811 9.8402L16.7453 10.0988ZM14.0681 7.65719L16.7452 10.0988L16.9811 9.84022L14.3039 7.39859L14.0681 7.65719ZM13.8501 8.13704L14.3131 7.64822L14.059 7.40755L13.596 7.89637L13.8501 8.13704ZM16.7067 10.5055L13.8411 7.88751L13.605 8.14591L16.4706 10.7639L16.7067 10.5055ZM16.9438 11.0416C16.9427 10.8444 16.864 10.6491 16.7066 10.5055L16.4706 10.7639C16.552 10.8382 16.5932 10.9387 16.5938 11.0437L16.9438 11.0416ZM16.7452 11.541C16.8778 11.4005 16.9427 11.2234 16.9438 11.0438L16.5938 11.0415C16.5932 11.1371 16.5594 11.2279 16.4906 11.3009L16.7452 11.541ZM16.5869 11.7091L16.7453 11.541L16.4906 11.3009L16.3322 11.4691L16.5869 11.7091ZM16.0446 11.9405C16.2431 11.9399 16.4404 11.8636 16.5865 11.7095L16.3325 11.4687C16.2569 11.5485 16.1533 11.5901 16.0436 11.5905L16.0446 11.9405ZM15.5413 11.7472C15.6834 11.877 15.8634 11.9399 16.0436 11.9405L16.0446 11.5905C15.9453 11.5902 15.8508 11.5558 15.7773 11.4888L15.5413 11.7472ZM12.8636 9.30572L15.5414 11.7473L15.7772 11.4887L13.0994 9.04709L12.8636 9.30572ZM12.6461 9.78549L13.1086 9.29667L12.8544 9.05614L12.3919 9.54496L12.6461 9.78549ZM15.0134 11.7032L12.6369 9.53592L12.4011 9.79453L14.7776 11.9618L15.0134 11.7032ZM15.2437 12.2328C15.2437 12.0378 15.166 11.8474 15.0157 11.7053L14.7753 11.9597C14.8541 12.0342 14.8937 12.132 14.8937 12.2328H15.2437ZM15.0459 12.7309C15.1785 12.5906 15.2437 12.4128 15.2437 12.2328H14.8937C14.8937 12.3271 14.8602 12.4178 14.7915 12.4904L15.0459 12.7309ZM14.887 12.899L15.0459 12.7309L14.7915 12.4905L14.6327 12.6586L14.887 12.899ZM14.3445 13.1304C14.5433 13.1298 14.7412 13.0534 14.8871 12.8989L14.6326 12.6586C14.5575 12.7382 14.4537 12.7801 14.3435 12.7804L14.3445 13.1304ZM13.841 12.9374C13.9833 13.0668 14.1627 13.1298 14.3435 13.1304L14.3445 12.7804C14.2448 12.7801 14.1506 12.7458 14.0765 12.6784L13.841 12.9374ZM11.4693 10.7778L13.841 12.9373L14.0766 12.6785L11.7049 10.5191L11.4693 10.7778ZM11.5866 10.8234H11.5871V10.4734H11.5866V10.8234ZM11.4632 10.7725L11.4636 10.7729L11.7097 10.524L11.7093 10.5236L11.4632 10.7725ZM11.252 11.2578L11.7136 10.7681L11.4589 10.528L10.9973 11.0177L11.252 11.2578ZM11.2425 11.0084L11.242 11.0079L11.0073 11.2675L11.0077 11.2679L11.2425 11.0084ZM11.2534 11.0185L11.2446 11.0103L11.0057 11.266L11.0145 11.2743L11.2534 11.0185ZM12.4397 12.0982L11.2518 11.017L11.0162 11.2759L12.2041 12.357L12.4397 12.0982ZM12.6571 12.6119C12.6565 12.4247 12.5839 12.2441 12.4465 12.1047L12.1973 12.3505C12.2703 12.4245 12.3068 12.5173 12.3071 12.613L12.6571 12.6119ZM12.4593 13.1092C12.5919 12.9688 12.6565 12.7919 12.6571 12.613L12.3071 12.6119C12.3068 12.706 12.2735 12.7961 12.2049 12.8688L12.4593 13.1092ZM12.3005 13.2774L12.4593 13.1091L12.2048 12.8689L12.0459 13.0372L12.3005 13.2774ZM11.7592 13.5085C11.9573 13.5079 12.1541 13.4318 12.3002 13.2777L12.0462 13.0369C11.9705 13.1168 11.8674 13.1581 11.7581 13.1585L11.7592 13.5085ZM11.2559 13.315C11.3983 13.4452 11.5779 13.5079 11.7581 13.5085L11.7592 13.1585C11.6599 13.1582 11.5658 13.1241 11.4919 13.0566L11.2559 13.315ZM10.2216 12.3706L11.2559 13.315L11.4919 13.0566L10.4577 12.1121L10.2216 12.3706ZM10.3049 11.6886C10.3049 11.8473 10.2628 12.0089 10.1842 12.161L10.4951 12.3217C10.5965 12.1255 10.6549 11.9092 10.6549 11.6886H10.3049ZM9.97513 10.931C10.1946 11.1363 10.3053 11.4137 10.3049 11.6884L10.6549 11.6889C10.6554 11.3204 10.5069 10.9492 10.2142 10.6754L9.97513 10.931ZM9.80555 10.7723L9.97512 10.9309L10.2143 10.6754L10.0447 10.5167L9.80555 10.7723ZM9.0661 10.4828C9.33145 10.4825 9.59952 10.5794 9.80553 10.7722L10.0447 10.5167C9.77033 10.2599 9.4152 10.1323 9.06562 10.1328L9.0661 10.4828ZM9.04709 10.4849C9.0544 10.484 9.05851 10.4835 9.06215 10.4831C9.06549 10.4828 9.06641 10.4828 9.06586 10.4828V10.1328C9.03893 10.1328 9.01389 10.1363 9.00215 10.1378L9.04709 10.4849ZM9.0046 10.4893C9.02182 10.4883 9.03811 10.4861 9.04709 10.4849L9.00215 10.1378C8.99092 10.1393 8.98711 10.1397 8.98447 10.1399L9.0046 10.4893ZM8.82136 10.2859C8.82126 10.2868 8.81953 10.2999 8.81953 10.3146H9.16953C9.16953 10.3199 9.16922 10.3239 9.16907 10.3256C9.16895 10.3271 9.16881 10.3281 9.16903 10.3262L8.82136 10.2859ZM8.82086 10.2975C8.82086 10.2922 8.82117 10.2882 8.82132 10.2865C8.82145 10.285 8.82158 10.284 8.82136 10.2859L9.16903 10.3262C9.16914 10.3253 9.17086 10.3122 9.17086 10.2975H8.82086ZM8.61067 9.41159C8.46618 9.51032 8.46617 9.51031 8.46616 9.51029C8.46616 9.51029 8.46615 9.51028 8.46614 9.51027C8.46614 9.51027 8.46614 9.51027 8.46615 9.51027C8.46616 9.51029 8.46619 9.51034 8.46625 9.51043C8.46637 9.5106 8.46657 9.5109 8.46686 9.51133C8.46745 9.5122 8.46839 9.51359 8.46965 9.51547C8.47218 9.51924 8.476 9.52498 8.48095 9.53251C8.49084 9.54758 8.50517 9.56974 8.52244 9.59743C8.5571 9.65297 8.60312 9.72996 8.64889 9.81609C8.69491 9.90266 8.73921 9.99574 8.77161 10.0838C8.80501 10.1746 8.82093 10.2474 8.82086 10.2973L9.17086 10.2978C9.17101 10.1868 9.13889 10.0685 9.1001 9.96302C9.06032 9.85484 9.00829 9.74653 8.95795 9.65182C8.90738 9.55667 8.85702 9.47247 8.81938 9.41215C8.80051 9.38191 8.78472 9.35747 8.77352 9.34042C8.76792 9.33189 8.76347 9.3252 8.76034 9.32054C8.75878 9.31821 8.75755 9.31639 8.75668 9.3151C8.75624 9.31446 8.7559 9.31394 8.75564 9.31357C8.75551 9.31338 8.75541 9.31323 8.75533 9.31311C8.75529 9.31305 8.75525 9.313 8.75522 9.31296C8.75521 9.31293 8.75519 9.31291 8.75518 9.3129C8.75517 9.31288 8.75515 9.31285 8.61067 9.41159ZM8.322 9.38116L8.4911 9.53938L8.73023 9.2838L8.56113 9.12559L8.322 9.38116ZM7.78255 9.11034C7.97943 9.14672 8.16787 9.23702 8.32203 9.38119L8.5611 9.12556C8.35572 8.9335 8.10549 8.81408 7.84613 8.76617L7.78255 9.11034ZM7.71297 8.53326C7.71297 8.64758 7.69074 8.76433 7.64958 8.87925L7.97909 8.99726C8.032 8.84953 8.06297 8.69285 8.06297 8.53326H7.71297ZM7.38329 7.77564C7.60254 7.98051 7.71297 8.25812 7.71297 8.53326H8.06297C8.06297 8.16515 7.91519 7.79364 7.62226 7.51991L7.38329 7.77564ZM7.21393 7.61671L7.38303 7.77539L7.62252 7.52016L7.45342 7.36148L7.21393 7.61671ZM6.47408 7.32702C6.73948 7.32682 7.00757 7.4238 7.21417 7.61693L7.45318 7.36125C7.17837 7.10436 6.82342 6.97676 6.47382 6.97702L6.47408 7.32702ZM6.42767 7.33147C6.45238 7.32828 6.46405 7.32702 6.47395 7.32702V6.97702C6.4378 6.97702 6.40382 6.98165 6.38286 6.98435L6.42767 7.33147ZM6.38234 7.33666C6.39923 7.33517 6.41548 7.33305 6.42767 7.33147L6.38286 6.98435C6.36951 6.98608 6.36022 6.98725 6.3515 6.98802L6.38234 7.33666ZM5.86594 6.44266C6.07543 6.63893 6.18362 6.90263 6.192 7.16787L6.54183 7.15681C6.53068 6.80437 6.3866 6.45086 6.10524 6.18724L5.86594 6.44266ZM5.81059 6.31472V6.31495H6.16059V6.31472H5.81059ZM5.69731 6.28445L5.86594 6.44243L6.10523 6.18701L5.9366 6.02903L5.69731 6.28445ZM4.95736 5.99443C5.22275 5.99423 5.4908 6.0912 5.69738 6.28452L5.93653 6.02896C5.6617 5.77178 5.30671 5.64417 4.9571 5.64443L4.95736 5.99443ZM4.18034 6.31946C4.38973 6.10388 4.6737 5.99423 4.9571 5.99443L4.95735 5.64443C4.58482 5.64417 4.2084 5.78823 3.92927 6.0756L4.18034 6.31946ZM3.77852 6.73299L4.18031 6.31949L3.9293 6.07558L3.5275 6.48909L3.77852 6.73299ZM1.76044 5.2478L3.54036 6.74496L3.76566 6.47712L1.98574 4.97995L1.76044 5.2478ZM1.50582 4.70383C1.50644 4.90659 1.59161 5.10525 1.76019 5.24759L1.98599 4.98017C1.89871 4.90647 1.85614 4.80657 1.85582 4.70276L1.50582 4.70383ZM1.6904 4.22726C1.56567 4.36501 1.50639 4.53288 1.50582 4.70271L1.85582 4.70389C1.85611 4.61685 1.88551 4.53324 1.94984 4.46219L1.6904 4.22726ZM3.56848 2.153L1.69039 4.22727L1.94985 4.46218L3.82793 2.38791L3.56848 2.153ZM3.94689 1.89913C3.79761 1.95905 3.66374 2.04758 3.56836 2.15312L3.82805 2.38778C3.88173 2.32837 3.96833 2.26766 4.07725 2.22395L3.94689 1.89913ZM4.42501 1.80653C4.26522 1.8063 4.09649 1.83914 3.94693 1.89912L4.07721 2.22397C4.18586 2.18039 4.31025 2.15637 4.42452 2.15653L4.42501 1.80653ZM4.81416 1.87989C4.69941 1.83108 4.56349 1.80653 4.42477 1.80653V2.15653C4.52472 2.15653 4.61278 2.17458 4.67717 2.20197L4.81416 1.87989ZM5.84464 2.31352L4.81354 1.87963L4.67779 2.20223L5.70888 2.63612L5.84464 2.31352ZM6.74458 2.47125C6.42042 2.47021 6.10724 2.42266 5.84392 2.31322L5.70959 2.63642C6.02761 2.76859 6.38935 2.82012 6.74347 2.82124L6.74458 2.47125ZM7.64415 2.31321C7.38077 2.42263 7.068 2.47018 6.74345 2.47125L6.7446 2.82124C7.09911 2.82008 7.46041 2.76854 7.77843 2.63643L7.64415 2.31321ZM8.67404 1.87982L7.64341 2.31352L7.77917 2.63612L8.80979 2.20242L8.67404 1.87982ZM9.37956 1.7563C9.12465 1.75535 8.85965 1.79997 8.67276 1.88037L8.81107 2.20188C8.94192 2.14559 9.15636 2.10547 9.37826 2.10629L9.37956 1.7563ZM10.1384 1.9043C9.95292 1.81093 9.65914 1.75461 9.37786 1.7563L9.37996 2.10629C9.62594 2.10482 9.86028 2.15613 9.98109 2.21694L10.1384 1.9043ZM10.4125 2.0391C10.3266 1.99664 10.2341 1.95124 10.1369 1.90351L9.98267 2.21772C10.08 2.26546 10.172 2.31066 10.2574 2.35287L10.4125 2.0391ZM9.38357 3.06847L10.4347 2.33981L10.2353 2.05217L9.18417 2.78083L9.38357 3.06847ZM8.93957 3.907C8.93917 3.58753 9.09393 3.26934 9.3836 3.06845L9.18414 2.78085C8.79833 3.04841 8.58903 3.47517 8.58957 3.90744L8.93957 3.907ZM9.14635 4.51853C9.00708 4.33459 8.93921 4.11868 8.93957 3.90752L8.58957 3.90692C8.58908 4.19332 8.68113 4.48391 8.86732 4.72981L9.14635 4.51853ZM8.87828 4.74291L8.87871 4.74338L9.13496 4.50497L9.13453 4.50451L8.87828 4.74291ZM9.28493 4.70229L9.1461 4.5183L8.86671 4.72912L9.00554 4.9131L9.28493 4.70229ZM10.2312 5.15692C9.8689 5.15614 9.51157 4.99942 9.28438 4.70156L9.00609 4.91383C9.30616 5.30723 9.77102 5.50593 10.2305 5.50692L10.2312 5.15692ZM10.8208 4.99886C10.6393 5.10626 10.4341 5.15692 10.2309 5.15692V5.50692C10.4917 5.50692 10.7592 5.44194 10.999 5.30009L10.8208 4.99886ZM11.4493 4.62661L10.8207 4.9989L10.9991 5.30005L11.6277 4.92776L11.4493 4.62661ZM12.0613 4.47691C11.8367 4.47592 11.6098 4.52983 11.4481 4.62733L11.6289 4.92704C11.7236 4.86992 11.8839 4.82613 12.0597 4.82691L12.0613 4.47691ZM12.778 4.68075C12.5984 4.5506 12.3224 4.47541 12.0595 4.47691L12.0615 4.82691C12.2691 4.82572 12.4672 4.88774 12.5726 4.96415L12.778 4.68075ZM14.5153 5.9091L12.7763 4.67956L12.5742 4.96534L14.3133 6.19488L14.5153 5.9091ZM15.8991 7.02259C15.5443 6.69848 14.9083 6.1867 14.5153 5.90906L14.3133 6.19492C14.6944 6.46416 15.3191 6.96677 15.663 7.28098L15.8991 7.02259ZM17.9118 8.85783L15.899 7.02247L15.6631 7.2811L17.676 9.11646L17.9118 8.85783ZM18.1486 9.39413C18.1479 9.19619 18.0689 9.00151 17.912 8.858L17.6758 9.11629C17.7572 9.19074 17.7982 9.2906 17.7986 9.39522L18.1486 9.39413ZM20.0131 4.72925L17.3316 7.65339L17.5896 7.88994L20.2711 4.96581L20.0131 4.72925ZM20.1457 4.35592C20.1459 4.50539 20.0914 4.64497 20.0139 4.72843L20.2703 4.96663C20.4164 4.8094 20.496 4.58046 20.4957 4.35541L20.1457 4.35592ZM20.0396 4.02125C20.103 4.10073 20.1457 4.22235 20.1457 4.35567H20.4957C20.4957 4.15406 20.4325 3.95255 20.3132 3.80298L20.0396 4.02125ZM18.4546 2.02115L20.0393 4.0208L20.3136 3.80342L18.7289 1.80377L18.4546 2.02115ZM18.056 1.84249C18.2179 1.84216 18.3727 1.91599 18.4536 2.01992L18.7298 1.80499C18.5739 1.60459 18.3106 1.49197 18.0553 1.49249L18.056 1.84249ZM17.8069 1.90863C17.8753 1.86651 17.9614 1.84249 18.0556 1.84249V1.49249C17.903 1.49249 17.7523 1.53127 17.6234 1.61057L17.8069 1.90863ZM16.261 2.85701L17.8067 1.90876L17.6236 1.61043L16.078 2.55868L16.261 2.85701ZM15.1002 3.15516C15.4989 3.15324 15.9127 3.068 16.2602 2.85753L16.0789 2.55816C15.7995 2.72737 15.4524 2.80346 15.0985 2.80516L15.1002 3.15516ZM14.1824 2.96551C14.4694 3.1014 14.7874 3.15442 15.0989 3.15516L15.0997 2.80516C14.8255 2.80451 14.5612 2.75761 14.3322 2.64918L14.1824 2.96551ZM12.6688 2.24245L14.1819 2.96526L14.3328 2.64944L12.8197 1.92663L12.6688 2.24245ZM12.2529 2.16292C12.4216 2.16213 12.5739 2.19624 12.6676 2.24187L12.8209 1.92721C12.6678 1.85265 12.4597 1.81195 12.2512 1.81293L12.2529 2.16292ZM11.6355 2.32355C11.7587 2.23564 12.0056 2.16111 12.2507 2.16292L12.2533 1.81293C11.9553 1.81073 11.6305 1.89715 11.4322 2.03869L11.6355 2.32355ZM9.77499 3.61279L11.6335 2.32496L11.4342 2.03727L9.57564 3.3251L9.77499 3.61279ZM9.61847 3.90715C9.61908 3.79418 9.67118 3.68505 9.77529 3.61257L9.57534 3.32531C9.37484 3.46487 9.26967 3.68203 9.26848 3.90528L9.61847 3.90715ZM9.69179 4.11998C9.64127 4.0528 9.61882 3.97975 9.61848 3.90542L9.26848 3.90702C9.26915 4.05505 9.31529 4.20165 9.41204 4.33032L9.69179 4.11998ZM9.67536 4.10111L9.6749 4.10065L9.42893 4.34965L9.4294 4.35012L9.67536 4.10111ZM9.83057 4.30409L9.69217 4.12033L9.4126 4.3309L9.551 4.51465L9.83057 4.30409ZM10.2299 4.48878C10.0676 4.48931 9.91175 4.41308 9.83113 4.30484L9.55043 4.5139C9.7052 4.7217 9.97158 4.83963 10.2311 4.83877L10.2299 4.48878ZM10.4692 4.42672C10.4023 4.46641 10.3199 4.4886 10.2302 4.48878L10.2309 4.83877C10.3771 4.83849 10.5219 4.80236 10.6477 4.72779L10.4692 4.42672ZM11.0974 4.05442L10.4693 4.42671L10.6477 4.7278L11.2758 4.35551L11.0974 4.05442ZM12.0597 3.80877C11.7324 3.80972 11.3944 3.87999 11.098 4.05406L11.2752 4.35587C11.5069 4.21983 11.7808 4.15958 12.0607 4.15876L12.0597 3.80877ZM13.1729 4.13659C12.8426 3.90583 12.4447 3.81018 12.0608 3.80877L12.0596 4.15876C12.3893 4.15997 12.7132 4.24237 12.9724 4.4235L13.1729 4.13659ZM14.9123 5.36671L13.1737 4.13717L12.9716 4.42293L14.7102 5.65247L14.9123 5.36671ZM16.361 6.53241C15.9744 6.18047 15.34 5.66972 14.9124 5.36679L14.7101 5.65239C15.126 5.94702 15.7493 6.44881 16.1254 6.79122L16.361 6.53241ZM17.5785 7.64233L16.3611 6.53248L16.1253 6.79114L17.3427 7.90099L17.5785 7.64233Z" fill="#000C26" mask="url(#path-1-outside-1_0_12283)"/>
<path opacity="0.2" d="M17.9735 9.39506C17.9734 9.53212 17.9235 9.66637 17.8226 9.77304L17.6638 9.94116C17.5529 10.0582 17.4024 10.1173 17.2484 10.1176C17.1086 10.1173 16.9718 10.0689 16.8632 9.9699L14.186 7.52827L13.7231 8.01709L16.5886 10.6351C16.708 10.744 16.7679 10.8919 16.7688 11.043C16.7679 11.1806 16.7186 11.3146 16.6179 11.4213L16.4595 11.5894C16.3486 11.7064 16.1982 11.7654 16.0441 11.7658C15.9043 11.7654 15.7671 11.7168 15.6593 11.6184L12.9815 9.17678L12.519 9.6656L14.8955 11.8329C15.01 11.9412 15.0687 12.0853 15.0687 12.2332C15.0687 12.3703 15.0194 12.5046 14.9187 12.611L14.7598 12.7792C14.6494 12.8961 14.4985 12.9553 14.344 12.9557C14.2037 12.9553 14.0669 12.9067 13.9588 12.8083L11.5871 10.6488H11.5866L11.5862 10.6484L11.1246 11.1381L11.1251 11.1385L11.134 11.1468L12.3219 12.228C12.4271 12.3347 12.4816 12.4714 12.4821 12.6128C12.4816 12.7493 12.4327 12.8829 12.3321 12.9894L12.1732 13.1577C12.0623 13.2747 11.9123 13.3334 11.7587 13.3338C11.6189 13.3334 11.4821 13.285 11.3739 13.1862L10.3396 12.2417C10.4296 12.0676 10.4799 11.8786 10.4799 11.689C10.4803 11.3674 10.3508 11.0431 10.0947 10.8035L9.92511 10.6449C9.68492 10.42 9.37331 10.3078 9.06585 10.3082C9.04199 10.3082 9.01792 10.3136 8.99453 10.3149C8.99453 10.3094 8.99585 10.3035 8.99585 10.2979C8.99628 9.97629 8.61066 9.41197 8.61066 9.41197L8.44156 9.25375C8.26179 9.08564 8.04246 8.98078 7.81433 8.93864C7.86136 8.80731 7.88796 8.67059 7.88796 8.53364C7.88796 8.21201 7.75886 7.88746 7.50277 7.64815L7.33367 7.48947C7.09296 7.26446 6.78144 7.15217 6.47394 7.1524C6.43804 7.1524 6.40261 7.15956 6.36691 7.16272C6.35714 6.85388 6.23101 6.54527 5.98558 6.31533V6.3151L5.81695 6.15712C5.57625 5.93187 5.26472 5.81958 4.95722 5.81981C4.62925 5.81958 4.29906 5.94643 4.0548 6.19791L3.653 6.61142L1.87308 5.11426C1.74515 5.00624 1.68129 4.85696 1.68082 4.70368C1.68125 4.57524 1.72558 4.4495 1.82011 4.34511L3.6982 2.27083C3.77273 2.18835 3.88296 2.11373 4.01207 2.06192C4.14117 2.01015 4.28773 1.98172 4.42476 1.98191C4.5441 1.98191 4.65609 2.00321 4.74566 2.04131L5.77675 2.4752C6.06742 2.596 6.40488 2.64555 6.74402 2.64662C7.08355 2.64551 7.42058 2.59597 7.71128 2.4752L8.74191 2.0415C8.90078 1.97316 9.1405 1.93079 9.3789 1.93167C9.64253 1.9301 9.9066 1.98391 10.0598 2.061C10.157 2.10873 10.2493 2.15403 10.335 2.19637L9.28386 2.92503C8.94613 3.15925 8.7641 3.53173 8.76457 3.9076C8.76414 4.15638 8.8441 4.40963 9.00683 4.62455L9.0064 4.62409L9.14523 4.80808C9.40886 5.15371 9.81996 5.33141 10.2309 5.3323C10.4629 5.3323 10.6993 5.27448 10.9099 5.14985L11.5385 4.77757C11.6667 4.70025 11.8603 4.6514 12.0605 4.65229C12.2957 4.65094 12.5328 4.71955 12.6753 4.82283L14.4143 6.05237C14.8013 6.32581 15.4317 6.833 15.781 7.15217L17.7939 8.98752C17.9131 9.0965 17.9731 9.24378 17.9735 9.39506Z" fill="#000C26"/>
</svg>
