<svg width="18" height="20" viewBox="0 0 18 20" fill="none" xmlns="http://www.w3.org/2000/svg">
<path fill-rule="evenodd" clip-rule="evenodd" d="M5.01617e-05 7.81775V17.6142C4.74322e-05 18.2481 0.246803 18.8561 0.685838 19.3037C1.12487 19.7513 1.72008 20.0019 2.34005 20H15.667C16.9555 20 18 18.9318 18 17.6142V7.81775C18 6.49895 16.9566 5.42875 15.667 5.42485H14.1854C14.3897 5.20935 14.5708 4.972 14.7254 4.71689C15.3275 3.68575 15.359 2.40785 14.8085 1.34699C14.3287 0.490233 13.4266 -0.026799 12.4616 0.00186838C11.4119 -0.0323483 10.4001 0.404802 9.69235 1.19832C9.41572 1.49782 9.18258 1.83637 9.00004 2.20363C8.82817 1.83854 8.60676 1.5001 8.34235 1.19832C7.63463 0.404802 6.62283 -0.0323483 5.57312 0.00186838C4.60782 -0.0277342 3.70425 0.485898 3.21928 1.33991C2.66875 2.40077 2.70025 3.67867 3.30235 4.70981C3.457 4.96492 3.63804 5.20227 3.84235 5.41777H2.34005C1.71824 5.41776 1.122 5.67085 0.682967 6.12113C0.243933 6.57142 -0.0017895 7.18189 5.01617e-05 7.81775ZM16.6154 17.6142C16.6154 17.8714 16.5155 18.1181 16.3376 18.3C16.1597 18.4819 15.9185 18.5841 15.667 18.5841H9.69235L9.74081 6.84077H15.6877C16.2045 6.85609 16.6156 7.28905 16.6154 7.81775V17.6142ZM13.6177 2.07619C13.3813 1.65799 12.9329 1.41363 12.4616 1.44611V1.41779C11.7794 1.37621 11.1153 1.652 10.6547 2.16823C9.85158 3.06734 9.69235 4.58945 9.69235 5.44609H10.5647C12.4477 5.44609 13.23 4.56113 13.5277 4.03016C13.8931 3.44083 13.9274 2.69805 13.6177 2.07619ZM4.47928 4.00185C4.11385 3.41251 4.07964 2.66973 4.38928 2.04787C4.62459 1.63206 5.0696 1.38807 5.53851 1.41779C6.20228 1.37612 6.85041 1.63502 7.31081 2.12575C8.12081 3.0461 8.26619 4.56821 8.30773 5.42485H7.44235C5.53851 5.42485 4.77697 4.53282 4.47928 4.00185ZM2.34005 6.84077C1.8124 6.84077 1.38466 7.27818 1.38466 7.81775V17.6142C1.38466 17.8726 1.48553 18.1204 1.6649 18.3025C1.84428 18.4846 2.0873 18.5859 2.34005 18.5841H8.25927L8.30773 6.84077H2.34005Z" fill="black"/>
<path fill-rule="evenodd" clip-rule="evenodd" d="M12.4616 1.44612C12.9329 1.41364 13.3813 1.658 13.6178 2.07621C13.9274 2.69806 13.8932 3.44084 13.5278 4.03018C13.2301 4.56115 12.4478 5.4461 10.5647 5.4461H9.69238C9.69238 4.58947 9.85161 3.06735 10.6547 2.16824C11.1154 1.65202 11.7794 1.37622 12.4616 1.4178V1.44612Z" fill="black" fill-opacity="0.2"/>
<path fill-rule="evenodd" clip-rule="evenodd" d="M4.47924 4.00186C4.11382 3.41253 4.07961 2.66975 4.38924 2.04789C4.62456 1.63208 5.06957 1.38809 5.53847 1.41781C6.20225 1.37614 6.85037 1.63503 7.31078 2.12577C8.12078 3.04612 8.26616 4.56823 8.3077 5.42487H7.44232C5.53847 5.42487 4.77694 4.53284 4.47924 4.00186Z" fill="black" fill-opacity="0.2"/>
<rect x="1" y="12.25" width="16" height="1" fill="black" stroke="black" stroke-width="0.45"/>
</svg>
