<svg width="20" height="20" viewBox="0 0 20 20" fill="none" xmlns="http://www.w3.org/2000/svg">
<path fill-rule="evenodd" clip-rule="evenodd" d="M16.0002 0.686491C16.9163 -0.229339 18.3991 -0.228423 19.3146 0.686797C20.2285 1.60034 20.2285 3.08685 19.3146 4.00039L16.3609 6.94807L16.673 8.32014L17.1051 7.88832C17.334 7.65944 17.705 7.65959 17.9338 7.88832C18.1626 8.11705 18.1626 8.48783 17.9338 8.71672L16.9801 9.67008L17.2871 11.02L17.7267 10.5806C17.9555 10.3518 18.3266 10.3518 18.5554 10.5806C18.7842 10.8095 18.7842 11.1802 18.5554 11.409L17.5942 12.3698L17.9012 13.7198L18.3481 13.273C18.5771 13.0443 18.948 13.0443 19.1768 13.273C19.4057 13.5017 19.4057 13.8726 19.1768 14.1014L18.2083 15.0695L18.597 16.7791C18.6416 16.9754 18.5824 17.1807 18.44 17.3231L16.7826 18.9799C16.5137 19.2488 16.0617 19.1947 15.8652 18.8662L11.5875 11.7117L9.4536 13.836V17.7574C9.4536 17.9127 9.39178 18.0618 9.28203 18.1716L7.6297 19.8284C7.34335 20.1147 6.86131 20.0303 6.68715 19.6676L4.92019 15.9874L4.65333 15.4267L4.09608 15.1545L0.328467 13.3131C-0.0323745 13.1367 -0.112663 12.6567 0.171553 12.3727L1.82892 10.7159C1.93882 10.6061 2.0878 10.5444 2.24318 10.5444H6.12192L8.26438 8.40635L1.1512 4.15725C0.823631 3.96163 0.767918 3.50967 1.03748 3.2402L2.69485 1.5834C2.83711 1.44119 3.04271 1.38199 3.23901 1.42639L4.94934 1.81488L5.91769 0.846861C6.14665 0.618132 6.51757 0.618132 6.74637 0.846861C6.97533 1.07559 6.97533 1.44653 6.74637 1.67526L6.2999 2.12158L7.65046 2.42828L8.61102 1.4682C8.83983 1.23932 9.2109 1.23932 9.43971 1.4682C9.66852 1.69693 9.66852 2.06771 9.43971 2.2966L9.00102 2.73498L10.3517 3.04168L11.3042 2.08938C11.5332 1.86081 11.9041 1.86065 12.1329 2.08938C12.3618 2.31826 12.3618 2.6892 12.1329 2.91778L11.7023 3.34838L13.0304 3.65005L16.0002 0.686491ZM3.29487 2.64053L2.39781 3.53713L9.11993 7.55263L12.0499 4.62874L3.29487 2.64053ZM17.3825 16.7234L16.4854 17.62L12.4426 10.8583L15.3814 7.92555L17.3825 16.7234ZM8.45365 13.1785L18.4862 3.17168C18.9428 2.71514 18.9428 1.97189 18.4859 1.51519C18.0279 1.05728 17.2865 1.05743 16.8286 1.51519L6.77843 11.5446C6.66853 11.6543 6.51955 11.7158 6.36432 11.7158H2.48603L1.58057 12.621L4.97224 14.2787L5.52667 14.5533L5.79863 15.1094L7.38594 18.4155L8.28163 17.5148V13.5931C8.28163 13.4375 8.3436 13.2884 8.45365 13.1785Z" fill="#000C26"/>
<path opacity="0.202434" fill-rule="evenodd" clip-rule="evenodd" d="M2.3978 3.53723L3.29486 2.64062L12.0498 4.62884L9.11992 7.55272L2.3978 3.53723Z" fill="#000C26"/>
<path opacity="0.202434" fill-rule="evenodd" clip-rule="evenodd" d="M17.3825 16.7237L16.4854 17.6203L12.4426 10.8585L15.3814 7.92578L17.3825 16.7237Z" fill="#000C26"/>
</svg>
