<svg width="20" height="20" viewBox="0 0 20 20" fill="none" xmlns="http://www.w3.org/2000/svg">
<path fill-rule="evenodd" clip-rule="evenodd" d="M10 0C12.6607 0 15.169 1.04305 17.063 2.93703C18.957 4.83098 20 7.33934 20 10C20 12.6607 18.957 15.169 17.063 17.063C15.169 18.957 12.6607 20 10 20C7.33934 20 4.83098 18.957 2.93703 17.063C1.04305 15.169 0 12.6607 0 10C0 7.33934 1.04305 4.83098 2.93703 2.93703C4.83098 1.04305 7.33934 0 10 0ZM1.17188 10C1.17188 14.8679 5.13215 18.8281 10 18.8281C14.8679 18.8281 18.8281 14.8679 18.8281 10C18.8281 5.13215 14.8679 1.17188 10 1.17188C5.13215 1.17188 1.17188 5.13215 1.17188 10Z" fill="#000C26"/>
<path fill-rule="evenodd" clip-rule="evenodd" d="M2.38281 10C2.38281 5.79988 5.79988 2.38281 10 2.38281C14.2001 2.38281 17.6172 5.79988 17.6172 10C17.6172 14.2001 14.2001 17.6172 10 17.6172C5.79988 17.6172 2.38281 14.2001 2.38281 10ZM3.55469 10C3.55469 13.5539 6.44605 16.4453 10 16.4453C13.5539 16.4453 16.4453 13.5539 16.4453 10C16.4453 6.44605 13.5539 3.55469 10 3.55469C6.44605 3.55469 3.55469 6.44605 3.55469 10Z" fill="#000C26"/>
<path opacity="0.2" d="M10 16.4453C6.44605 16.4453 3.55469 13.5539 3.55469 10C3.55469 6.44605 6.44605 3.55469 10 3.55469C13.5539 3.55469 16.4453 6.44605 16.4453 10C16.4453 13.5539 13.5539 16.4453 10 16.4453Z" fill="#000C26"/>
<path fill-rule="evenodd" clip-rule="evenodd" d="M10.8 6H9.2V9.2H6V10.8H9.2V14H10.8V10.8H14V9.2H10.8V6Z" fill="#000C26"/>
</svg>
