<svg width="20" height="20" viewBox="0 0 20 20" fill="none" xmlns="http://www.w3.org/2000/svg">
<path fill-rule="evenodd" clip-rule="evenodd" d="M10 0C12.6607 0 15.169 1.04305 17.063 2.93703C18.957 4.83098 20 7.33934 20 10C20 12.6607 18.957 15.169 17.063 17.063C15.169 18.957 12.6607 20 10 20C7.33934 20 4.83098 18.957 2.93703 17.063C1.04305 15.169 0 12.6607 0 10C0 7.33934 1.04305 4.83098 2.93703 2.93703C4.83098 1.04305 7.33934 0 10 0ZM1.17188 10C1.17188 14.8679 5.13215 18.8281 10 18.8281C14.8679 18.8281 18.8281 14.8679 18.8281 10C18.8281 5.13215 14.8679 1.17188 10 1.17188C5.13215 1.17188 1.17188 5.13215 1.17188 10Z" fill="#000C26"/>
<path fill-rule="evenodd" clip-rule="evenodd" d="M2.38281 10C2.38281 5.79988 5.79988 2.38281 10 2.38281C14.2001 2.38281 17.6172 5.79988 17.6172 10C17.6172 14.2001 14.2001 17.6172 10 17.6172C5.79988 17.6172 2.38281 14.2001 2.38281 10ZM3.55469 10C3.55469 13.5539 6.44605 16.4453 10 16.4453C13.5539 16.4453 16.4453 13.5539 16.4453 10C16.4453 6.44605 13.5539 3.55469 10 3.55469C6.44605 3.55469 3.55469 6.44605 3.55469 10Z" fill="#000C26"/>
<path opacity="0.2" d="M10 16.4453C6.44605 16.4453 3.55469 13.5539 3.55469 10C3.55469 6.44605 6.44605 3.55469 10 3.55469C13.5539 3.55469 16.4453 6.44605 16.4453 10C16.4453 13.5539 13.5539 16.4453 10 16.4453Z" fill="#000C26"/>
<path fill-rule="evenodd" clip-rule="evenodd" d="M11.7578 8.23637C11.7578 8.55996 12.0202 8.8223 12.3438 8.8223C12.6673 8.8223 12.9297 8.55996 12.9297 8.23637C12.9297 7.58746 12.5941 6.96355 12.0088 6.52465C11.6091 6.22484 11.1173 6.02457 10.5859 5.93938V5.30664C10.5859 4.98305 10.3236 4.7207 10 4.7207C9.67641 4.7207 9.41406 4.98305 9.41406 5.30664V5.93938C8.8827 6.02457 8.39086 6.22484 7.99117 6.52465C7.40594 6.96355 7.07031 7.58746 7.07031 8.23637C7.07031 8.88527 7.40594 9.50914 7.99117 9.94809C8.3909 10.2479 8.88273 10.4482 9.41406 10.5334V12.854C8.73906 12.6891 8.24219 12.251 8.24219 11.752C8.24219 11.4284 7.97984 11.1661 7.65625 11.1661C7.33266 11.1661 7.07031 11.4284 7.07031 11.752C7.07031 12.4009 7.40594 13.0248 7.99117 13.4637C8.3909 13.7635 8.88273 13.9638 9.41406 14.049V14.6876C9.41406 15.0112 9.67641 15.2736 10 15.2736C10.3236 15.2736 10.5859 15.0112 10.5859 14.6876V14.049C11.1173 13.9638 11.6091 13.7635 12.0088 13.4637C12.5941 13.0248 12.9297 12.4009 12.9297 11.752C12.9297 11.1031 12.5941 10.4792 12.0088 10.0403C11.6091 9.74047 11.1173 9.5402 10.5859 9.455V7.13434C11.2609 7.29934 11.7578 7.73734 11.7578 8.23637ZM8.24219 8.23637C8.24219 7.73734 8.73906 7.2993 9.41406 7.13434V9.33836C8.73906 9.17344 8.24219 8.73539 8.24219 8.23637ZM10.5859 12.854C11.2609 12.6891 11.7578 12.251 11.7578 11.752C11.7578 11.253 11.2609 10.815 10.5859 10.65V12.854Z" fill="#000C26"/>
</svg>
