<svg width="22" height="22" viewBox="0 0 22 22" fill="none" xmlns="http://www.w3.org/2000/svg">
<path opacity="0.2" d="M18.5 3.5H3.5C2.11923 3.5 1 4.61923 1 6V8.53326H21V6C21 4.61923 19.8808 3.5 18.5 3.5Z" fill="#000C26"/>
<path fill-rule="evenodd" clip-rule="evenodd" d="M3.29172 21.0003H18.7083C19.9725 21.0003 21 19.9727 21 18.7086V4.95856C21 3.69437 19.9725 2.66699 18.7083 2.66699H3.29172C2.02753 2.66699 1 3.69437 1 4.95856V18.7086C1 19.9727 2.02753 21.0003 3.29172 21.0003ZM2.25 4.95856C2.25 4.38437 2.71753 3.91699 3.29172 3.91699H18.7083C19.2825 3.91699 19.75 4.38437 19.75 4.95856V18.7086C19.75 19.2827 19.2825 19.7503 18.7083 19.7503H3.29172C2.71753 19.7503 2.25 19.2827 2.25 18.7086V4.95856Z" fill="#000C26"/>
<path d="M18.7083 20.9753H3.29172V21.0253H18.7083V20.9753ZM20.975 18.7086C20.975 19.9589 19.9587 20.9753 18.7083 20.9753V21.0253C19.9863 21.0253 21.025 19.9866 21.025 18.7086H20.975ZM20.975 4.95856V18.7086H21.025V4.95856H20.975ZM18.7083 2.69199C19.9587 2.69199 20.975 3.70818 20.975 4.95856H21.025C21.025 3.68056 19.9863 2.64199 18.7083 2.64199V2.69199ZM3.29172 2.69199H18.7083V2.64199H3.29172V2.69199ZM1.025 4.95856C1.025 3.70818 2.04133 2.69199 3.29172 2.69199V2.64199C2.01372 2.64199 0.975 3.68056 0.975 4.95856H1.025ZM1.025 18.7086V4.95856H0.975V18.7086H1.025ZM3.29172 20.9753C2.04133 20.9753 1.025 19.9589 1.025 18.7086H0.975C0.975 19.9866 2.01372 21.0253 3.29172 21.0253V20.9753ZM3.29172 3.89199C2.70373 3.89199 2.225 4.37056 2.225 4.95856H2.275C2.275 4.39818 2.73133 3.94199 3.29172 3.94199V3.89199ZM18.7083 3.89199H3.29172V3.94199H18.7083V3.89199ZM19.775 4.95856C19.775 4.37056 19.2963 3.89199 18.7083 3.89199V3.94199C19.2687 3.94199 19.725 4.39818 19.725 4.95856H19.775ZM19.775 18.7086V4.95856H19.725V18.7086H19.775ZM18.7083 19.7753C19.2963 19.7753 19.775 19.2966 19.775 18.7086H19.725C19.725 19.2689 19.2687 19.7253 18.7083 19.7253V19.7753ZM3.29172 19.7753H18.7083V19.7253H3.29172V19.7753ZM2.225 18.7086C2.225 19.2966 2.70372 19.7753 3.29172 19.7753V19.7253C2.73134 19.7253 2.275 19.2689 2.275 18.7086H2.225ZM2.225 4.95856V18.7086H2.275V4.95856H2.225Z" fill="#000C26"/>
<path d="M20.375 8.91699H1.625C1.28 8.91699 1 8.63699 1 8.29199C1 7.94699 1.28 7.66699 1.625 7.66699H20.375C20.72 7.66699 21 7.94699 21 8.29199C21 8.63699 20.72 8.91699 20.375 8.91699Z" fill="#000C26" stroke="#000C26" stroke-width="0.05"/>
<path d="M5.79175 6C5.44675 6 5.16675 5.72 5.16675 5.375V1.625C5.16675 1.28 5.44675 1 5.79175 1C6.13675 1 6.41675 1.28 6.41675 1.625V5.375C6.41675 5.72 6.13675 6 5.79175 6Z" fill="#000C26" stroke="#000C26" stroke-width="0.05"/>
<path d="M16.2083 6C15.8633 6 15.5833 5.72 15.5833 5.375V1.625C15.5833 1.28 15.8633 1 16.2083 1C16.5533 1 16.8333 1.28 16.8333 1.625V5.375C16.8333 5.72 16.5533 6 16.2083 6Z" fill="#000C26" stroke="#000C26" stroke-width="0.05"/>
</svg>
