<svg width="20" height="20" viewBox="0 0 20 20" fill="none" xmlns="http://www.w3.org/2000/svg">
<path fill-rule="evenodd" clip-rule="evenodd" d="M18.6964 14.8962L19.9805 19.0818C20.0462 19.3577 19.9426 19.6465 19.7165 19.8174C19.5212 19.9895 19.2479 20.0415 19.0031 19.9532L15.3005 18.4675C11.0358 21.1496 5.44374 20.2331 2.25576 16.3296C-0.932216 12.4261 -0.71867 6.75695 2.75391 3.10495C6.22649 -0.547047 11.8716 -1.03923 15.9224 1.95682C19.9733 4.95286 21.1624 10.4997 18.6964 14.8962ZM18.1613 18.0746L17.241 15.0033C17.1836 14.8113 17.2095 14.6039 17.3123 14.4319C19.5922 10.648 18.6537 5.75166 15.1368 3.08144C11.6198 0.411221 6.65748 0.827346 3.63319 4.04609C0.60891 7.26483 0.497027 12.2492 3.37383 15.6007C6.25063 18.9523 11.1893 19.5912 14.8225 17.0818C15.017 16.9472 15.2655 16.9177 15.486 17.0033L18.1613 18.0746Z" fill="#000C26"/>
<ellipse cx="9.99271" cy="10.0037" rx="1.42683" ry="1.42852" fill="#000C26" fill-opacity="0.2" stroke="#000C26"/>
<ellipse cx="14.9866" cy="10.0037" rx="1.42683" ry="1.42852" fill="#000C26" fill-opacity="0.2" stroke="#000C26"/>
<ellipse cx="4.99882" cy="10.0037" rx="1.42683" ry="1.42852" fill="#000C26" fill-opacity="0.2" stroke="#000C26"/>
</svg>
