<svg width="20" height="22" viewBox="0 0 20 22" fill="none" xmlns="http://www.w3.org/2000/svg">
<path d="M3.13793 7.00003H15.1148L13.2642 8.8295C12.8198 9.26885 12.8198 9.98118 13.2642 10.4205C13.7086 10.8599 14.4292 10.8599 14.8736 10.4205L18.6666 6.67054C18.8801 6.45956 19 6.17341 19 5.87503C19 5.57665 18.8801 5.2905 18.6666 5.07952L14.8736 1.32954C14.5861 1.04533 14.1671 0.934332 13.7744 1.03836C13.3817 1.14239 13.0749 1.44564 12.9697 1.83387C12.8645 2.22211 12.9768 2.63635 13.2642 2.92056L15.1148 4.75004H3.13793C2.50947 4.75004 2 5.25371 2 5.87503C2 6.49635 2.50947 7.00003 3.13793 7.00003Z" fill="#000C26" fill-opacity="0.2"/>
<path d="M3.13793 7.00003H15.1148L13.2642 8.8295C12.8198 9.26885 12.8198 9.98118 13.2642 10.4205C13.7086 10.8599 14.4292 10.8599 14.8736 10.4205L18.6666 6.67054C18.8801 6.45956 19 6.17341 19 5.87503C19 5.57665 18.8801 5.2905 18.6666 5.07952L14.8736 1.32954C14.5861 1.04533 14.1671 0.934332 13.7744 1.03836C13.3817 1.14239 13.0749 1.44564 12.9697 1.83387C12.8645 2.22211 12.9768 2.63635 13.2642 2.92056L15.1148 4.75004H3.13793C2.50947 4.75004 2 5.25371 2 5.87503C2 6.49635 2.50947 7.00003 3.13793 7.00003Z" stroke="#000C26" stroke-width="0.5"/>
<path d="M3.13793 7.00003H15.1148L13.2642 8.8295C12.8198 9.26885 12.8198 9.98118 13.2642 10.4205C13.7086 10.8599 14.4292 10.8599 14.8736 10.4205L18.6666 6.67054C18.8801 6.45956 19 6.17341 19 5.87503C19 5.57665 18.8801 5.2905 18.6666 5.07952L14.8736 1.32954C14.5861 1.04533 14.1671 0.934332 13.7744 1.03836C13.3817 1.14239 13.0749 1.44564 12.9697 1.83387C12.8645 2.22211 12.9768 2.63635 13.2642 2.92056L15.1148 4.75004H3.13793C2.50947 4.75004 2 5.25371 2 5.87503C2 6.49635 2.50947 7.00003 3.13793 7.00003Z" stroke="#000C26" stroke-width="0.5"/>
<path d="M4.88516 15L6.73571 13.1705C7.18011 12.7312 7.18011 12.0189 6.73571 11.5795C6.29131 11.1402 5.5708 11.1402 5.1264 11.5795L1.33331 15.3295C1.1199 15.5405 1 15.8266 1 16.125C1 16.4234 1.1199 16.7095 1.33331 16.9205L5.1264 20.6705C5.5708 21.1098 6.29131 21.1098 6.73571 20.6705C7.18011 20.2312 7.18011 19.5188 6.73571 19.0795L4.88516 17.25H16.862C17.4905 17.25 18 16.7463 18 16.125C18 15.5037 17.4905 15 16.862 15H4.88516Z" stroke="#000C26" stroke-width="0.5"/>
<path d="M4.88516 15L6.73571 13.1705C7.18011 12.7312 7.18011 12.0189 6.73571 11.5795C6.29131 11.1402 5.5708 11.1402 5.1264 11.5795L1.33331 15.3295C1.1199 15.5405 1 15.8266 1 16.125C1 16.4234 1.1199 16.7095 1.33331 16.9205L5.1264 20.6705C5.5708 21.1098 6.29131 21.1098 6.73571 20.6705C7.18011 20.2312 7.18011 19.5188 6.73571 19.0795L4.88516 17.25H16.862C17.4905 17.25 18 16.7463 18 16.125C18 15.5037 17.4905 15 16.862 15H4.88516Z" stroke="#000C26" stroke-width="0.5"/>
</svg>
