<svg width="22" height="17" viewBox="0 0 22 17" fill="none" xmlns="http://www.w3.org/2000/svg">
<path d="M11.0234 10.0315H10.9766C10.653 10.0315 10.3906 9.76781 10.3906 9.44252C10.3906 9.11723 10.653 8.85352 10.9766 8.85352H11.0234C11.347 8.85352 11.6094 9.11723 11.6094 9.44252C11.6094 9.76781 11.347 10.0315 11.0234 10.0315Z" fill="#222221" stroke="#000C26" stroke-width="0.2"/>
<path fill-rule="evenodd" clip-rule="evenodd" d="M4.125 12.2305H11C11.3236 12.2305 11.5859 11.9668 11.5859 11.6415V9.67815C11.5859 8.70382 10.7974 7.91113 9.82812 7.91113H4.125C3.80141 7.91113 3.53906 8.17485 3.53906 8.50014V11.6415C3.53906 11.9668 3.80141 12.2305 4.125 12.2305ZM10.4141 11.0525H4.71094V9.08914H9.82812C10.1512 9.08914 10.4141 9.35337 10.4141 9.67815V11.0525Z" fill="#000C26"/>
<path d="M4.71094 11.0525H4.61094V11.1525H4.71094V11.0525ZM10.4141 11.0525V11.1525H10.5141V11.0525H10.4141ZM4.71094 9.08914V8.98914H4.61094V9.08914H4.71094ZM11 12.1305H4.125V12.3305H11V12.1305ZM11.4859 11.6415C11.4859 11.9121 11.2679 12.1305 11 12.1305V12.3305C11.3793 12.3305 11.6859 12.0215 11.6859 11.6415H11.4859ZM11.4859 9.67815V11.6415H11.6859V9.67815H11.4859ZM9.82812 8.01113C10.7417 8.01113 11.4859 8.75855 11.4859 9.67815H11.6859C11.6859 8.64908 10.8531 7.81113 9.82812 7.81113V8.01113ZM4.125 8.01113H9.82812V7.81113H4.125V8.01113ZM3.63906 8.50014C3.63906 8.22959 3.85713 8.01113 4.125 8.01113V7.81113C3.74569 7.81113 3.43906 8.12011 3.43906 8.50014H3.63906ZM3.63906 11.6415V8.50014H3.43906V11.6415H3.63906ZM4.125 12.1305C3.85713 12.1305 3.63906 11.9121 3.63906 11.6415H3.43906C3.43906 12.0215 3.74569 12.3305 4.125 12.3305V12.1305ZM4.71094 11.1525H10.4141V10.9525H4.71094V11.1525ZM4.61094 9.08914V11.0525H4.81094V9.08914H4.61094ZM9.82812 8.98914H4.71094V9.18914H9.82812V8.98914ZM10.5141 9.67815C10.5141 9.29864 10.2069 8.98914 9.82812 8.98914V9.18914C10.0955 9.18914 10.3141 9.40811 10.3141 9.67815H10.5141ZM10.5141 11.0525V9.67815H10.3141V11.0525H10.5141Z" fill="#000C26"/>
<path fill-rule="evenodd" clip-rule="evenodd" d="M11 12.2305H17.875C18.1986 12.2305 18.4609 11.9668 18.4609 11.6415V8.50014C18.4609 8.17485 18.1986 7.91113 17.875 7.91113H12.1719C11.2026 7.91113 10.4141 8.70382 10.4141 9.67815V11.6415C10.4141 11.9668 10.6764 12.2305 11 12.2305ZM17.2891 11.0525H11.5859V9.67815C11.5859 9.35337 11.8488 9.08914 12.1719 9.08914H17.2891V11.0525Z" fill="#000C26"/>
<path d="M11.5859 11.0525H11.4859V11.1525H11.5859V11.0525ZM17.2891 11.0525V11.1525H17.3891V11.0525H17.2891ZM17.2891 9.08914H17.3891V8.98914H17.2891V9.08914ZM17.875 12.1305H11V12.3305H17.875V12.1305ZM18.3609 11.6415C18.3609 11.9121 18.1429 12.1305 17.875 12.1305V12.3305C18.2543 12.3305 18.5609 12.0215 18.5609 11.6415H18.3609ZM18.3609 8.50014V11.6415H18.5609V8.50014H18.3609ZM17.875 8.01113C18.1429 8.01113 18.3609 8.22959 18.3609 8.50014H18.5609C18.5609 8.12011 18.2543 7.81113 17.875 7.81113V8.01113ZM12.1719 8.01113H17.875V7.81113H12.1719V8.01113ZM10.5141 9.67815C10.5141 8.75855 11.2583 8.01113 12.1719 8.01113V7.81113C11.1469 7.81113 10.3141 8.64908 10.3141 9.67815H10.5141ZM10.5141 11.6415V9.67815H10.3141V11.6415H10.5141ZM11 12.1305C10.7321 12.1305 10.5141 11.9121 10.5141 11.6415H10.3141C10.3141 12.0215 10.6207 12.3305 11 12.3305V12.1305ZM11.5859 11.1525H17.2891V10.9525H11.5859V11.1525ZM11.4859 9.67815V11.0525H11.6859V9.67815H11.4859ZM12.1719 8.98914C11.7931 8.98914 11.4859 9.29864 11.4859 9.67815H11.6859C11.6859 9.40811 11.9045 9.18914 12.1719 9.18914V8.98914ZM17.2891 8.98914H12.1719V9.18914H17.2891V8.98914ZM17.3891 11.0525V9.08914H17.1891V11.0525H17.3891Z" fill="#000C26"/>
<path d="M17.875 10.0314C17.5514 10.0314 17.2891 9.7677 17.2891 9.44241V2.76702C17.2891 2.44224 17.0262 2.17801 16.7031 2.17801H5.29688C4.97379 2.17801 4.71094 2.44224 4.71094 2.76702V9.44241C4.71094 9.7677 4.44859 10.0314 4.125 10.0314C3.80141 10.0314 3.53906 9.7677 3.53906 9.44241V2.76702C3.53906 1.79268 4.32762 1 5.29688 1H16.7031C17.6724 1 18.4609 1.79268 18.4609 2.76702V9.44241C18.4609 9.7677 18.1986 10.0314 17.875 10.0314Z" fill="#000C26" stroke="#000C26" stroke-width="0.2"/>
<path fill-rule="evenodd" clip-rule="evenodd" d="M2.75781 14.7437H19.2491L19.2587 14.7436C20.2204 14.7347 21 13.9455 21 12.9767V6.92956C21 6.42702 20.8026 5.95719 20.4443 5.60673C20.086 5.25627 19.6123 5.07078 19.1129 5.08472C18.1072 5.11244 17.2891 5.95177 17.2891 6.95571V11.0526H4.71094V6.95571C4.71094 5.95177 3.89277 5.11248 2.88715 5.08476C2.38727 5.07042 1.91406 5.25631 1.55578 5.60669C1.19738 5.95719 1 6.42698 1 6.92956V12.9767C1 13.951 1.78855 14.7437 2.75781 14.7437ZM2.37297 6.45105C2.49797 6.32873 2.6618 6.26206 2.83605 6.26206L2.855 6.2623C3.21941 6.27235 3.53906 6.59638 3.53906 6.95571V11.6416C3.53906 11.9669 3.80141 12.2306 4.125 12.2306H17.875C18.1986 12.2306 18.4609 11.9669 18.4609 11.6416V6.95567C18.4609 6.59634 18.7806 6.27227 19.145 6.26226C19.3264 6.2566 19.4975 6.32426 19.6271 6.45101C19.7567 6.57784 19.8281 6.74779 19.8281 6.92956V12.9767C19.8281 13.3015 19.5653 13.5657 19.2422 13.5657H2.75781C2.43473 13.5657 2.17188 13.3015 2.17188 12.9767V6.92956C2.17188 6.74779 2.24328 6.57781 2.37297 6.45105Z" fill="#000C26"/>
<path d="M19.2491 14.7437V14.8437L19.25 14.8437L19.2491 14.7437ZM19.2587 14.7436L19.2595 14.8436L19.2596 14.8436L19.2587 14.7436ZM20.4443 5.60673L20.3743 5.67822L20.3743 5.67823L20.4443 5.60673ZM19.1129 5.08472L19.1156 5.18468L19.1156 5.18468L19.1129 5.08472ZM17.2891 11.0526V11.1526H17.3891V11.0526H17.2891ZM4.71094 11.0526H4.61094V11.1526H4.71094V11.0526ZM2.88715 5.08476L2.88428 5.18471L2.88439 5.18472L2.88715 5.08476ZM1.55578 5.60669L1.48586 5.5352L1.48586 5.5352L1.55578 5.60669ZM2.83605 6.26206L2.8373 6.16206H2.83605V6.26206ZM2.37297 6.45105L2.44287 6.52257L2.44291 6.52253L2.37297 6.45105ZM2.855 6.2623L2.85776 6.16232L2.85624 6.1623L2.855 6.2623ZM19.145 6.26226L19.1477 6.36222L19.1481 6.36221L19.145 6.26226ZM19.6271 6.45101L19.697 6.37953L19.697 6.37953L19.6271 6.45101ZM19.2491 14.6437H2.75781V14.8437H19.2491V14.6437ZM19.2579 14.6436L19.2483 14.6437L19.25 14.8437L19.2595 14.8436L19.2579 14.6436ZM20.9 12.9767C20.9 13.891 20.1641 14.6352 19.2577 14.6436L19.2596 14.8436C20.2766 14.8342 21.1 13.9999 21.1 12.9767H20.9ZM20.9 6.92956V12.9767H21.1V6.92956H20.9ZM20.3743 5.67823C20.7134 6.00982 20.9 6.45385 20.9 6.92956H21.1C21.1 6.40019 20.8918 5.90456 20.5142 5.53524L20.3743 5.67823ZM19.1156 5.18468C19.5879 5.1715 20.0354 5.34668 20.3743 5.67822L20.5142 5.53525C20.1366 5.16587 19.6366 4.97006 19.1101 4.98476L19.1156 5.18468ZM17.3891 6.95571C17.3891 6.00611 18.1639 5.21091 19.1156 5.18468L19.1101 4.98475C18.0505 5.01396 17.1891 5.89743 17.1891 6.95571H17.3891ZM17.3891 11.0526V6.95571H17.1891V11.0526H17.3891ZM4.71094 11.1526H17.2891V10.9526H4.71094V11.1526ZM4.61094 6.95571V11.0526H4.81094V6.95571H4.61094ZM2.88439 5.18472C3.83607 5.21095 4.61094 6.00612 4.61094 6.95571H4.81094C4.81094 5.89743 3.94947 5.014 2.8899 4.98479L2.88439 5.18472ZM1.6257 5.67819C1.96469 5.34667 2.41166 5.17116 2.88428 5.18471L2.89001 4.9848C2.36287 4.96968 1.86344 5.16595 1.48586 5.5352L1.6257 5.67819ZM1.1 6.92956C1.1 6.45381 1.28659 6.00982 1.6257 5.67819L1.48586 5.5352C1.10817 5.90456 0.9 6.40015 0.9 6.92956H1.1ZM1.1 12.9767V6.92956H0.9V12.9767H1.1ZM2.75781 14.6437C1.84427 14.6437 1.1 13.8963 1.1 12.9767H0.9C0.9 14.0057 1.73283 14.8437 2.75781 14.8437V14.6437ZM2.83605 6.16206C2.63566 6.16206 2.44672 6.23897 2.30303 6.37958L2.44291 6.52253C2.54922 6.4185 2.68794 6.36206 2.83605 6.36206V6.16206ZM2.85624 6.1623L2.8373 6.16207L2.83481 6.36205L2.85376 6.36229L2.85624 6.1623ZM3.63906 6.95571C3.63906 6.54093 3.275 6.17384 2.85776 6.16233L2.85224 6.36226C3.16383 6.37085 3.43906 6.65183 3.43906 6.95571H3.63906ZM3.63906 11.6416V6.95571H3.43906V11.6416H3.63906ZM4.125 12.1306C3.85713 12.1306 3.63906 11.9122 3.63906 11.6416H3.43906C3.43906 12.0216 3.74569 12.3306 4.125 12.3306V12.1306ZM17.875 12.1306H4.125V12.3306H17.875V12.1306ZM18.3609 11.6416C18.3609 11.9122 18.1429 12.1306 17.875 12.1306V12.3306C18.2543 12.3306 18.5609 12.0216 18.5609 11.6416H18.3609ZM18.3609 6.95567V11.6416H18.5609V6.95567H18.3609ZM19.1423 6.16229C18.725 6.17376 18.3609 6.5409 18.3609 6.95567H18.5609C18.5609 6.65178 18.8362 6.37078 19.1477 6.36222L19.1423 6.16229ZM19.697 6.37953C19.5482 6.23399 19.3509 6.15579 19.1419 6.1623L19.1481 6.36221C19.302 6.35741 19.4468 6.41453 19.5571 6.5225L19.697 6.37953ZM19.9281 6.92956C19.9281 6.72095 19.8459 6.52522 19.697 6.37953L19.5571 6.5225C19.6675 6.63047 19.7281 6.77463 19.7281 6.92956H19.9281ZM19.9281 12.9767V6.92956H19.7281V12.9767H19.9281ZM19.2422 13.6657C19.621 13.6657 19.9281 13.3562 19.9281 12.9767H19.7281C19.7281 13.2467 19.5096 13.4657 19.2422 13.4657V13.6657ZM2.75781 13.6657H19.2422V13.4657H2.75781V13.6657ZM2.07187 12.9767C2.07187 13.3562 2.37901 13.6657 2.75781 13.6657V13.4657C2.49045 13.4657 2.27188 13.2467 2.27188 12.9767H2.07187ZM2.07187 6.92956V12.9767H2.27188V6.92956H2.07187ZM2.30307 6.37954C2.15407 6.52517 2.07187 6.72096 2.07187 6.92956H2.27188C2.27188 6.77462 2.33249 6.63044 2.44287 6.52257L2.30307 6.37954Z" fill="#000C26"/>
<path d="M4.125 16C3.80141 16 3.53906 15.7363 3.53906 15.411V14.1544C3.53906 13.8291 3.80141 13.5654 4.125 13.5654C4.44859 13.5654 4.71094 13.8291 4.71094 14.1544V15.411C4.71094 15.7363 4.44859 16 4.125 16Z" fill="#000C26" stroke="#000C26" stroke-width="0.2"/>
<path d="M17.875 16C17.5514 16 17.2891 15.7363 17.2891 15.411V14.1544C17.2891 13.8291 17.5514 13.5654 17.875 13.5654C18.1986 13.5654 18.4609 13.8291 18.4609 14.1544V15.411C18.4609 15.7363 18.1986 16 17.875 16Z" fill="#000C26" stroke="#000C26" stroke-width="0.2"/>
<path opacity="0.203169" fill-rule="evenodd" clip-rule="evenodd" d="M4.71094 11.0522H10.4141V9.67787C10.4141 9.35309 10.1512 9.08887 9.82812 9.08887H4.71094V11.0522Z" fill="#000C26" stroke="#000C26" stroke-width="0.2"/>
<path opacity="0.203169" fill-rule="evenodd" clip-rule="evenodd" d="M11.5859 11.0522H17.2891V9.08887H12.1719C11.8488 9.08887 11.5859 9.35309 11.5859 9.67787V11.0522Z" fill="#000C26" stroke="#000C26" stroke-width="0.2"/>
</svg>
