<svg width="18" height="22" viewBox="0 0 18 22" fill="none" xmlns="http://www.w3.org/2000/svg">
<path fill-rule="evenodd" clip-rule="evenodd" d="M15.4548 2.31123H12.9833C12.8676 1.57039 12.2321 1 11.4622 1H6.53846C5.76856 1 5.13311 1.57039 5.01739 2.31123H2.54515C1.69365 2.31123 1 3.00644 1 3.86136V19.4499C1 20.3048 1.69298 21 2.54515 21H15.4548C16.3064 21 17 20.3048 17 19.4499V3.86069C17 3.00644 16.307 2.31123 15.4548 2.31123ZM6.19732 2.55013C6.19732 2.36156 6.3505 2.20789 6.53846 2.20789H11.4622C11.6502 2.20789 11.8033 2.36156 11.8033 2.55013V3.27956C11.8033 3.46813 11.6502 3.6218 11.4622 3.6218H6.53846C6.3505 3.6218 6.19732 3.46813 6.19732 3.27956V2.55013ZM15.4548 19.7914C15.6421 19.7914 15.7953 19.6378 15.7953 19.4492H15.7946V3.86069C15.7946 3.67212 15.6415 3.51845 15.4542 3.51845H12.9826C12.8669 4.25862 12.2314 4.82902 11.4615 4.82902H6.53779C5.76789 4.82902 5.13244 4.25929 5.01672 3.51845H2.54515C2.35786 3.51845 2.20468 3.67212 2.20468 3.86069V19.4492C2.20468 19.6378 2.35786 19.7914 2.54515 19.7914H15.4548Z" fill="#000C26"/>
<path d="M12.9833 2.31123L12.8598 2.33052L12.8763 2.43623H12.9833V2.31123ZM5.01739 2.31123V2.43623H5.12438L5.14089 2.33052L5.01739 2.31123ZM15.7953 19.4492H15.9203V19.3242H15.7953V19.4492ZM15.7946 19.4492H15.6696V19.5742H15.7946V19.4492ZM12.9826 3.51845V3.39345H12.8756L12.8591 3.49915L12.9826 3.51845ZM5.01672 3.51845L5.14022 3.49916L5.12371 3.39345H5.01672V3.51845ZM12.9833 2.43623H15.4548V2.18623H12.9833V2.43623ZM11.4622 1.125C12.1684 1.125 12.7532 1.64846 12.8598 2.33052L13.1068 2.29194C12.9819 1.49232 12.2958 0.875 11.4622 0.875V1.125ZM6.53846 1.125H11.4622V0.875H6.53846V1.125ZM5.14089 2.33052C5.24743 1.64846 5.83222 1.125 6.53846 1.125V0.875C5.7049 0.875 5.01879 1.49232 4.89389 2.29194L5.14089 2.33052ZM2.54515 2.43623H5.01739V2.18623H2.54515V2.43623ZM1.125 3.86136C1.125 3.07513 1.76302 2.43623 2.54515 2.43623V2.18623C1.62427 2.18623 0.875 2.93775 0.875 3.86136H1.125ZM1.125 19.4499V3.86136H0.875V19.4499H1.125ZM2.54515 20.875C1.76239 20.875 1.125 20.2361 1.125 19.4499H0.875C0.875 20.3734 1.62356 21.125 2.54515 21.125V20.875ZM15.4548 20.875H2.54515V21.125H15.4548V20.875ZM16.875 19.4499C16.875 20.2361 16.237 20.875 15.4548 20.875V21.125C16.3757 21.125 17.125 20.3735 17.125 19.4499H16.875ZM16.875 3.86069V19.4499H17.125V3.86069H16.875ZM15.4548 2.43623C16.2376 2.43623 16.875 3.07513 16.875 3.86069H17.125C17.125 2.93775 16.3764 2.18623 15.4548 2.18623V2.43623ZM6.53846 2.08289C6.28109 2.08289 6.07232 2.29291 6.07232 2.55013H6.32232C6.32232 2.43022 6.41992 2.33289 6.53846 2.33289V2.08289ZM11.4622 2.08289H6.53846V2.33289H11.4622V2.08289ZM11.9283 2.55013C11.9283 2.29291 11.7196 2.08289 11.4622 2.08289V2.33289C11.5808 2.33289 11.6783 2.43022 11.6783 2.55013H11.9283ZM11.9283 3.27956V2.55013H11.6783V3.27956H11.9283ZM11.4622 3.7468C11.7196 3.7468 11.9283 3.53678 11.9283 3.27956H11.6783C11.6783 3.39947 11.5808 3.4968 11.4622 3.4968V3.7468ZM6.53846 3.7468H11.4622V3.4968H6.53846V3.7468ZM6.07232 3.27956C6.07232 3.53678 6.28109 3.7468 6.53846 3.7468V3.4968C6.41992 3.4968 6.32232 3.39947 6.32232 3.27956H6.07232ZM6.07232 2.55013V3.27956H6.32232V2.55013H6.07232ZM15.6703 19.4492C15.6703 19.5693 15.5726 19.6664 15.4548 19.6664V19.9164C15.7117 19.9164 15.9203 19.7063 15.9203 19.4492H15.6703ZM15.7946 19.5742H15.7953V19.3242H15.7946V19.5742ZM15.6696 3.86069V19.4492H15.9196V3.86069H15.6696ZM15.4542 3.64345C15.5719 3.64345 15.6696 3.74062 15.6696 3.86069H15.9196C15.9196 3.60363 15.711 3.39345 15.4542 3.39345V3.64345ZM12.9826 3.64345H15.4542V3.39345H12.9826V3.64345ZM11.4615 4.95402C12.2951 4.95402 12.9812 4.33673 13.1061 3.53776L12.8591 3.49915C12.7526 4.18052 12.1678 4.70402 11.4615 4.70402V4.95402ZM6.53779 4.95402H11.4615V4.70402H6.53779V4.95402ZM4.89322 3.53774C5.01813 4.33744 5.70431 4.95402 6.53779 4.95402V4.70402C5.83148 4.70402 5.24675 4.18115 5.14022 3.49916L4.89322 3.53774ZM2.54515 3.64345H5.01672V3.39345H2.54515V3.64345ZM2.32968 3.86069C2.32968 3.74062 2.42743 3.64345 2.54515 3.64345V3.39345C2.28829 3.39345 2.07968 3.60363 2.07968 3.86069H2.32968ZM2.32968 19.4492V3.86069H2.07968V19.4492H2.32968ZM2.54515 19.6664C2.42743 19.6664 2.32968 19.5693 2.32968 19.4492H2.07968C2.07968 19.7063 2.28829 19.9164 2.54515 19.9164V19.6664ZM15.4548 19.6664H2.54515V19.9164H15.4548V19.6664Z" fill="#000C26"/>
<path opacity="0.2" d="M6.19733 2.55024C6.19733 2.36168 6.3505 2.20801 6.53846 2.20801H11.4622C11.6502 2.20801 11.8033 2.36168 11.8033 2.55024V3.27968C11.8033 3.46824 11.6502 3.62191 11.4622 3.62191H6.53846C6.3505 3.62191 6.19733 3.46824 6.19733 3.27968L6.19733 2.55024Z" fill="#000C26"/>
<path d="M5.73243 8.0459H5.01671C4.68427 8.0459 4.4147 8.31633 4.4147 8.64984C4.4147 8.98336 4.68427 9.25379 5.01671 9.25379H5.73243C6.06487 9.25379 6.33444 8.98336 6.33444 8.64984C6.33444 8.31633 6.06487 8.0459 5.73243 8.0459Z" fill="#000C26"/>
<path d="M12.9833 8.0459H8.3311C7.99866 8.0459 7.7291 8.31633 7.7291 8.64984C7.7291 8.98336 7.99866 9.25379 8.3311 9.25379H12.9833C13.3157 9.25379 13.5853 8.98336 13.5853 8.64984C13.5853 8.31633 13.3157 8.0459 12.9833 8.0459Z" fill="#000C26"/>
<path d="M5.73243 11.707H5.01671C4.68427 11.707 4.4147 11.9775 4.4147 12.311C4.4147 12.6445 4.68427 12.9149 5.01671 12.9149H5.73243C6.06487 12.9149 6.33444 12.6445 6.33444 12.311C6.33444 11.9775 6.06487 11.707 5.73243 11.707Z" fill="#000C26"/>
<path d="M12.9833 11.707H8.3311C7.99866 11.707 7.7291 11.9775 7.7291 12.311C7.7291 12.6445 7.99866 12.9149 8.3311 12.9149H12.9833C13.3157 12.9149 13.5853 12.6445 13.5853 12.311C13.5853 11.9775 13.3157 11.707 12.9833 11.707Z" fill="#000C26"/>
<path d="M5.73243 15.3682H5.01671C4.68427 15.3682 4.4147 15.6386 4.4147 15.9721C4.4147 16.3056 4.68427 16.5761 5.01671 16.5761H5.73243C6.06487 16.5761 6.33444 16.3056 6.33444 15.9721C6.33444 15.6386 6.06487 15.3682 5.73243 15.3682Z" fill="#000C26"/>
<path d="M12.9833 15.3682H8.3311C7.99866 15.3682 7.7291 15.6386 7.7291 15.9721C7.7291 16.3056 7.99866 16.5761 8.3311 16.5761H12.9833C13.3157 16.5761 13.5853 16.3056 13.5853 15.9721C13.5853 15.6386 13.3157 15.3682 12.9833 15.3682Z" fill="#000C26"/>
</svg>
