<svg width="22" height="22" viewBox="0 0 22 22" fill="none" xmlns="http://www.w3.org/2000/svg">
<path d="M12.7578 14.5288H9.24219C8.91859 14.5288 8.65625 14.7914 8.65625 15.1153C8.65625 15.4392 8.91859 15.7019 9.24219 15.7019H12.7578C13.0814 15.7019 13.3438 15.4393 13.3438 15.1153C13.3438 14.7914 13.0814 14.5288 12.7578 14.5288Z" fill="#000C26"/>
<path fill-rule="evenodd" clip-rule="evenodd" d="M20.8284 4.53445L19.8518 3.55695C19.7419 3.44695 19.5929 3.38516 19.4375 3.38516H18.69C18.609 2.05633 17.5038 1 16.1562 1H5.84375C4.49621 1 3.39102 2.05633 3.30996 3.38516H2.5625C2.40707 3.38516 2.25805 3.44695 2.1482 3.55695L1.17164 4.53445C1.06172 4.64445 1 4.79363 1 4.94918V7.88172C1 8.20563 1.26234 8.46824 1.58594 8.46824C1.90953 8.46824 2.17188 8.20566 2.17188 7.88172V5.19211L2.8052 4.55816H3.30469V17.6569C3.30469 18.0865 3.58313 18.452 3.96875 18.5828V20.0225C3.96875 20.5615 4.40684 21 4.94531 21H6.78125C7.31973 21 7.75781 20.5615 7.75781 20.0225V18.6344H14.2422V20.0225C14.2422 20.5615 14.6803 21 15.2188 21H17.0547C17.5932 21 18.0312 20.5615 18.0312 20.0225V18.5828C18.4169 18.452 18.6953 18.0866 18.6953 17.6569V4.55816H19.1948L19.8281 5.19211V7.88172C19.8281 8.20563 20.0905 8.46824 20.4141 8.46824C20.7377 8.46824 21 8.20566 21 7.88172V4.94918C21 4.79363 20.9383 4.64445 20.8284 4.53445ZM17.5234 17.4614H15.3177L15.5518 16.7273L17.5234 16.3852V17.4614ZM7.45664 16.0319L7.91242 17.4614H14.0875L14.5433 16.0318C14.6098 15.8236 14.7863 15.6696 15.0015 15.6323L17.5234 15.1947V12.8354C15.0515 13.268 6.95312 13.2688 4.47656 12.8354V15.1947L6.99848 15.6323C7.21367 15.6696 7.39023 15.8236 7.45664 16.0319ZM4.47656 17.4614V16.3852L6.44828 16.7273L6.68234 17.4614H4.47656ZM16.1562 2.17301H5.84375C5.08988 2.17301 4.47656 2.78691 4.47656 3.54156V11.6428C6.54207 12.1017 15.4566 12.102 17.5234 11.6428V3.54152C17.5234 2.78691 16.9101 2.17301 16.1562 2.17301ZM5.14062 19.827V18.6344H6.58594V19.827H5.14062ZM15.4141 18.6344V19.827H16.8594V18.6344H15.4141Z" fill="#000C26"/>
<path d="M19.8518 3.55695L19.781 3.62763L19.7811 3.62763L19.8518 3.55695ZM20.8284 4.53445L20.7576 4.60513L20.7576 4.60514L20.8284 4.53445ZM18.69 3.38516L18.5902 3.39124L18.596 3.48516H18.69V3.38516ZM3.30996 3.38516V3.48516H3.40405L3.40978 3.39124L3.30996 3.38516ZM2.1482 3.55695L2.21895 3.62763L2.21896 3.62761L2.1482 3.55695ZM1.17164 4.53445L1.24238 4.60514L1.24239 4.60513L1.17164 4.53445ZM2.17188 5.19211L2.10113 5.12143L2.07187 5.15072V5.19211H2.17188ZM2.8052 4.55816V4.45816H2.76375L2.73445 4.48749L2.8052 4.55816ZM3.30469 4.55816H3.40469V4.45816H3.30469V4.55816ZM3.96875 18.5828H4.06875V18.5111L4.00087 18.4881L3.96875 18.5828ZM7.75781 18.6344V18.5344H7.65781V18.6344H7.75781ZM14.2422 18.6344H14.3422V18.5344H14.2422V18.6344ZM18.0312 18.5828L17.9991 18.4881L17.9312 18.5111V18.5828H18.0312ZM18.6953 4.55816V4.45816H18.5953V4.55816H18.6953ZM19.1948 4.55816L19.2656 4.48749L19.2363 4.45816H19.1948V4.55816ZM19.8281 5.19211H19.9281V5.15072L19.8989 5.12143L19.8281 5.19211ZM15.3177 17.4614L15.2224 17.431L15.1808 17.5614H15.3177V17.4614ZM17.5234 17.4614V17.5614H17.6234V17.4614H17.5234ZM15.5518 16.7273L15.5347 16.6288L15.4749 16.6392L15.4565 16.697L15.5518 16.7273ZM17.5234 16.3852H17.6234V16.2664L17.5063 16.2867L17.5234 16.3852ZM7.91242 17.4614L7.81715 17.4917L7.83935 17.5614H7.91242V17.4614ZM7.45664 16.0319L7.55192 16.0015L7.55191 16.0015L7.45664 16.0319ZM14.0875 17.4614V17.5614H14.1606L14.1828 17.4917L14.0875 17.4614ZM14.5433 16.0318L14.4481 16.0014L14.448 16.0015L14.5433 16.0318ZM15.0015 15.6323L14.9844 15.5337H14.9844L15.0015 15.6323ZM17.5234 15.1947L17.5405 15.2932L17.6234 15.2788V15.1947H17.5234ZM17.5234 12.8354H17.6234V12.7163L17.5062 12.7368L17.5234 12.8354ZM4.47656 12.8354L4.4938 12.7368L4.37656 12.7163V12.8354H4.47656ZM4.47656 15.1947H4.37656V15.2788L4.45947 15.2932L4.47656 15.1947ZM6.99848 15.6323L7.01557 15.5338H7.01557L6.99848 15.6323ZM4.47656 16.3852L4.49366 16.2867L4.37656 16.2664V16.3852H4.47656ZM4.47656 17.4614H4.37656V17.5614H4.47656V17.4614ZM6.44828 16.7273L6.54356 16.697L6.52513 16.6392L6.46538 16.6288L6.44828 16.7273ZM6.68234 17.4614V17.5614H6.81919L6.77762 17.431L6.68234 17.4614ZM4.47656 11.6428H4.37656V11.723L4.45487 11.7404L4.47656 11.6428ZM17.5234 11.6428L17.5451 11.7404L17.6234 11.723V11.6428H17.5234ZM5.14062 18.6344V18.5344H5.04063V18.6344H5.14062ZM5.14062 19.827H5.04063V19.927H5.14062V19.827ZM6.58594 18.6344H6.68594V18.5344H6.58594V18.6344ZM6.58594 19.827V19.927H6.68594V19.827H6.58594ZM15.4141 19.827H15.3141V19.927H15.4141V19.827ZM15.4141 18.6344V18.5344H15.3141V18.6344H15.4141ZM16.8594 19.827V19.927H16.9594V19.827H16.8594ZM16.8594 18.6344H16.9594V18.5344H16.8594V18.6344ZM19.7811 3.62763L20.7576 4.60513L20.8991 4.46378L19.9225 3.48628L19.7811 3.62763ZM19.4375 3.48516C19.5663 3.48516 19.6899 3.53639 19.781 3.62763L19.9225 3.48628C19.7939 3.35752 19.6194 3.28516 19.4375 3.28516V3.48516ZM18.69 3.48516H19.4375V3.28516H18.69V3.48516ZM16.1562 1.1C17.4505 1.1 18.5124 2.11471 18.5902 3.39124L18.7899 3.37907C18.7056 1.99794 17.5571 0.9 16.1562 0.9V1.1ZM5.84375 1.1H16.1562V0.9H5.84375V1.1ZM3.40978 3.39124C3.48764 2.11471 4.54955 1.1 5.84375 1.1V0.9C4.44288 0.9 3.29439 1.99794 3.21015 3.37907L3.40978 3.39124ZM2.5625 3.48516H3.30996V3.28516H2.5625V3.48516ZM2.21896 3.62761C2.31005 3.53639 2.43362 3.48516 2.5625 3.48516V3.28516C2.38052 3.28516 2.20604 3.35751 2.07744 3.48629L2.21896 3.62761ZM1.24239 4.60513L2.21895 3.62763L2.07746 3.48628L1.1009 4.46378L1.24239 4.60513ZM1.1 4.94918C1.1 4.82012 1.15121 4.69637 1.24238 4.60514L1.1009 4.46377C0.972229 4.59253 0.9 4.76715 0.9 4.94918H1.1ZM1.1 7.88172V4.94918H0.9V7.88172H1.1ZM1.58594 8.36824C1.31767 8.36824 1.1 8.15049 1.1 7.88172H0.9C0.9 8.26076 1.20702 8.56824 1.58594 8.56824V8.36824ZM2.07187 7.88172C2.07187 8.15053 1.85421 8.36824 1.58594 8.36824V8.56824C1.96485 8.56824 2.27188 8.2608 2.27188 7.88172H2.07187ZM2.07187 5.19211V7.88172H2.27188V5.19211H2.07187ZM2.73445 4.48749L2.10113 5.12143L2.24262 5.26279L2.87594 4.62884L2.73445 4.48749ZM3.30469 4.45816H2.8052V4.65816H3.30469V4.45816ZM3.40469 17.6569V4.55816H3.20469V17.6569H3.40469ZM4.00087 18.4881C3.65449 18.3706 3.40469 18.0422 3.40469 17.6569H3.20469C3.20469 18.1307 3.51176 18.5334 3.93663 18.6775L4.00087 18.4881ZM4.06875 20.0225V18.5828H3.86875V20.0225H4.06875ZM4.94531 20.9C4.46216 20.9 4.06875 20.5063 4.06875 20.0225H3.86875C3.86875 20.6166 4.35151 21.1 4.94531 21.1V20.9ZM6.78125 20.9H4.94531V21.1H6.78125V20.9ZM7.65781 20.0225C7.65781 20.5063 7.26441 20.9 6.78125 20.9V21.1C7.37505 21.1 7.85781 20.6166 7.85781 20.0225H7.65781ZM7.65781 18.6344V20.0225H7.85781V18.6344H7.65781ZM14.2422 18.5344H7.75781V18.7344H14.2422V18.5344ZM14.3422 20.0225V18.6344H14.1422V20.0225H14.3422ZM15.2188 20.9C14.7356 20.9 14.3422 20.5063 14.3422 20.0225H14.1422C14.1422 20.6166 14.625 21.1 15.2188 21.1V20.9ZM17.0547 20.9H15.2188V21.1H17.0547V20.9ZM17.9312 20.0225C17.9312 20.5063 17.5378 20.9 17.0547 20.9V21.1C17.6485 21.1 18.1313 20.6166 18.1313 20.0225H17.9312ZM17.9312 18.5828V20.0225H18.1313V18.5828H17.9312ZM18.5953 17.6569C18.5953 18.0423 18.3455 18.3706 17.9991 18.4881L18.0634 18.6775C18.4882 18.5334 18.7953 18.1308 18.7953 17.6569H18.5953ZM18.5953 4.55816V17.6569H18.7953V4.55816H18.5953ZM19.1948 4.45816H18.6953V4.65816H19.1948V4.45816ZM19.8989 5.12143L19.2656 4.48749L19.1241 4.62884L19.7574 5.26279L19.8989 5.12143ZM19.9281 7.88172V5.19211H19.7281V7.88172H19.9281ZM20.4141 8.36824C20.1458 8.36824 19.9281 8.15049 19.9281 7.88172H19.7281C19.7281 8.26076 20.0351 8.56824 20.4141 8.56824V8.36824ZM20.9 7.88172C20.9 8.15053 20.6823 8.36824 20.4141 8.36824V8.56824C20.793 8.56824 21.1 8.2608 21.1 7.88172H20.9ZM20.9 4.94918V7.88172H21.1V4.94918H20.9ZM20.7576 4.60514C20.8488 4.69637 20.9 4.82012 20.9 4.94918H21.1C21.1 4.76715 21.0278 4.59253 20.8991 4.46377L20.7576 4.60514ZM15.3177 17.5614H17.5234V17.3614H15.3177V17.5614ZM15.4565 16.697L15.2224 17.431L15.413 17.4918L15.647 16.7577L15.4565 16.697ZM17.5063 16.2867L15.5347 16.6288L15.5689 16.8259L17.5405 16.4838L17.5063 16.2867ZM17.6234 17.4614V16.3852H17.4234V17.4614H17.6234ZM8.0077 17.431L7.55192 16.0015L7.36137 16.0623L7.81715 17.4917L8.0077 17.431ZM14.0875 17.3614H7.91242V17.5614H14.0875V17.3614ZM14.448 16.0015L13.9923 17.431L14.1828 17.4917L14.6386 16.0622L14.448 16.0015ZM14.9844 15.5337C14.7324 15.5775 14.5258 15.7577 14.4481 16.0014L14.6386 16.0622C14.6937 15.8894 14.8402 15.7618 15.0186 15.7308L14.9844 15.5337ZM17.5063 15.0962L14.9844 15.5337L15.0186 15.7308L17.5405 15.2932L17.5063 15.0962ZM17.4234 12.8354V15.1947H17.6234V12.8354H17.4234ZM4.45932 12.9339C5.70731 13.1523 8.35927 13.2602 11.0017 13.2601C13.6442 13.26 16.295 13.1519 17.5407 12.9339L17.5062 12.7368C16.2799 12.9515 13.6456 13.06 11.0017 13.0601C8.35788 13.0602 5.72237 12.9519 4.4938 12.7368L4.45932 12.9339ZM4.57656 15.1947V12.8354H4.37656V15.1947H4.57656ZM7.01557 15.5338L4.49366 15.0962L4.45947 15.2932L6.98138 15.7308L7.01557 15.5338ZM7.55191 16.0015C7.4742 15.7578 7.26753 15.5775 7.01557 15.5338L6.98138 15.7308C7.15982 15.7618 7.30627 15.8895 7.36137 16.0623L7.55191 16.0015ZM4.37656 16.3852V17.4614H4.57656V16.3852H4.37656ZM6.46538 16.6288L4.49366 16.2867L4.45947 16.4838L6.43119 16.8259L6.46538 16.6288ZM6.77762 17.431L6.54356 16.697L6.35301 16.7577L6.58707 17.4918L6.77762 17.431ZM4.47656 17.5614H6.68234V17.3614H4.47656V17.5614ZM5.84375 2.27301H16.1562V2.07301H5.84375V2.27301ZM4.57656 3.54156C4.57656 2.84205 5.1452 2.27301 5.84375 2.27301V2.07301C5.03456 2.07301 4.37656 2.73178 4.37656 3.54156H4.57656ZM4.57656 11.6428V3.54156H4.37656V11.6428H4.57656ZM17.5017 11.5452C16.9944 11.6579 16.0576 11.7438 14.8984 11.8012C13.7418 11.8584 12.3709 11.8871 10.9995 11.8871C9.62815 11.8871 8.2573 11.8584 7.10083 11.8011C5.94179 11.7437 5.00529 11.6578 4.49825 11.5452L4.45487 11.7404C4.98059 11.8572 5.93297 11.9435 7.09093 12.0008C8.25145 12.0583 9.6257 12.0871 10.9995 12.0871C12.3733 12.0871 13.7477 12.0584 14.9083 12.0009C16.0665 11.9436 17.0191 11.8573 17.5451 11.7404L17.5017 11.5452ZM17.4234 3.54152V11.6428H17.6234V3.54152H17.4234ZM16.1562 2.27301C16.8548 2.27301 17.4234 2.84205 17.4234 3.54152H17.6234C17.6234 2.73178 16.9654 2.07301 16.1562 2.07301V2.27301ZM5.04063 18.6344V19.827H5.24062V18.6344H5.04063ZM6.58594 18.5344H5.14062V18.7344H6.58594V18.5344ZM6.68594 19.827V18.6344H6.48594V19.827H6.68594ZM5.14062 19.927H6.58594V19.727H5.14062V19.927ZM15.5141 19.827V18.6344H15.3141V19.827H15.5141ZM16.8594 19.727H15.4141V19.927H16.8594V19.727ZM16.7594 18.6344V19.827H16.9594V18.6344H16.7594ZM15.4141 18.7344H16.8594V18.5344H15.4141V18.7344Z" fill="#000C26"/>
<path opacity="0.201374" fill-rule="evenodd" clip-rule="evenodd" d="M7.91242 17.4614L7.45664 16.0319C7.39023 15.8236 7.21367 15.6696 6.99848 15.6323L4.47656 15.1947V12.8353C6.95312 13.2688 15.0515 13.268 17.5234 12.8353V15.1947L15.0015 15.6322C14.7863 15.6696 14.6098 15.8236 14.5433 16.0318L14.0875 17.4613H7.91242V17.4614Z" fill="#000C26"/>
</svg>
