<svg width="22" height="17" viewBox="0 0 22 17" fill="none" xmlns="http://www.w3.org/2000/svg">
<path d="M11.0234 10.0314H10.9766C10.653 10.0314 10.3906 9.76769 10.3906 9.4424C10.3906 9.11711 10.653 8.85339 10.9766 8.85339H11.0234C11.347 8.85339 11.6094 9.11711 11.6094 9.4424C11.6094 9.76769 11.347 10.0314 11.0234 10.0314Z" fill="#000C26" stroke="#000C26" stroke-width="0.2"/>
<path fill-rule="evenodd" clip-rule="evenodd" d="M4.125 12.2304H11C11.3236 12.2304 11.5859 11.9667 11.5859 11.6414V9.67803C11.5859 8.70369 10.7974 7.91101 9.82812 7.91101H4.125C3.80141 7.91101 3.53906 8.17473 3.53906 8.50002V11.6414C3.53906 11.9667 3.80141 12.2304 4.125 12.2304ZM10.4141 11.0524H4.71094V9.08902H9.82812C10.1512 9.08902 10.4141 9.35325 10.4141 9.67803V11.0524Z" fill="#000C26"/>
<path d="M4.71094 11.0524H4.61094V11.1524H4.71094V11.0524ZM10.4141 11.0524V11.1524H10.5141V11.0524H10.4141ZM4.71094 9.08902V8.98902H4.61094V9.08902H4.71094ZM11 12.1304H4.125V12.3304H11V12.1304ZM11.4859 11.6414C11.4859 11.9119 11.2679 12.1304 11 12.1304V12.3304C11.3793 12.3304 11.6859 12.0214 11.6859 11.6414H11.4859ZM11.4859 9.67803V11.6414H11.6859V9.67803H11.4859ZM9.82812 8.01101C10.7417 8.01101 11.4859 8.75843 11.4859 9.67803H11.6859C11.6859 8.64896 10.8531 7.81101 9.82812 7.81101V8.01101ZM4.125 8.01101H9.82812V7.81101H4.125V8.01101ZM3.63906 8.50002C3.63906 8.22946 3.85713 8.01101 4.125 8.01101V7.81101C3.74569 7.81101 3.43906 8.11999 3.43906 8.50002H3.63906ZM3.63906 11.6414V8.50002H3.43906V11.6414H3.63906ZM4.125 12.1304C3.85713 12.1304 3.63906 11.9119 3.63906 11.6414H3.43906C3.43906 12.0214 3.74569 12.3304 4.125 12.3304V12.1304ZM4.71094 11.1524H10.4141V10.9524H4.71094V11.1524ZM4.61094 9.08902V11.0524H4.81094V9.08902H4.61094ZM9.82812 8.98902H4.71094V9.18902H9.82812V8.98902ZM10.5141 9.67803C10.5141 9.29851 10.2069 8.98902 9.82812 8.98902V9.18902C10.0955 9.18902 10.3141 9.40798 10.3141 9.67803H10.5141ZM10.5141 11.0524V9.67803H10.3141V11.0524H10.5141Z" fill="#000C26"/>
<path fill-rule="evenodd" clip-rule="evenodd" d="M11 12.2304H17.875C18.1986 12.2304 18.4609 11.9667 18.4609 11.6414V8.50002C18.4609 8.17473 18.1986 7.91101 17.875 7.91101H12.1719C11.2026 7.91101 10.4141 8.70369 10.4141 9.67803V11.6414C10.4141 11.9667 10.6764 12.2304 11 12.2304ZM17.2891 11.0524H11.5859V9.67803C11.5859 9.35325 11.8488 9.08902 12.1719 9.08902H17.2891V11.0524Z" fill="#000C26"/>
<path d="M11.5859 11.0524H11.4859V11.1524H11.5859V11.0524ZM17.2891 11.0524V11.1524H17.3891V11.0524H17.2891ZM17.2891 9.08902H17.3891V8.98902H17.2891V9.08902ZM17.875 12.1304H11V12.3304H17.875V12.1304ZM18.3609 11.6414C18.3609 11.9119 18.1429 12.1304 17.875 12.1304V12.3304C18.2543 12.3304 18.5609 12.0214 18.5609 11.6414H18.3609ZM18.3609 8.50002V11.6414H18.5609V8.50002H18.3609ZM17.875 8.01101C18.1429 8.01101 18.3609 8.22946 18.3609 8.50002H18.5609C18.5609 8.11999 18.2543 7.81101 17.875 7.81101V8.01101ZM12.1719 8.01101H17.875V7.81101H12.1719V8.01101ZM10.5141 9.67803C10.5141 8.75843 11.2583 8.01101 12.1719 8.01101V7.81101C11.1469 7.81101 10.3141 8.64896 10.3141 9.67803H10.5141ZM10.5141 11.6414V9.67803H10.3141V11.6414H10.5141ZM11 12.1304C10.7321 12.1304 10.5141 11.9119 10.5141 11.6414H10.3141C10.3141 12.0214 10.6207 12.3304 11 12.3304V12.1304ZM11.5859 11.1524H17.2891V10.9524H11.5859V11.1524ZM11.4859 9.67803V11.0524H11.6859V9.67803H11.4859ZM12.1719 8.98902C11.7931 8.98902 11.4859 9.29851 11.4859 9.67803H11.6859C11.6859 9.40798 11.9045 9.18902 12.1719 9.18902V8.98902ZM17.2891 8.98902H12.1719V9.18902H17.2891V8.98902ZM17.3891 11.0524V9.08902H17.1891V11.0524H17.3891Z" fill="#000C26"/>
<path d="M17.875 10.0314C17.5514 10.0314 17.2891 9.7677 17.2891 9.44241V2.76702C17.2891 2.44224 17.0262 2.17801 16.7031 2.17801H5.29688C4.97379 2.17801 4.71094 2.44224 4.71094 2.76702V9.44241C4.71094 9.7677 4.44859 10.0314 4.125 10.0314C3.80141 10.0314 3.53906 9.7677 3.53906 9.44241V2.76702C3.53906 1.79268 4.32762 1 5.29688 1H16.7031C17.6724 1 18.4609 1.79268 18.4609 2.76702V9.44241C18.4609 9.7677 18.1986 10.0314 17.875 10.0314Z" fill="#000C26" stroke="#000C26" stroke-width="0.2"/>
<path fill-rule="evenodd" clip-rule="evenodd" d="M2.75781 14.7435H19.2491L19.2587 14.7434C20.2204 14.7345 21 13.9452 21 12.9764V6.92932C21 6.42678 20.8026 5.95695 20.4443 5.60649C20.086 5.25603 19.6123 5.07053 19.1129 5.08447C18.1072 5.11219 17.2891 5.95153 17.2891 6.95547V11.0524H4.71094V6.95547C4.71094 5.95153 3.89277 5.11223 2.88715 5.08451C2.38727 5.07018 1.91406 5.25607 1.55578 5.60645C1.19738 5.95695 1 6.42674 1 6.92932V12.9764C1 13.9508 1.78855 14.7435 2.75781 14.7435ZM2.37297 6.45081C2.49797 6.32849 2.6618 6.26182 2.83605 6.26182L2.855 6.26205C3.21941 6.2721 3.53906 6.59613 3.53906 6.95547V11.6414C3.53906 11.9666 3.80141 12.2304 4.125 12.2304H17.875C18.1986 12.2304 18.4609 11.9666 18.4609 11.6414V6.95543C18.4609 6.5961 18.7806 6.27202 19.145 6.26201C19.3264 6.25636 19.4975 6.32401 19.6271 6.45077C19.7567 6.5776 19.8281 6.74755 19.8281 6.92932V12.9764C19.8281 13.3012 19.5653 13.5654 19.2422 13.5654H2.75781C2.43473 13.5654 2.17188 13.3012 2.17188 12.9764V6.92932C2.17188 6.74755 2.24328 6.57756 2.37297 6.45081Z" fill="#000C26"/>
<path d="M19.2491 14.7435V14.8435L19.25 14.8434L19.2491 14.7435ZM19.2587 14.7434L19.2595 14.8434L19.2596 14.8434L19.2587 14.7434ZM20.4443 5.60649L20.3743 5.67798L20.3743 5.67798L20.4443 5.60649ZM19.1129 5.08447L19.1156 5.18443L19.1156 5.18443L19.1129 5.08447ZM17.2891 11.0524V11.1524H17.3891V11.0524H17.2891ZM4.71094 11.0524H4.61094V11.1524H4.71094V11.0524ZM2.88715 5.08451L2.88428 5.18447L2.88439 5.18447L2.88715 5.08451ZM1.55578 5.60645L1.48586 5.53495L1.48586 5.53495L1.55578 5.60645ZM2.83605 6.26182L2.8373 6.16182H2.83605V6.26182ZM2.37297 6.45081L2.44287 6.52232L2.44291 6.52228L2.37297 6.45081ZM2.855 6.26205L2.85776 6.16208L2.85624 6.16206L2.855 6.26205ZM19.145 6.26201L19.1477 6.36197L19.1481 6.36196L19.145 6.26201ZM19.6271 6.45077L19.697 6.37929L19.697 6.37928L19.6271 6.45077ZM19.2491 14.6435H2.75781V14.8435H19.2491V14.6435ZM19.2579 14.6434L19.2483 14.6435L19.25 14.8434L19.2595 14.8434L19.2579 14.6434ZM20.9 12.9764C20.9 13.8908 20.1641 14.635 19.2577 14.6434L19.2596 14.8434C20.2766 14.8339 21.1 13.9997 21.1 12.9764H20.9ZM20.9 6.92932V12.9764H21.1V6.92932H20.9ZM20.3743 5.67798C20.7134 6.00957 20.9 6.45361 20.9 6.92932H21.1C21.1 6.39995 20.8918 5.90432 20.5142 5.53499L20.3743 5.67798ZM19.1156 5.18443C19.5879 5.17125 20.0354 5.34644 20.3743 5.67798L20.5142 5.535C20.1366 5.16562 19.6366 4.96981 19.1101 4.98451L19.1156 5.18443ZM17.3891 6.95547C17.3891 6.00587 18.1639 5.21067 19.1156 5.18443L19.1101 4.98451C18.0505 5.01372 17.1891 5.89719 17.1891 6.95547H17.3891ZM17.3891 11.0524V6.95547H17.1891V11.0524H17.3891ZM4.71094 11.1524H17.2891V10.9524H4.71094V11.1524ZM4.61094 6.95547V11.0524H4.81094V6.95547H4.61094ZM2.88439 5.18447C3.83607 5.21071 4.61094 6.00587 4.61094 6.95547H4.81094C4.81094 5.89718 3.94947 5.01376 2.8899 4.98455L2.88439 5.18447ZM1.6257 5.67794C1.96469 5.34643 2.41166 5.17092 2.88428 5.18447L2.89001 4.98455C2.36287 4.96944 1.86344 5.16571 1.48586 5.53495L1.6257 5.67794ZM1.1 6.92932C1.1 6.45357 1.28659 6.00957 1.6257 5.67794L1.48586 5.53495C1.10817 5.90432 0.9 6.3999 0.9 6.92932H1.1ZM1.1 12.9764V6.92932H0.9V12.9764H1.1ZM2.75781 14.6435C1.84427 14.6435 1.1 13.896 1.1 12.9764H0.9C0.9 14.0055 1.73283 14.8435 2.75781 14.8435V14.6435ZM2.83605 6.16182C2.63566 6.16182 2.44672 6.23873 2.30303 6.37933L2.44291 6.52228C2.54922 6.41826 2.68794 6.36182 2.83605 6.36182V6.16182ZM2.85624 6.16206L2.8373 6.16182L2.83481 6.36181L2.85376 6.36204L2.85624 6.16206ZM3.63906 6.95547C3.63906 6.54068 3.275 6.1736 2.85776 6.16209L2.85224 6.36201C3.16383 6.37061 3.43906 6.65159 3.43906 6.95547H3.63906ZM3.63906 11.6414V6.95547H3.43906V11.6414H3.63906ZM4.125 12.1304C3.85713 12.1304 3.63906 11.9119 3.63906 11.6414H3.43906C3.43906 12.0214 3.74569 12.3304 4.125 12.3304V12.1304ZM17.875 12.1304H4.125V12.3304H17.875V12.1304ZM18.3609 11.6414C18.3609 11.9119 18.1429 12.1304 17.875 12.1304V12.3304C18.2543 12.3304 18.5609 12.0214 18.5609 11.6414H18.3609ZM18.3609 6.95543V11.6414H18.5609V6.95543H18.3609ZM19.1423 6.16205C18.725 6.17351 18.3609 6.54065 18.3609 6.95543H18.5609C18.5609 6.65154 18.8362 6.37054 19.1477 6.36197L19.1423 6.16205ZM19.697 6.37928C19.5482 6.23375 19.3509 6.15555 19.1419 6.16206L19.1481 6.36196C19.302 6.35717 19.4468 6.41428 19.5571 6.52225L19.697 6.37928ZM19.9281 6.92932C19.9281 6.72071 19.8459 6.52497 19.697 6.37929L19.5571 6.52225C19.6675 6.63023 19.7281 6.77439 19.7281 6.92932H19.9281ZM19.9281 12.9764V6.92932H19.7281V12.9764H19.9281ZM19.2422 13.6654C19.621 13.6654 19.9281 13.3559 19.9281 12.9764H19.7281C19.7281 13.2465 19.5096 13.4654 19.2422 13.4654V13.6654ZM2.75781 13.6654H19.2422V13.4654H2.75781V13.6654ZM2.07187 12.9764C2.07187 13.3559 2.37901 13.6654 2.75781 13.6654V13.4654C2.49045 13.4654 2.27188 13.2465 2.27188 12.9764H2.07187ZM2.07187 6.92932V12.9764H2.27188V6.92932H2.07187ZM2.30307 6.37929C2.15407 6.52492 2.07187 6.72072 2.07187 6.92932H2.27188C2.27188 6.77438 2.33249 6.6302 2.44287 6.52232L2.30307 6.37929Z" fill="#000C26"/>
<path d="M4.125 16C3.80141 16 3.53906 15.7363 3.53906 15.411V14.1544C3.53906 13.8291 3.80141 13.5654 4.125 13.5654C4.44859 13.5654 4.71094 13.8291 4.71094 14.1544V15.411C4.71094 15.7363 4.44859 16 4.125 16Z" fill="#000C26" stroke="#000C26" stroke-width="0.2"/>
<path d="M17.875 16C17.5514 16 17.2891 15.7363 17.2891 15.411V14.1544C17.2891 13.8291 17.5514 13.5654 17.875 13.5654C18.1986 13.5654 18.4609 13.8291 18.4609 14.1544V15.411C18.4609 15.7363 18.1986 16 17.875 16Z" fill="#000C26" stroke="#000C26" stroke-width="0.2"/>
<path opacity="0.203169" fill-rule="evenodd" clip-rule="evenodd" d="M4.71094 11.0523H10.4141V9.67799C10.4141 9.35322 10.1512 9.08899 9.82812 9.08899H4.71094V11.0523Z" fill="#000C26" stroke="#000C26" stroke-width="0.2"/>
<path opacity="0.203169" fill-rule="evenodd" clip-rule="evenodd" d="M11.5859 11.0523H17.2891V9.08899H12.1719C11.8488 9.08899 11.5859 9.35322 11.5859 9.67799V11.0523Z" fill="#000C26" stroke="#000C26" stroke-width="0.2"/>
</svg>
